<mxfile host="drawio-plugin" modified="2024-07-26T08:47:10.603Z" agent="Mozilla/5.0 (Macintosh; Intel Mac OS X 10_15_7) AppleWebKit/537.36 (KHTML, like Gecko) Chrome/122.0.0.0 Safari/537.36" version="22.1.22" etag="-KHwTj-AgZk_2Aduuzsc" type="embed">
  <diagram id="6_Ioh7qSt4RGE9O5Z__2" name="Undoable Command">
    <mxGraphModel dx="944" dy="607" grid="1" gridSize="10" guides="1" tooltips="1" connect="1" arrows="1" fold="1" page="1" pageScale="1" pageWidth="850" pageHeight="1100" math="0" shadow="0">
      <root>
        <mxCell id="0" />
        <mxCell id="1" parent="0" />
        <mxCell id="2" value="" style="shape=image;verticalLabelPosition=bottom;labelBackgroundColor=default;verticalAlign=top;aspect=fixed;imageAspect=0;image=data:image/png,iVBORw0KGgoAAAANSUhEUgAABLAAAAJvCAYAAABrmSgPAAAAAXNSR0IArs4c6QAAIABJREFUeF7svQm8ldP++L8umUkhU1KIZEjIPFzENZUhyZgyRCRE5uESXRddQ0KmjHFNNyWzkPGaUrqmzJEMIVHJ+H+91/+3zvfpOKfOqb3P2cP7eb3O6wz7edaz1ns9e+/zvPfn81l/+eOPP/4IbhKQgAQkIAEJSEACEpCABCQgAQlIQAISKFACf1FgFejM2C0JSEACEpCABCQgAQlIQAISkIAEJCCBSECB5YUgAQlIQAISkIAEJCABCUhAAhKQgAQkUNAEFFgFPT12TgISkIAEJCABCUhAAhKQgAQkIAEJSECB5TUgAQlIQAISkIAEJCABCUhAAhKQgAQkUNAEFFgFPT12TgISkIAEJCABCUhAAhKQgAQkIAEJSECB5TUgAQlIQAISkIAEJCABCUhAAhKQgAQkUNAEFFgFPT12TgISkIAEJCABCUhAAhKQgAQkIAEJSECB5TUgAQlIQAISkIAEJCABCUhAAhKQgAQkUNAEFFgFPT12TgISkIAEJCABCUhAAhKQgAQkIAEJSECB5TUgAQlIQAISkIAEJCABCUhAAhKQgAQkUNAEFFgFPT12TgISkIAEJCABCUhAAhKQgAQkIAEJSECB5TUgAQlIQAISKCACf/zxx2y9+ctf/lLxe3os/S27b3a/6oZTue0CGrZdkUBZE6jJ8xdAPIf5Yv+qXhvYh79Xfq0oa7gOXgISkIAESoaAAqtkptKBSEACEpBAsRNIN6a//vprmD59evjuu+/CtGnT4vdPP/00fP755+Grr74KP/zwQ/yaMWNGmDVrVpg5c2b47bffKr7g8Pvvv4eff/75T/Kr2BnZfwmUGoEFFlgg8IV4WnDBBcPCCy8cGjRoEL8WX3zxsMQSS4SllloqNGzYMDRu3Di0aNEirLjiimH55ZcPSy+9dGjUqFFYcsklqxRXNRVjpcbU8UhAAhKQQGkSUGCV5rw6KglIQAISKEICP/74Y3j77bfDa6+9FsaNGxfGjx8fPvzwwzBlypQop7IRVOlnbnyTsKouIqMIUdhlCZQtgfQ8TlFWPNcR0mzp+c7Pyy23XGjVqlVo3bp1WG+99cJGG20UvxZbbDEjsMr26nHgEpCABEqbgAKrtOfX0UlAAhKQQIETIIIKQTV69Ohw5513hjfeeCNGXCGzsmlARGUsuuiiMUKDm1i+p5+zKYXpBreqyAujMQr8YrB7ZUegqpRhZFVKFeRnvlKE5S+//BL4IkqTr7Tx+tCkSZOw1lprhc6dO4dOnTqFZZZZJiy00EIV+/j8L7vLywFLQAISKDkCCqySm1IHJAEJSEACxUCAm1LE1ciRI8O1114bo66ywoooilVXXTU0b948fudrpZVWijelpAyROkRqEVIriS2E1iKLLBJTibJpSZXr5RQDH/sogXIhkCKs0ndSf5FUyG1SiZHZpAxPnTo1vmZMnjw5TJw4MUyaNCl+//jjj+N+SXzx3Od146STTgodO3YMTZs2ja8Hta2ZVy78HacEJCABCRQPAQVW8cyVPZWABCQggSInkGpc8f2RRx4J/fr1C//73//CTz/9FKMpqHlDBMWhhx4adtxxx1jvBmGFzEpSqqooitRukeOx+xKQwP8jkFIGqyrWzt94nBp4SK1vv/02RnDedddd4aWXXoqvJSlCk9eTc845J4os5HbajMbyUpOABCQggWIkoMAqxlmzzxKQgAQkUJQEEE1ETQwdOjRcfvnl4euvv47Silo22223XejSpUvYcsstY8Hm7M1mUQ7WTktAAnVGgKgtorTGjBkTRRaRnURrEXmFCEeK9+jRIzRr1iymFSqw6mxqPJEEJCABCeSQgAIrhzBtSgISkIAEJDAnAqT6nHrqqWHYsGExRQh5teuuu4aePXuGbbfdNqYEIrmyhZolKgEJSKAmBFKKIBGdr7zySrjqqqvC8OHDYyoirzW8xgwYMCBssMEGvsbUBKj7SEACEpBAwRFQYBXclNghCUhAAhIoNQLcWLKqYN++fcPzzz8f5RU1rYiKOOyww8IKK6wQbzDZTAcstdl3PBKoGwKkFSb5zevIN998E6M9Bw8eHCZMmBAf22KLLcIVV1wR2rRpE9MM3SQgAQlIQALFRECBVUyzZV8lIAEJSKDoCHAj+eabb4ZevXqF5557LqbutGzZMlx66aWhffv2MVWQG08LrRfd1NphCRQ8AV5bHn/88XDuuefG+li8zqy++urhtttuC5tttpmphAU/g3ZQAhKQgASyBBRYXg8SkIAEJCCBPBL44osvQvfu3cMTTzwRz7LRRhuFIUOGhNatW/8pjce6NHmcCJuWQBkSQKD/9ttv4Z133glHH310ePnll6Mw33rrrWNkFkXefd0pwwvDIUtAAhIoUgIKrCKdOLstAQlIQAKFT2DatGnhhBNOCLfeemu8aWzXrl28aURiuUlAAhKoKwKIrE8//TSmLD/55JPxtHvvvXe45pprwvLLL2/qcl1NhOeRgAQkIIH5IqDAmi98HiwBCUhAAhKomgBRD8iqPn36xJpXa6+9dhRZG2+8sQWUvWgkIIE6J5DSmXfeeecwefLksPDCC4fTTz89nHHGGbEGn5FYdT4lnlACEpCABGpJQIFVS2DuLgEJSEACEpgbAaKt3n777dC5c+dYPHmZZZYJV155Zdh3332jvPJGcW4EfVwCEsgHAcQ6C0kcdNBBYdKkSaF58+bhhhtuCDvssIOvS/kAbpsSkIAEJJBTAgqsnOK0MQlIQAISKEcCafn6NPYff/wxnHTSSeHGG2+MN4UnnnhiOOecc8KSSy5ZjngcswQkUAAEsiuc9u/fP5x33nnh119/DV26dInRoURkuUlAAhKQgAQKmYACq5Bnx75JQAISkEBREnj44YfDfvvtFxBZq622WhgxYkRYZ511jHAoytm00xIoPQIffPBBjMJ65ZVXQqNGjcJNN90UOnbs6GtU6U21I5KABCRQUgQUWCU1nQ5GAhKQgATqm8D06dPDscceGyMaFlxwwXDppZeGnj17xtRBvtwkIAEJ1DcBorF4jerVq1eYOXNmXJUQ0b700kvXd9c8vwQkIAEJSKBaAgosLw4JSEACEpBADgikNMIXXnghRjZ88skncbXBxx57LCy77LI5OINNSEACEsgdge+++y6uRDh69OgYhXXXXXeFnXbaySis3CG2JQlIQAISyDEBBVaOgdqcBCQgAQmUL4Gff/45DBw4MJx66qkRwoABA8Jxxx0XI7HcJCABCRQSAaJF77zzzhgxSnH3U045JZx77rlhoYUWKqRu2hcJSEACEpBABQEFlheDBCQgAQlIIAcEWHmQiAYKIj/55JNhhRVWCA888EDYZJNNctC6TUhAAhLIPQFWSz3wwAPDuHHjwhZbbBGo39ewYcPcn8gWJSABCUhAAjkgoMDKAUSbkIAEJCABCZBC+N5774Utt9wyfPvtt6Ft27Zh1KhRoXHjxsKRgAQkUJAEfvjhh1gH67bbboviauzYsaFFixamERbkbNkpCUhAAhJQYHkNSEACEpCABHJAAIFFOk63bt1ia127dg033HBDvBHky00CEpBAIRIg1Zm0Z1Kdr7/++ljDr0GDBoXYVfskAQlIQAJlTkCBVeYXgMOXgAQkIIHcEejbt2+47LLLYiTDoEGDYmoOmwIrd4xtSQISyB0BxPuDDz4YOnfuHH799ddwwAEHRPG+yCKL5O4ktiQBCUhAAhLIEQEFVo5A2owEJCABCZQ3AYogd+zYMTz66KOx/tVzzz0XVlttNeVVeV8Wjl4CBU/g/fffD23atAk//fRTWHXVVcNbb70VFltsMV+7Cn7m7KAEJCCB8iOgwCq/OXfEEpCABCSQBwLUvWIJemrIrLXWWmH8+PGm4eSBs01KQAK5I0AE1rRp00K7du3CBx98EBZddNHwzjvvRJHlJgEJSEACEig0AgqsQpsR+yMBCUhAAkVJYMKECWGvvfYK7777bthhhx1iJJb1r4pyKu20BMqKwIwZM8I+++wTHnvssbDwwguHF154IWy44YZlxcDBSkACEpBAcRBQYBXHPNlLCUhAAhIocALc9B188MFh4sSJoUuXLuH2229XYBX4nNk9CUgghJkzZ8aVCG+66aZY++qBBx4IO+64oymEXhwSkIAEJFBwBBRYBTcldkgCEpCABIqRAIWQjzjiiPDVV1/Fm8ErrrjCG8BinEj7LIEyIzBr1qzQv3//cMEFF8SVCFlNlaLubhKQgAQkIIFCI6DAKrQZsT8SkIAEJFCUBO65555w1FFHhalTp4a///3v4ZxzzlFg5WAmqdHDll3Jkb/xe1WP5eCUNiGBsiHAc4jVBwcPHhyOP/74+LwaMmRI6NatW9kwcKASkIAEJFA8BBRYxTNX9lQCEpCABAqYACmDxxxzTJg+fXq4+OKLw4knnqjAmof5+v3338N3330X+J62rLBidTQKTTdo0CA+nB7LCq55OK2HFCABVvb85ZdfKgQm9Zmc59xPFALrjjvuCN27d498r7rqqtCzZ8/cn8gWJSABCUhAAvNJQIE1nwA9XAISkIAEJAABohaOO+64QEHkQYMGxRvABRZYoEKwSKlmBL7++utw1llnhW+++eZPAgueyy67bFwhrVWrVmHjjTcOK6+8ckx74jG30iLwxhtvhKFDh0ZZ2aJFi9C1a9coL91ySwCBRd0rCrnzXBowYECMxnKTgAQkIAEJFBoBBVahzYj9kYAEJCCBoiRw7bXXxpu+n3/+OVx//fXhsMMOqxiHUSM1n9LPPvssbLPNNuHjjz+OByUJyM8pZZC/LbTQQmG11VaLaZs9evQIiy++eJ1F56SoL6LE6lOcJR6JLr/PqT/zm3KZPd/8XtOJ4ZyujHvvvTfsu+++cV532mmnMGzYsDjPbrklgMB68sknw8477xwF1j/+8Y9wyimn5PYktiYBCUhAAhLIAQEFVg4g2oQEJCABCUiAou19+/aN9WRIxznggAMilJrcqEvv/whkBVbDhg3DLrvsEqUFUThEt3300Ufh008/DZ9//nk8iBvu/fbbL950r7LKKnUmsQpxbudXUBXadZgEFv1iVbwRI0YEUkjdcksAEfvss8+G7bbbLj5/LrzwwnDqqafm9iS2JgEJSEACEsgBAQVWDiDahAQkIAEJSODSSy+NUQvU7aGge1rFS4FVu2sjK7Bat24dRo4cGZo2bRpFIGynTZsWfvzxx3DzzTfHVCdqJCGxEF033XRTWG655eZ4QtohPfHbb7+NEVxEctV2Q1LST272SWGclzay55zXa4Tj4PHll1+GZZZZJqZXVhcZxX4TJ06Mkq9Ro0a1HXLc/5NPPokyEcbzEoFFf6kRx0qdK6644lyjqRRY8zRNtT6IeXn55ZfD5ptvrsCqNT0PkIAEJCCBuiSgwKpL2p5LAhKQgARKlkBWYN13332hU6dOJTvWfA4sK7DWWmutMGrUqChdKm8//PBDeOKJJ2KtsSlTpkSJ1b9//1g8n5+zG2mdL730UkCI8J1zIL6WXnrpsOaaa4bddtstdOzYMZ6nqhQ8IlSQZg899FD497//Hd57772KGl1LLrlkWHfddcNBBx0U2rdvH0USG4IHWfOf//wn9ovt8MMPDyeffPKfxoJAGDduXOjTp0/s29prrx2jjZIk+t///hflKGmVzZo1i324++674xcRaT/99FOUaIyF626vvfYKK620Ujw//JB9tM/vRDCtsMIKYe+9946StWXLlrE/2XRI+sMXXGH22GOPhbfffjvAnD4hn9q2bRv233//mO65yCKLVIyZHz744IOY2slY6C8RPa+++mpk8f7778dIuiWWWCLWMTv44IPD3/72t9C4ceN4TiLtGBOs3nrrrUBNNP6OOGNMzA99GDhwYIzKqs8Uznw+D+qy7XT9bbjhhvG05557blxJ1U0CEpCABCRQaAQUWIU2I/ZHAhKQgASKkkBWYN1///1hzz33LMpx1Henayqw6OesWbMC3M8///wocTbbbLNwyy23BMQXGzfmRFpdffXV4dZbbw0ffvhhFDVJcCVpg9TZdtttw+mnnx622GKL2QQYbXAcK0sSWccKiZUFGedCyOyxxx5xP0QLxxGpdeONN8bVKdmQVxdddNGfELMvgqdbt25Rjq233nrhlVdeqVhpkeiYQw45JMqfpZZaKgqfxx9/PHz//fdR5qTUwSSAkHqkgLEyJivKTZ48Oe5HBFuqKcaKfltvvXW4/PLLozDLiiD2e+211+JYHn300SjvUpQZzJLgat68eRRQvXv3ni0q6913340Sjf4iCSm2/9///jeKKzbOxTloB3F16KGHRvb8TD85DqmIyOJ8/C3JvPQzEo9zKLDm/xnLPFAwHynJhrxCYrlJQAISkIAECo2AAqvQZsT+SEACEpBAURL417/+FaNkuOEmeoaIHrfaE6iNwKJ15ApCh8gq5A7F9Lt06RKFB1FWCJyzzz47yi6ieJBbm2yySaC+FqIFUUQ9LUTIBhtsENMQEUhJmCCJuKGnMD+SrEmTJrGgONEq7PPcc8/FSDCik5A8vXr1Cuedd14gMisJLP7GRo20qgQW10xWYBHR9frrr1fIGWQSAgu5hfhhYyVGZBtpkEg1xs946CNRTDAgYoxx0VfGhngjqok+I/bo7+677x7HRvohG2OCB9KN4zkfoooC34guUhHpz9NPPx3ZE32F6EJCcV7aREBx/dMf/kabRGLBnagrmCK0kCZEx8GKGnLIsBT5RR250aNHx9XxaIOoL+rKcT72YXzrr79+7S8wj/gTAXgS5demTZv4GM+Xfv36SUoCEpCABCRQcAQUWAU3JXZIAhKQgASKkQBpUmeccUbsugJr3mewtgKLm2/EEJFE/HzWWWfFeSDCiMglVrGjTaKijj322HDkkUfGND/EDlILSUIB+BdeeCEejyhCei266KLxd9Lejj766JgyiCxCQCFnEDWIGSTOoEGDwgUXXBBlDOchOoh6QgisIUOGVERgVSewOA8iLUmqddZZJ6b8peiiMWPGhK5du4Z33nkngkXmkD5IZFMSOtS3Yux33nlnRUQWQo9IGlZpZD/6jGhjn5NOOilGRCGPSHmlgDeCCyZErHEcP2+66aZRUCGfeBzZxnFEusGN+ltIqdtuuy1stNFGsX8pAovvHINoYn623HLLCqFFIX6EL9GKiEai55gLZFXaGCMF+tmQhuxbuYj7vNTimvers3SPZK4QlGw8f1Laa+mO2JFJQAISkEAxElBgFeOs2WcJSEACEig4AtzMn3nmmbFfRI106NCh4PpYDB2qrcBCqBB1hZxCBB122GHhsssuiwKKyCxWV2MfaiohUUj1Sxv7I2mQR0T0IGOI0iL6idpQiBXqPA0bNizKJKTOaaedFkVQSttLEuvKK68MiCZ+py3S29intgJrwoQJAYFFdFJVAotxIZioucW5Uk0oxjR27NjQrl27ODzGTN+RaxRtz6bgIbGOO+64KKHY4HfEEUfEYyiwTm0pIrUQfXfddVfYfvvt436MByFFW8g6UiKRffSBqB0EGltWYPEY7TMvaUt9GT9+fKzDRcQW4u+pp56KEXKJLSmbSWAxlwgsxp/dFFi5eVZz3SEi2RRYuWFqKxKQgAQkkHsCCqzcM7VFCUhAAhIoQwIIrHQDj8AiNcut9gRqI7BSfSQinlL6GUJk8ODBMWKKiB9S5dgPOUKdq2zNpCRKKBRONBBRRElUEaFEOh5tcHOPBGJe00pt6dgki1JqX5JKiB4EGCmJRHCxzS0Ciygr0gTnJLBYAZCC6sglIrzobxoTYoqIKYq9syHbEEuVx5zEGv2i3yeccEK45JJLoph688034xgRe0i8a665pqKIPseltvgZoYTUgxPcieyijazAQgiS3khaZKqdlepwMS+77rprnBv4XnfddbG4fNqyAosIrOHDh8cIrCx7BVbtn2NVHcF1l2rHKbByw9RWJCABCUgg9wQUWLlnaosSkIAEJFCGBCoLLIpQe3Nd+wuhNgKL1pE4RPgQUYTYoBA6kVZIHqJ2kDqk0vH7yiuv/Kc5SVKFmj/MIUIHiULRd8QVtZ+ISmratGmM1EoF2rMjy0ZjZeecKCVWAMylwKIfFDevqpA8qX2kTLJqII/DgYLuVW2k55GySB+JjkIe0feRI0dWRI8hn1ixsLqN9EnkH8cR+UUKIKmKWYEFc/6ODMtyStwRjwhIir0TOde9e/cqI7AUWLV/LtXmCAVWbWi5rwQkIAEJ1BcBBVZ9kfe8EpCABCRQUgQUWLmZztoIrBSBRbQURcCRIqy+d84558SoH6LgiA6iQDlFqpdffvk/dTJJFeo8UaydqCmk1b333hsLq5MKSJF0iqaT1odoSeelMeRN+j0bocRjWYHFY3NahRA5VpMIrBYtWsSUu7SCYhJm/E7UFIXOiRQj1Q6BRf2rqjaim5BF8KEAOwKLjbRC0gmzUU7Znyu3laKpKBL/zDPPxJpaCCzqhNFPCsCPGjUqrLHGGn/qBn1Gog0dOjRGYCWBlXakj6RjsqUUQiOwcvM8q9yKAis/XG1VAhKQgARyS0CBlVuetiYBCUhAAmVKQIGVm4mvjcDijEQBUbMJAUR9K9IHqf3E74goHkeykBpHFFDlqDjkDFFXpNshfNiXqCDqTFETi5X++E7hdOpprb766nGg2WiiJJPSdx5LdaKILqL+Fo9Rp+vSSy+drW5Vagv5g1D65JNP5phCyBgQRPS5chQWMoqxs4gAomfgwIHx3JU3+oegQ1wRtcV5b7jhhthHCrofeOCBcXysHHjUUUfFtjhfqreVZZgEFqmN++yzT0UEVhJYiKtHH320SoFFm5z79ttvr4jAok9poy+kJiaBRS0yosJMIczNcy3bCrJxzTXXjH8yhTD3fG1RAhKQgARyQ0CBlRuOtiIBCUhAAmVOQIGVmwsgK7C4oX7yyScrajBVPgMRTtRuYgVAoo9YKY8IImr5TJ48Oa5sx3ckyx133BE6deo0m/RJaWzsQ9TRI488Eh+//vrro8RCsGy44YYxlZDIK9pAilXe2O/777+vkGVIFmpUpdUFqaPFzxQkp+g50UaV61JRTwp5M23atDkKLJiwGmGSZNm+ILCQT7TFKoxIuGzx9Oy+CCzk0fTp0ysEFn0iygxpR1twJJqL1RezUWe0g8SaOXNm7AePsXpgKpCfjcBCuCGwkvjL9gFujJnaYymFMCuwWAESKZYEFhFZpINmN9N0c/O8U2DlhqOtSEACEpBAfgkosPLL19YlIAEJSKBMCCiwcjPRNRFYSBPEy0MPPRR69eoVC7UjX/r37x8LpbOxD7WnqEGFKNlll11imlzlOljU0LrxxhsDaYi0SdTRCy+8EPfjOCKQqIeFKEEGEUFFel62mPnUqVNjeiCr6iFyWI2S8yHDqJ+FxKFtJA5F3SmSzn5pQxaR+siKgfS7devWsa2qViGcm8BidUIileZFYNFfaloh70j7Y5xEcZHayMqLaaOPzBMrLDI+fmefVOAewZYisOYksBBfKQILMQXbbMQYIi4Vdd9hhx2imCMaLBt5psDKzfNOgZUbjrYiAQlIQAL5JaDAyi9fW5eABCQggTIhoMDKzURXFlhPPPFEjMBKEUdID1bZo84VKWZEYSF6SJ0jBbBJkyYV9aFIjyOCivo+SA9kCJKIdDfaI2qLukuIEyKo2Oeiiy6KBeFTahx1sKjDNHHixCidEF2kWKVoI8QUq0+yWh99adu2bazpxEqCbBSR57xPP/10PCdRYYg0Hke+0IcLL7wwDBgwIEY0sSGwqNmV5MyYMWOiIEIMJYFVFW1E2LwILArfI/EYP31EDCKSkFONGzeOUW6cn/HzODXBWLmQcdJHJBUrBK699trxcSKwOnToED744IPYXyLbqorAmpvA+u9//xtXgaRNosDoFymJ9DOxUWDl5nmnwMoNR1uRgAQkIIH8ElBg5ZevrUtAAhKQQJkQUGDlZqKTwKIWFKl4W221VayrhKgg0okV+Ii4QvwQPYVUIf3v9NNPj6IriackNkg76927d6xjxb7UskKqNGzYMIot2kP8ELFEuhoRR6T/cXySXKQUIq2op8V+SKpUL4hIKW7+kU+0SYogwitFLNEGAgfBhuyiXYrKt2rVKu7PsfQhpeIxJuRWdQIr1cCqTmAhmhB7c4vAYp+UQsgxRIaliC/EH6sy/utf/4pRaEQ9rbvuuvGLIvfjxo2Lkoq+IgwpoI+kY57YEG0U0P/www8jJ1IIEVCVN8ZMH0ghrCoCi+MpSo/Aox8UsKcd+knB/a233jo3F52txOvQGlheCBKQgAQkUOgEFFiFPkP2TwISkIAEioKAAis305QVWJVX9cvWfUIQtWnTJpxyyilhp512ijIobdmoHOQUKYEIqNdeey2KkGwBdvYlIosUQCKR+DltaT/E1cMPPxz3oX+VN9po2rRpjN5i1UKET3ZDthGtdPbZZ8eaXGxIGL7ozworrBAjnihmTnRZfQss+kcqITWoEEVTpkypYJZlh0xizMgq0g3TliuBhSBDtPXp0ycKyFSzDG7U8Erphbm58sq7FQVWec+/o5eABCRQLAQUWMUyU/ZTAhKQgAQKmoACKzfTQ3oa0oT0NTbkUPpCXBDx07x589CuXbtYZJwUt7Q6Xtq/ck+QRKQAkoI2duzY8MUXX8SIqZVWWimmvyHAiKpCwmTlV1bWIFNYyZBUOW72U/84/wYbbBALxCN0UuRV5dQ20gspkI4UIrWO1EKijkgXTCvtsRIgfaMOF2l7aWN/UhSRZ9TmIuWxqjEyzmuvvTa89NJLsR8UdGdsVW0vv/xyXLERuUaa3jHHHPOnFRrp8+uvvx4jyBgzfSN9jzFvtNFGUSAxF5XrY02aNCn2H/HFfBEdh6SramNczz//fGRP7a3tttuuYjf4E/FFBBYrKxJ5h0wk9fD444+PRfuzxfBzcwWWZysKrPKQH5nvAAAgAElEQVScd0ctAQlIoNgIKLCKbcbsrwQkIAEJFCQBBdb8T0sSRrSUjbZKMigrlLL7ZFfIm1NNpJSmhzwiMotoq1T3qTr5VdWokFnUzGJj9TwETrbvldtKY0n7IIYQMUSNZVMNOQ4JlS3wns6foo8YH+PNFjJPLCqvFDgnuVNVf7PMs+OmXcaMQKJvjJnvVbGu3O7cuNJ22qe6ucv2i59hxL6VGcz/FVi+LSiwynfuHbkEJCCBYiKgwCqm2bKvEpCABCRQsAQUWPmfmsqCpbLYmJMsyQqgOQmxOY2iOsGChKmJLEr9TfW10veq+l3VWOcmg3g89QXJMyfBk21/ThKpsnyrnNZZFa8kmaoScdn9qxNmleVZVdwt3p7b55sCK7c8bU0CEpCABPJDQIGVH662KgEJSEACZUZAgZX/Ca+J8JhbL+YkweZ2bL4ez8W4Ut9y2Va+xmu7hUdAgVV4c2KPJCABCUjgzwQUWF4VEpCABCQggRwQUGDlAOJcmsiFnFFg5X+ePEPxEVBgFd+c2WMJSEAC5UhAgVWOs+6YJSABCUgg5wQUWDlHaoMSkEAdEVBg1RFoTyMBCUhAAvNFQIE1X/g8WAISkIAEJPD/E1BgeSVIQALFSkCBVawzZ78lIAEJlBcBBVZ5zbejlYAEJCCBPBFQYOUJrM1KQAJ5J6DAyjtiTyABCUhAAjkgoMDKAUSbkIAEJCABCSiwvAYkIIFiJaDAKtaZs98SkIAEyouAAqu85tvRSkACEpBAnggosPIE1mYlIIG8E1Bg5R2xJ5CABCQggRwQUGDlAKJNSEACEpCABBRYXgMSkECxElBgFevM2W8JSEAC5UVAgVVe8+1oJSABCUggTwQUWHkCa7MSkEDeCSiw8o7YE0hAAhKQQA4IKLByANEmJCABCUhAAgosrwEJSKBYCSiwinXm7LcEJCCB8iKgwCqv+Xa0EpCABCSQJwIKrDyBtVkJSCDvBBRYeUfsCSQgAQlIIAcEFFg5gGgTEpCABCQgAQWW14AEJFCsBBRYxTpz9lsCEpBAeRFQYJXXfDtaCUhAAhLIEwEFVp7A2qwEJJB3AgqsvCP2BBKQgAQkkAMCCqwcQLQJCUhAAhKQgALLa0ACEihWAgqsYp05+y0BCUigvAgosMprvh2tBCQgAQnkiYACK09gbVYCEsg7AQVW3hF7AglIQAISyAEBBVYOINqEBCQgAQlIQIHlNSABCRQrAQVWsc6c/ZaABCRQXgQUWOU1345WAhKQgATyRKCywNp9993zdCablYAEJJBbAgqs3PK0NQlIQAISyA8BBVZ+uNqqBCQgAQmUGYGswBo5cmTYbbfdyoyAw5WABIqVgAKrWGfOfktAAhIoLwIKrPKab0crAQlIQAJ5IqDAyhNYm5WABPJOQIGVd8SeQAISkIAEckBAgZUDiDYhAQlIQAISUGB5DUhAAsVKQIFVrDNnvyUgAQmUFwEFVnnNt6OVgAQkIIE8EVBg5QmszUpAAnknoMDKO2JPIAEJSEACOSCgwMoBRJuQgAQkIAEJKLC8BiQggWIloMAq1pmz3xKQgATKi4ACq7zm29FKQAISkECeCCiw8gTWZiUggbwTUGDlHbEnkIAEJCCBHBBQYOUAok1IQAISkIAEFFheAxKQQLESUGAV68zZbwlIQALlRUCBVV7z7WglIAEJSCBPBBRYeQJrsxKQQN4JKLDyjtgTSEACEpBADggosHIA0SYkIAEJSEACWYF13nnnhU033VQoEpCABAqewB9//BE+/fTTcOSRR8a+nnHGGaF///4F3287KAEJSEAC5UdAgVV+c+6IJSABCUggDwSyAisPzdukBCQggZwSQFylbcEFFwy///574G8KrJxitjEJSEACEsghAQVWDmHalAQkIAEJlC+BrMDK3hiWLxFHLgEJFAMB5BWvWQgsNgVWMcyafZSABCRQngQUWOU5745aAhKQgARyTCArsHr06BHWW2+9P53hL3/5S47PanMSkIAE5p0A4mqBBRYIX331VejXr58Ca95ReqQEJCABCdQBAQVWHUD2FBKQgAQkUPoEsgJrxIgRYbfddqsYtOKq9OffEUqgmAl8+OGHoVWrVuG3334zAquYJ9K+S0ACEihxAgqsEp9ghycBCUhAAnVDICuwHnjggdkEFj1QYtXNPHgWCUig5gRSuvNHH30U1lprLQVWzdG5pwQkIAEJ1AMBBVY9QPeUEpCABCRQegQUWKU3p45IAqVOIAksIrAQWNTBsgZWqc+645OABCRQvAQUWMU7d/ZcAhKQgAQKiIACq4Amw65IQAI1IqDAqhEmd5KABCQggQIhoMAqkImwGxKQgAQkUNwEFFjFPX/2XgLlSECBVY6z7pglIAEJFC8BBVbxzp09l4AEJCCBAiKgwCqgybArEpBAjQgosGqEyZ0kIAEJSKBACCiwCmQi7IYEJCABCRQ3AQVWcc+fvZdAORJQYJXjrDtmCUhAAsVLQIFVvHNnzyUgAQlIoIAIKLAKaDLsigQkUCMCCqwaYXInCUhAAhIoEAIKrAKZCLshAQlIQALFTUCBVdzzZ+8lUI4EFFjlOOuOWQISkEDxElBgFe/c2XMJSEACEiggAgqsApoMuyIBCdSIgAKrRpjcSQISkIAECoSAAqtAJsJuSEACEpBAcRJIN4BZgTVy5Miw++67F+eA7LUEJFA2BBRYZTPVDlQCEpBASRBQYJXENDoICUhAAhKoLwIKrPoi73klIIH5JaDAml+CHi8BCUhAAnVJQIFVl7Q9lwQkIAEJlBwBBVbJTakDkkDZEFBglc1UO1AJSEACJUFAgVUS0+ggJCABCUigvggosOqLvOeVgATml4ACa34JerwEJCABCdQlAQVWXdL2XBKQgAQkUHIEFFglN6UOSAJlQ0CBVTZT7UAlIAEJlAQBBVZJTKODkIAEJCCB+iKgwKov8p5XAhKYXwIKrPkl6PESkIAEJFCXBBRYdUnbc0lAAhKQQMkRUGCV3JQ6IAmUDQEFVtlMtQOVgAQkUBIEFFglMY0OQgISkIAE6ouAAqu+yHteCUhgfgkosOaXoMdLQAISkEBdElBg1SVtzyUBCUhAAiVHQIFVclPqgCRQNgQUWGUz1Q5UAhKQQEkQUGCVxDQ6CAlIQAISqC8CCqz6Iu95JSCB+SWgwJpfgh4vAQlIQAJ1SUCBVZe0PZcEJCABCZQcAQVWyU2pA5JA2RBQYJXNVDtQCUhAAiVBQIFVEtPoICQgAQlIoL4IKLDqi3z5nfe3334LM2bMCAMHDgwfffRRWGSRRcJhhx0Wllpqqfi3mTNnhuWXXz6cdNJJYdlllw1cm3/5y18iqPS9/Kg54jkRUGB5fUhAAhKQQDERUGAV02zZVwlIQAISKDgCCqyCm5KS7NDvv/8efv7553DNNdeEk08+OQqpI488Mpx//vlhoYUWCueee264+uqrwwILLBBOOeWU0KtXr7DMMssosEryasjdoBRYuWNpSxKQgAQkkH8CCqz8M/YMEpCABCRQwgQUWCU8uXMYWja6KftzbWjU9Lgkr0aOHBn69u0bPv3007DPPvuESy65JDRt2jQsuOCC4csvvwynnXZaGDp0aFh66aXDWWedFXr27BmjtIy+qs2slNe+Cqzymm9HKwEJSKDYCSiwin0G7b8EJCABCdQrAQXWn/GT6oZUSWxKUaCksaXRz8sYEVMcV5Njx48fH9q3bx++++67sMoqq4QHH3wwtG7dOp6e42nrk08+CXvssUd48803w8orrxzuvvvusOWWW86WSlivTxZPXnAEFFgFNyV2SAISkIAE5kBAgeXlIQEJSEACEpgPAgqs/4MHi59++ikKE1LZSjn6hzEi6mbNmhXlEWl88zJejqcdNo5H/FXeSB0844wzwmWXXRaWXHLJcPHFF8faV+yb5Bd9oE9PPvlk6Ny5c6yH1b179zBgwIAYkeUmgaoIKLC8LiQgAQlIoJgIKLCKabbsqwQkIAEJFBwBBdb/TcmkSZOiWCFaqF27duGmm26KxcTzuaX0usoRUZwTwYNYqkmEU237yPlefvnlcOCBB4Yffvgh9O7dO0qmqgRUdW3/8ssv4eyzzw633HJLLL4+ePDgsMUWW/xp99deey0ccsgh4a233ooRVc8880wUhJU3xklfDjjggPDwww+HJk2axCisbbbZpkIq1nac7l/aBBRYpT2/jk4CEpBAqRFQYJXajDoeCUhAAhKoUwIKrP/DPXHixNChQ4eYwrbxxhvHNDckSr425NUbb7wRo4xSJFNW7LA6H2KoWbNmMbVu1VVXjV3JRWojbTz33HPhb3/7Wzw3NacopF6VWKo8/nR+BFafPn3CtddeGwuuDx8+/E8Ci4i2/v37h3/+85+hQYMGUXIhs6rbaBtpdcwxx4SpU6fGYu5XXHFF7Fcuxp2vubTd+iGgwKof7p5VAhKQgATmjYACa964eZQEJCABCUhgNhnyj3/8I0oMNopt77777mVHiBpMSWARgZVvgcXN9xNPPBE6deoUpk+fHnlno61SkfTFFlssrLfeeuHMM88Mu+6662xRUvManVVZYNH2eeedVyuBRWpgElhEqlUWWJxj2rRp8Vp68cUXQ6tWrcKwYcPCWmutNcdr65tvvgnbbbddFImM+4UXXoiph2mb1zGX3QVdBgNWYJXBJDtECUhAAiVEQIFVQpPpUCQgAQlIoO4J1FUEVuUV66qKpsn+Le1f+XttCFU+J8fyt1TjKv2OEOFv2QisygIr24+qRFO2zZr2MdV82nvvvaPA2mSTTWK6XNp+/PHH8Pbbb4f//ve/gWinddddN9xxxx3xe3arLL2qGl/lPtVEYM1pjmiPPp1wwgkxAqs6gfXhhx/GqKxvv/02yrd77rkn1sqa08Z5jz/++HDNNdfEyK5///vfUWilcSqwanqFlf5+CqzSn2NHKAEJSKCUCCiwSmk2HYsEJCABCdQ5gboQWDNmzAjjxo2L9Y0QEkTVEJkzYcKEKGjY1lhjjbD++uvHx6nDRGFwjnv//fdjmh0/s3rdmmuuGb+niJyspEo/I1amTJkSkCe0j/BYbbXVovhZbrnlwscffxzbZaMvTZs2jT/PKQKL/nz66afxONpfdNFFYyTRSiutNFsh8u+//z5QS+vdd9+N0oa+sh+piA0bNvxThNWoUaMCAovxnXrqqTHdLm2//vpr7BPRUUQusV1wwQXh5JNP/tN1QhogK/wh4Rgz/V199dXjuDn3EkssMdsxcxNYHE/aHu1+/fXXsc0PPvggjhtmzBcpjscdd1y47rrrqhVYN9xwQ9yHthgbYqom2wMPPBD233//KBZPPPHEOO60KbBqQrA89lFglcc8O0oJSEACpUJAgVUqM+k4JCABCUigXgjUhcBCJFEsnKLhRNKQdka9JaRWWn0OabX11ltHyUEkEhKI2kcIEKKTkrRo3LhxOP3008PBBx8c60NVro3EvqT+kQ7JeRkf52C/rbbaKrb//PPPh3POOSc+RvQQhdvnJLDY77PPPgtdu3YNzz77bDxu2223DVdffXVo3bp1PBbZxPgoak5tKQQQfeY7hdgPOuigKJ5Io0uF0mlnTgKLdlOUFoXNEWL77LNPuOuuu+I5ExOk2YgRIyJTxpwe43Eio5BGhx56aFh55ZUrrrG5CSx2/PLLL2PEFPIIiZXapf8dO3aMjKlpdf3111cpsGDCvN9///3x8dGjR4eWLVvOtSg98/XVV1+FTTfdNHL/61//Gh555JGKyC0FVr28VBTkSRVYBTktdkoCEpCABKohoMDy0pCABCQgAQnMB4G6EFhE7iBwXnrppRi1s/DCC8cILGo78fPMmTMDxb6RPQghajFRyJuaSsifxRdfPEY9sR9ShBS0ww8/PIqVpZdeumL0PE4tL8QSBcCRVrRP9BFtEwGGxKEoOn3hb+x71FFHVSmwqAVGxBYyBTl04403RqG0wQYbRPFFofckqfj9kksuiRFT9JloK6LEiIpCqnEcEWAXXXRRLJyexFt1AitJGo5jRb5u3boFRBV9HThwYIVMYpysHnj77bfH8xAhRbF0JBNMiaDi9/bt24cLL7wwtGnTJva5KoGFfIMXG9Fm/E7KIuxhTtv0m3aZByLXmE9qVVWVQshxCEtSIIkEY3VH5jyJuaou29Q3ZN0uu+wSWMEQzggsovOy4m4+LnsPLRECCqwSmUiHIQEJSKBMCCiwymSiHaYEJCABCeSHQL4FFu0jsIiYQhohKJBCp512WlyNDqExduzYcMopp4RXXnklihFECcdttNFGUbrwHWlyyy23RAGE3EAQER2EmGFDRvE70UZII8QK0T/8TqQWEV2s9nfnnXfGiKwkdq666qpw5JFHVimwiORCkP3rX/+KaXz0iQiiW2+9NWy22WYVkUSMa7/99ovSh/2JTGJsiDf6gtgaMmRIFHDIq5tvvjkKH2QQAmuvvfaK8onINARcWgkwRSLxd2QeAufee++tqJMFKyQeTCioTsogom233XaL4yEijN+RQLSF9Lv88stjv+YUgYV4uvjii+OxiDDmi+gxUh1JR0RIwRKplERcVasQ0ifmjvRD0g5fffXVKPdqIrDg1qVLl/Dkk0/GY5F4KYLMCKz8vBYUY6sKrGKcNfssAQlIoHwJKLDKd+4duQQkIAEJ5IBAXQksIrAQKgiMK6+8Mqa08XOKuPnoo4+iIHnrrbeijCKNkOLdLVq0qBglQoToo379+kUZ1KtXr3DZZZdFiYI8QpKRvoeg+ec//xlTA1PBcM5DtBKRUhyPwGKrLgJr8803j1FgTz/9dJQ3rIyHpEE+7bTTTlHswI6oKOQbgoqIK4QY4yCSKckdhBBiChnHmBFiPXr0iG1kBdaGG24Y5RSyiY0xvv7665FJo0aNYqQVxzEmxoM423fffWOaHZIHwZcirHicdqjZhQB79NFHY//oJ+l/9ANWCDVYpFUIOe6dd96J+5COyDHMQxozY0KckV7IuBGCKVWx8iqESCjmkXaIxKIPcxNYabKJ0Dv66KNjuiT1tqiJlVYvVGDl4IlfIk0osEpkIh2GBCQggTIhoMAqk4l2mBKQgAQkkB8CdS2wKHpOJE62+HmqU3XMMcdEwYLA6tu3b5RQKRopjZ5oHupAIVmQIgggjic9bYcddogRT3wnpW7FFVecDRr7ff7556Fz584V0WDVCSzSBFlh7/zzz49F34n+ISqJc2clDEXTkUDvvfdeXG2P/qfzJomU6mMh7UhHRKwRCYUcygqsJMWSwEpyj/NR94sIKtIf098HDRoU+wijv//97zGqLbWR5BnnJmqLcxLFRu2uhx56KEq+qgQWwEiVpF2OpfYW56GvqUg++9BHpCP1qSZPnlxlCuEXX3wRmZBWiRC77777YjojW7ruqruqiUijD/BcddVVY40vivyzKbDy81pQjK0qsIpx1uyzBCQggfIloMAq37l35BKQgAQkkAMCdSWwSOcjRZCUssceeywKj7SlguekwxGlRKQV0oR6T5UFFhFPu+66a3jxxRej0KAQPELjiSeeCB06dIjSpXfv3jFtL8mSLCbG271795gGyHHXXHPNn2pgEfHE6oFsRHaRgkjxd9ICkUm0wXmQRYi0du3axWgposWQarSbrWHF+BBrFDGnDhdpj0QuwSArsKiR1bZt2yiHOJ7IKOQZNaYYCwKLtL5U94v0SDgRnYV0IhUxyaGs5GFFRArk0weORTyRglmVwGJsrIZIAX3SO2+77baw5557xjEngZXaRjIh9B5//PEqBRZzBRtSSJGKpAEmfnO7dOF0xBFHRPnGypNEYPFdgTU3cuX1uAKrvObb0UpAAhIodgIKrGKfQfsvAQlIQAL1SiDfAovBkcZGJA+RV4iM//znP7MVX09yhLpKCBrEDZE3rPpXWWAht7bffvsosEgpIyIL4TN06NAYZYQgoQYV6Xb8Pa34l4VMSiBpfGzVCSyOQzxxfuQbqYrIn9SfxI20yC233DLKnVQ8PUVQZSOpUtQU5yTdj/paRKElgUV0FBFHRFIlQcRYWf2PaDIitmiPVMRjjz02jovxkjZIMXW+I8+q2qZMmRJITyT6jPpiCCykXGWBxcqMjI+C8aQNIsZIoUSsVRZj9JE+k+aH5KqqBhaSj0g25ojv1M5KKZ1zisCibWQbkXJPPfVUTIuElzWw6vWloiBPrsAqyGmxUxKQgAQkUA0BBZaXhgQkIAEJSGA+CNS1wEI+3X///TECKG0psgepxMp3CKybbrop1rSqLLCQIqStZQUWxxOBtfvuu0eRlCKwkDzZSKj0M6l81LKqLgIrraqHkKLWEymBCCTS4BAw2T5NmDAhRk0RgYVIYuU8thRFxc+ch5pYjIs+sSIf6ZIwSAJrxowZMQUQQZWVO+nnrbbaKtYQa9WqVRRBpPQh+4haQzTBa4899qiQbmmsfGc8HE9UE2MijbG6CCz6i/xjLhgrkV1EWTHmJOFShBntUe8LyVTVKoS0RXolhdiRT4gsVoScW/ogxyHddtxxx5gaSh0tCsYzzsRzPi55Dy0hAgqsEppMhyIBCUigDAgosMpgkh2iBCQgAQnkj0BdCaz9998/roZXU4GFYKLwe3UC64UXXogpZaTwsf3vf/+L0V0UaqcQOlFLSJOswGI/6jIhZJBAyKSqViEkhZCoH1YnpOA7Eov0QNL1kGfUj0rtUgOLVf84BllDaiIyp3LkF+INqQVvxpTkWjaFEHFEqmJVgqdTp06xDhT9IJ1u7bXXjmMkzY79qc+FuKt8Xs5JuiLph2xEaQ0bNiymB1aOwErRX0Sz9ezZM6ZyIqgYU4qcSgKJc6bi7NXVwGJf+nT99ddHcUUNLPhl26h8ZSdJRtoj9bOQZIhJjk1jswZW/l4Piq1lBVaxzZj9lYAEJFDeBBRY5T3/jl4CEpCABOaTQF0ILGogJYGFQKkcgZWGQNQP6X+IE1LiSN2bk8Bq2bJlIAKKMSCmSDkk5Y0oI1YrpGYVooYNkYMMQaakc/D3qlIIiRRiFcJ77rknpjuSWkdKG0IMmYMgS4Xcv/3225j6h/RB0qRVCjlvilQi1Q5RRu0vNtLuiOain1mBRaF2BFZW0DA2pBzih0gqxkxEE9FejJXUTCKqqDXFin0UPE/n5VhEUFqFkPRB+k+tLGRQVSmEjIvzIOVIOVxqqaViiiB1x7Lpk6zKiORChrFVF4FFn4h443xEmCHp5iSw0rUARwQi/WGFxHRcOnY+L3sPLxECCqwSmUiHIQEJSKBMCCiwymSiHaYEJCABCeSHQKEILATTpZdeGlMIayqw1lhjjbj6X6qhhUyhsDkRU9Rkolg70TuIp0mTJsUIJsQIQoiN4wYPHvynIu4IrI033jiMHDkySinEGql99It6UNdee218PEUEvf7661EkIeqaN28eevXqFYXPCiusEFfoQ4RRQ4s0wc022yzW9yKCivNnBRZF60888cSKCCzOx/iQeY8++mj45ZdfYiQVfUYmUUSdFELSG6nXhVijLhb1pnic9DtSAEnxYyMlk1UXkWucu6oi7hzHeRCACDXaJeqLulu0T+ohfCiufscdd1RclNUJLCQYkVTwR8IhBGkjWxOs8pXNtUD9q+HDh8f0TYq/ExGXNiOw8vNaUIytKrCKcdbsswQkIIHyJaDAKt+5d+QSkIAEJJADAoUksJA82QgsUggry4pUA4sUwiSwEgYEEULnuuuuC6yAR4QTxcoRJkRBIVEQW0imOaUQZgXWcsstF4UYAgtxhFzZdNNNozRiRUUkFsKHGlTs89lnn0XpRYQUaXc//vhjjGRiH0QQko46WUl+EU1FRBR9p2/0N6Uapqgxor/YqGNFHyhen6QdkVDHHXdclDycizYYLyKK6DCOJfIq9RkRlJg+++yzMe2R2lxEOZ133nkVUVasvsjfEE6IMsaETILptGnTYrtNmjSJkVdvvPFGtRFYjAtxhjxkZUeKwxPdNqc6WETVEQFGiiIF8lNUnQIrB0/4Em0CeczzgudMSsUt0aE6LAlIQAISKGICCqwinjy7LgEJSEAC9U+gLgQWqxCSQjhmzJjQvn37WM8oW8QdCvTjiiuuiNKEguhEHSE+KgssRBBpiBRxJ52OFLl0PPuSJnj33XfHVEHqYtEWsgiZRDHwHj16hI8//jgWQCe6CCFEHSmOpZ5Vhw4dYj0r9kW6ILB47JNPPomRVY8//nhAolFgnGim1VdfvSKaiGgqorWIyEIsJcnUuHHjsO2228Z6UFtvvXWUQKnPo0ePjumEiJ70t3RVIKEQRIgiRBN9p+4Xx6daWtywI5OI6iK6jDEwZv5OpBWSj+LuSC7ayfIkAmvnnXeO+1cWWPSB1MQrr7wyRpCxciHj5ryMh3HQJlFvcIATvJBT2Y1+ELF2yimnxPMgKFOtraokFvtfcsklUaYRgUZK5amnnjpbm0Zg1f/rRqH1gNeYJHYVWIU2O/ZHAhKQgAQSAQWW14IEJCABCUggBwQQBcgFNlLnSL3L1Yacoa4SUVEImfXXX79C4mTPQdQPUTdIDFbbW2mllf4ksHgMEYaoQkoRoYMIya6Qh/hAUhE5xY0tIojoH2QONaLSeTg3EozHOJ4orXHjxkWZRO0nopVYPTBtSBxEFiKHcyOTSBPMFoon2or2OTcSi5XzSGHk3EmGZcUN6YycE5lWeaPfRD7xRdQYxePZKtcF429EUcEO6YTEYp9mzZrFiC7GnI7NngPxxblhyj70sbIcol0iohgP4yeaC2nHFxFZFNEn6gwe8EorBWbPwxxQj4yoN5g988wzkVtVqy3CjGvv1Vdfjema1N8iJbLiH7+//CVXl6XtlACB9Nwn1RaBxabAKoGJdQgSkIAESpSAAqtEJ9ZhSUACEpBA3RKoSmClm8Nc9QRJg1ipLEkQKPy9JudL0iMrrCr3b07tVHd8Ooa+ZIVUVbIona+682TFTHas2cEZ6eAAACAASURBVLazQqYm42b/bN+rmpPKIm9O85aiwxLH6sZZ3Viybc9tHx4nqgqxQDQcRewvvPDCKL2yrImuI1rr5JNPjlKNqC0K6CMRU8RZrq5F2ykNAumaJxKTunIKrNKYV0chAQlIoFQJKLBKdWYdlwQkIAEJ1CmBAQMGxFQtxAGrBO655541Ekp12sn/J3FqkkJWUylUWUbNTQJl263tOaqTTvy9JmOaG+u59b0q6TQnEZjdP0nGqkRaTQQWUWmkalLziyguIqvSSozpeFZp3GeffWIkXNu2bWMqKJFeueA8N3Y+XtwESPslYo/rGVFKLTw3CUhAAhKQQKERUGAV2ozYHwlIQAISKEoCFFAn8oUoKWpU7b333nEcuRArRQmkBp3OhVjJRRs16OqfdqlJJFtWVtX0HNVdL5yPmmTUNaPoOymi1NZCOvAYaYaHHnpoTDMk9ZEVDkkPralgq2n/3K/0CHD9ILDWW2+9eL1Qz+38888vvYE6IglIQAISKHoCCqyin0IHIAEJSEAChUAgK7AQC506daqy1lIh9NU+1B2BbHRVTc46J4GFHH3wwQdjgX3qiFEInqg//j506NBYEJ7jqZdF4XlSDN0kMDcCXKPU2KO2HimqRGD169dvbof5uAQkIAEJSKDOCSiw6hy5J5SABCQggVIkcPnll4e+fftGmUD0ywEHHFCKw3RMtSSQK4GVTkuB/W+//TZGXSEbWBmRnylmz2MIrKWXXnq2+li17LK7lxkB0ltfe+21sNlmm0XpzgqWRGG5SUACEpCABAqNgAKr0GbE/khAAhKQQFESGDRoUDjxxBMDhbRvvvnm0K1bt6Ich53OLYFcC6zc9s7WJBCidH/++efDdtttFwUW6YOnn366aCQgAQlIQAIFR0CBVXBTYockIAEJSKAYCbD6W58+fcLMmTPDddddF3r06FGMw7DPOSagwMoxUJvLOQEE1qhRo8LOO+8cGjRoEAXWaaedlvPz2KAEJCABCUhgfgkosOaXoMdLQAISkIAEQgi33HJLOO6448IPP/wQWJGQaKzsynNCKk8CCqzynPdiGTXXJ/XUHnjggbiCJQKLen7HHntssQzBfkpAAhKQQBkRUGCV0WQ7VAlIQAISyB+Bu+++O/Ts2TN89913cQl6a8jkj3UxtazAKqbZKs++kvZ8++23h8MPPzymEA4ePDgcccQR5QnDUUtAAhKQQEETUGAV9PTYOQlIQAISKBYCI0aMiDeAU6ZMiat49e/fv1i6bj8lIIEyJkDx/6uvvjpGjbIIANGkBx98cBkTcegSkIAEJFCoBBRYhToz9ksCEpCABIqKwNNPPx26du0aPvvss3DUUUfFKAY3CUhAAoVO4Keffgpnn312TH0mAmvYsGFhjz32KPRu2z8JSEACEihDAgqsMpx0hywBCUhAArknMHbs2NClS5fw3nvvhU6dOoX77rsv9yexRQlIQAI5JjBjxoxw2GGHhbvuuissuOCC4amnngrbbLNNjs9icxKQgAQkIIH5J6DAmn+GtiABCUhAAhIIkyZNCrvttlt44403wuabbx6XpSeawU0CEpBAIROYPn162G677cKrr74aFllkkTBmzJjQunXrmE7oJgEJSEACEigkAgqsQpoN+yIBCUhAAkVLgDoyO+64Y3juuedCs2bNwvjx40PDhg2Ldjx2XAISKA8CX3zxRRRW06ZNC40bNw7vv/9+aNSoUXkM3lFKQAISkEBREVBgFdV02VkJSEACEihkAqzcNWTIkLDsssuG//znP6bhFPJk2TcJSCASeOGFF6J8nzVrVthyyy3DI488EhZffHEjsLw+JCABCUig4AgosApuSuyQBCQgAQkUI4E//vgjXHHFFeGkk06KN3+nn356XI3QTQISkEChEuB168YbbwzHHHNM+P3338OZZ54ZX7dIJXSTgAQkIAEJFBoBBVahzYj9kYAEJCCBoiPATSDbK6+8ErbffvsYybDVVluFxx57zBvBoptNOyyB8iHwyy+/hD59+oSrr746LLbYYmHUqFFhk002icXc3SQgAQlIQAKFRkCBVWgzYn8kIAEJSKDoCCSB9dVXX4X27duHt99+O6y22moxFadly5ZFNx47LAEJlAeBiRMnhm7duoWnn346rLHGGuH1118PSy65pOmD5TH9jlICEpBA0RFQYBXdlNlhCUhAAhIoVAKs5kX6zaBBg8ISSywRbr311tCxY0ejGQp1wuyXBMqYwG+//RaefPLJcMABB4RvvvkmHHzwwTGdcKGFFlJglfF14dAlIAEJFDIBBVYhz459k4AEJCCBoiJAJNaDDz4YIxpY0YsbwsGDB5tGWFSzaGclUPoEeK3iNQrhfu2114YGDRqEyy+/PBx55JFx8AsssEDpQ3CEEpCABCRQdAQUWEU3ZXZYAhKQgAQKlQA3hZMnT44Ca/To0bGY++OPPx423nhjbwgLddLslwTKkACvVWPGjAl77LFH+PLLL0OzZs3CyJEjw7rrrluGNByyBCQgAQkUCwEFVrHMlP2UgAQkIIGiIcBqhCeccEKUVltssUUYPnx4WHbZZYum/3ZUAhIobQIzZ84MvXv3DjfffHN8nTrqqKPiKqpGXpX2vDs6CUhAAsVOQIFV7DNo/yUgAQlIoOAIUBiZyIbx48eHhRdeONx2222hU6dOsa4MX24SkIAE6pPAQw89FA499NDAwhPrrbde4HeisNwkIAEJSEAChUxAgVXIs2PfJCABCUigKAnMmjUrPPzww+HAAw8MRDq0bds23HLLLaFNmzZFOR47LQEJlAYBUgenTp0a9t9//5jejGD/5z//GXr16hWLt7tJQAISkIAECpmAAquQZ8e+SUACEpBA0RHgBpGv77//Phx//PFh6NCh8XcKug8cODA0atSo6MZkhyUggeInwOvQDz/8EPr06ROjQn/99dew++67x4UmVlppJSNEi3+KHYEEJCCBkiegwCr5KXaAEpCABCRQlwS4SWTjOymE++23X3jvvffCEkssEY444ohw5plnWg+rLifEc0lAApHAjz/+GAYNGhTOO++8QJToGmusEWtgUacvm9psmrMXjAQkIAEJFCoBBVahzoz9koAEJCCBoiaQRNYjjzwSl6ZndULSdU477bTQt2/fuEKhmwQkIIG6IDBjxowwZMiQKNARWU2aNAkXXnhhOOigg0KDBg1i8XZes5RXdTEbnkMCEpCABOaVgAJrXsl5nAQkIAEJSKAGBH755ZcY5XDWWWfFgsmkEHbv3j2KrOWXXz624E1jDUC6iwQkUGsCSKmvv/46pgkOGDAgTJ8+PSyyyCJRXiHWF1tsMcVVral6gAQkIAEJ1BcBBVZ9kfe8EpCABCRQFgR+++23eIN46aWXhgsuuCDWoFlwwQVjEeXTTz89rLPOOrMJLKMgyuKycJASqBMC77//fhRXSPSff/45LLnkkjGV+fzzz49pzb7e1Mk0eBIJSEACEsgRAQVWjkDajAQkIAEJSGBOBH766afw73//O5xyyinhm2++ibu2atUqnHrqqWGfffaJN5Yp7dCILK8lCUigJgSyrxm///57RSF2fr7rrrvCxRdfHGvx8TuvMf/4xz9Cjx49YjozrzMKrJpQdh8JSEACEigUAgqsQpkJ+yEBCUhAAiVPYObMmWHUqFGhX79+4bXXXos3jw0bNgzbb7996N27d1h33XXDcsstF+vRKLFK/nJwgBKYbwKVBRZyHGFFsfann346TJ06NUZ8Eul58sknh86dO0d5xWuMmwQkIAEJSKDYCCiwim3G7K8EJCABCRQ1AVIK33333ZjWc/vttwdqZHGDSS2abbfdNuy6665hu+22C61bt45/d5OABCRQHYEksCZMmBCeeeaZMGLEiPDiiy+Gb7/9NgpyCrQjrU466aSw0UYbKa68lCQgAQlIoKgJKLCKevrsvAQkIAEJ1AeB+U31Q2J999138YbzmmuuCa+++mosrsxGdMRqq60WmjdvHtq2bRvWX3/90LJly7D00kuHRRddNBZg5qaULwQXkRR8J2IrfdFO9uf6YOQ5JSCBmhFIryd8z37xOoHgJv2Pn3/99df4+6xZs+LrxUcffRRefvnl8Oabb0YpPmnSpFhjj+c+9a14/Tj66KOjEGfBCIV4zebDvSQgAQlIoHAJKLAKd27smQQkIAEJFDgBbiprs2VrzqRl61kh7J577gn33XdfFFkscZ+2dGO70EILxRvQZs2ahRVXXDGmHfLFTSrCi+gthBbt8z1JLVMRazM77iuB/BOoXHMqPceRVElU8brCF0XXeT1AVk2bNi1+kSL42WefhcmTJ0eZlX0N4vm/+OKLh8033zx06NAhRl6ttNJK8fWAthVY+Z9fzyABCUhAAvkloMDKL19bl4AEJCCBEiVAFMR7771X49Fxo5puNrnRTDeVRFWkejRTpkyJUVmPPfZY+OCDD2KkBV/sU92Nb4074I4SkEBBEKiqvl1VxdST3KLT6TUiRWjRBkIKgY20atGiRWjfvn3YaaedYr0rxJWbBCQgAQlIoNQIKLBKbUYdjwQkIAEJ5J0AN5Gk7ZDel4uNm1Miqy677LKw7777xibfeeedGJH1+uuvR5lFMWZkFqmHRGTMmDEjiq0UuZFubPk9+3Mu+mcbEpBA/gikdN8UMZmNnEzpwqQOE3G51FJLRWHVpEmTmGrMaxARV6xoitDKSi967GIQ+Zs3W5aABCQggbonoMCqe+aeUQISkIAESoAAAmu99dbLyUhSaiGRE88991xMD0zpPtyQIqpIJeILcUVqEV9JYKUIray84jh+d5OABAqbQHUCK6UEk0LMV0oXXnLJJQNf/K6gKuy5tXcSkIAEJJBbAgqs3PK0NQlIQAISKBMCNRVY2RvMytERCVWqh9W0adMwZsyYsNxyy3ljWibXkcOUQC4IVJWCmIt2bUMCEpCABCRQSAQUWIU0G/ZFAhKQgASKggCRTW+//XaMwKouAoIIqmzNq5TWV90Aaadjx47hlltuCY0aNSoKDnZSAhKQgAQkIAEJSEACdUVAgVVXpD2PBCQgAQmUFIGJEyeGnj17zrHmDGl+LG//+eefV9Slqg7CsssuG2666aaw8847x9QgNwlIQAISkIAEJCABCUjg/wgosLwaJCABCUhAAvNIoLqVw/g7Kwref//94ZJLLolF2OeUPkj0FUveX3311TH6Kq04No/d8jAJSEACEpCABCQgAQmUHAEFVslNqQOSgAQkIIH6IoCkmjlzZhg9enQYMGBArGc1bdq0ORZTR16tssoq4brrrovRVxZlrq/Z87wSkIAEJCABCUhAAoVMQIFVyLNj3yQgAQlIoGgIkC6IsCKK6t577w2//PJLRQ2sbPRVElTpb/zetWvXcOONN8aVBxVYRTPldlQCEpCABCQgAQlIoA4JKLDqELankoAEJCCB0iGQBFRKF7z99tvDZZddFr788ssorhBRFHuvKs0wK7FWWGGFcN9994XNN988HqPAKp1rxJFIQAISkIAEJCABCeSOgAIrdyxtSQISkIAEyoQAYurXX3+NXy+++GK4+OKLw0svvRTTBRFQWbm1yCKLhNVXXz3ssMMOYdiwYWHy5MnxcepcEXF1zDHHhHPPPdeVB8vk2nGYEpCABCQgAQlIQALzRkCBNW/cPEoCEpCABMqMQDaSCoE1bty4MGTIkJguSNQVMipFXrEvX8irI444InTr1i089dRT4bTTTovUkuAi+mrkyJGhXbt2MVrL4u1ldlE5XAlIQAISkIAEJCCBGhNQYNUYlTtKQAISkEC5EkAupcgqZBWRVNSsGj9+fJRW2Ygr9mvQoEFYe+21Q9++fcNuu+0Wvv7663DQQQeFsWPHVggshNcJJ5wQ+vfvH0VXVamG5crbcUtAAhKQgAQkIAEJSKAyAQWW14QEJCABCUhgLgSQS0gsoqgGDx4chg8fHtMH2bIpg/zcvHnzsM8++4TDDjssSiwE10UXXRQuvPDCuEJhkl3sx2qFq666qnWvvAIlIAEJSEACEpCABCQwFwIKLC8RCUhAAhKQQDUEUhH2L774IvTr1y88+OCDgZ+RUmlLRdeXWGKJ0LFjx3DGGWeENddcM0ZhEWX12Wefhfbt24cJEyZUiCpSBS+55JLQu3fvuJ+bBCQgAQlIQAISkIAEJDBnAgosrxAJSEACEpBAJQIpnW/KlCnhiSeeiNFTpAum6KnsKoILLbRQXEGQYuykCy611FKxtZRaSIH2AQMGhJ9//jnWuOLYli1bxtpXfHeTgAQkIAEJSEACEpCABOZOQIE1d0buIQEJSEACZUQASYV8evbZZ2OUFGl+pP6xpdUD+RkRtfTSS8eIqy5duoSVV165ogg7j9HG66+/HnbdddfwzTffxOMRWIsvvng466yzwoknnhjbIErLTQISkIAEJCABCUhAAhKYM4GSEFhVFb61GK6XvgTKl0CKkkmSIUvC14byvS5qMnKuD1L9br311nD77bfHdMFffvkliibSCdM1tcwyy0Qx1bNnz9C2bdtA+mDl6Kyffvoprjp49dVXV7TB8VtssUUYMWJEaNy4cWw3RXPVpH/uIwEJSEACEpCABCQggXIlUBICK60OlW4s+NSbrx9++CF8/vnngRQQfv7+++/j91mzZsVUDgrwpn1TnZP093K9IBy3BIqFAGlb1A5KAiDVG0Ik8BhfRMcgGpZddtnQrFmz0KhRo3gMUTBuEkjCidd/oqB4jxg6dGi4+eabw7hx46J04lrJrkAItU033TQce+yxYffdd4/XWLoGs+KU/SZNmhT22muv8MYbb1QUfF944YXDVVddFQ499NAKcaXA8lqUgAQkIAEJSEACEpDA3AkUvcDihoHUju+++y5Mnjw5vPLKK2HMmDHh3XffDdOmTQs//vhjfJwbEb4QVEir9Ek6x2eXP8/+Pnd87iEBCdQXgSQNEAxZIcXPyAhEFRILYbDYYovFtC1qE7Eq3IYbbhg22WSTmPJFFAzSS4lQXzNZP+fNvu5Pnz49vPnmm+Gyyy6LRdp5z8hGW6UPR1ZZZZXQvXv30LVr19CiRYt4nWWvm8oCiw9Jxo4dGyOwqKP15ZdfxugrortYeTBtXnv1cw14VglIQAISkIAEJCCB4iJQtAKLG4WpU6fG+iKjRo2KS5sjrhBUlW8i0s1H5anJLn1eXNNmbyUggfS8rvx8TzIgW2SbfbNymseQW+uuu27Yfvvtw1//+tdYhLtJkyaKrBK/tJKYSpFVH3/8cbjtttvCNddcE6N1sx9ucJ2wH9cK0VYnnHBC2GyzzaK4mlsUX/a6RGRRR+u+++4LW2+9dTjggAPmenyJT4PDk4AEJCABCUhAAhKQQK0JFJ3A4qaASKrhw4fHT7X51JzoK240uEngpoLIC6IuVlhhhdC8efP4Sfnyyy8fVlxxxRhtseiii8ZojIYNG862P/RS9Eb2E3FFV62vKw+QQF4IZOUUrwNEU7LxM/WGSA8meialDFM4mzRiUrneeuutGKWJoGD/bOoxEVhEZrGK3J577hlTDbPFuvMyGButNwIpcvfee+8Nl19+eXwf4cOPrPRMxdVbtWoV+vXrF3bYYYd4Xczrls6Z3p/mtR2Pk4AEJCABCUhAAhKQQLkSKCqBxQ3qyy+/HOuHPPzwwzE9MNW9WX311cM666wTNthgg/jVpk2bKK14PG1p+XJ+r3yjYgpHuT4FHHcxE6gq2pLxVE4NRlbxhdBCVrz22mvx67333gvvvPNOFFocg9wmxatv375hyy23nC9hUcxcS7Hv6VrhfYSaVAMHDgzDhg2L4jO9J2Sl5hprrBE6d+4cjjzyyFg/rXK6YG0YVRUlyLnmFsVVm3O4rwQkIAEJlB4BF54pvTl1RBJIBKrLIpHQnAkUhcDiH33SBS+99NJw4403hq+//jr+40/0xbbbbhuL4VJUl5sMIincJCCB8iFQeeW36kZe+Z9AxAXRWaQe87ry2GOPVYgvCnMfeOCB4bzzzgvLLbecaYVFfjkloUkNqiuuuCLWoOLnrLBCUPGewocZnTp1Cscff3xo165djOZNUbgKpyK/EOy+BCQggSIgkD7gqMn/N1Xto/Qqgkm2ixL4fx+4AyL7nK0uqCb9z8rj/L+a/ictxyCcghdYTCirQf3jH/+IxXW56SSqaquttoriascdd4w3mPzNlB9fCyRQfgRq8g/enKQWqcdEZlFPb/DgweGZZ56JC0AQjUW9o1NOOSXsvPPOSqwivbS4Pqht9fjjj4dBgwbF9xPSTCt/6oWo2njjjeP7SseOHWM9NKRW5X8sihSD3ZaABCQggSIjkD58mTFjRmCxEb6T7p6+GE6KME/fswuUVBelXmQY7K4ESpZAZfmU/u/k77iNtCBVWl2dQB0+ZOd/Vrb0AWvl+r8lC+z/DazgBdaLL74YTjvttPD8889H27jMMsvET8YPOeSQuIpTso+mY5T6per4JJB7AtlPM2id6E7Syvr37x8mTpwYX19ITb7ooovCrrvuqsTK/RTkvMXsp1jML+8hFGgfOXJkTDtPRdrTiXnTJ928W7du4fDDDw+kDlb1YUg5fsKV88mxQQlIQAISmI1AVdFSqdwBJQ4mTJgQP4Th/5Nvv/02iqwks3g/40M4vmgnrbTOz5Xf68QuAQkUJoG0qjrfk5iip6ygzu98oE7dbr6QV9T05v/W1q1bx8WoqNVKbe9y2gpWYPHi+/TTT4eTTjop1ith23DDDWMx3e222y5OZuXly73BKKdL17FKIPcEeN3hH8FXX301vtYQtcPfWAyCFGZWokt19Xy9yT3/+Wmxcmg1BfuHDBkSVxhkpcGUHpitj0ZRdt5Pjj322LgKJZ9szU9E3/z032MlIAEJSKB8CCRxxXeySz777LPw0ksvxXIG1Ookzf3777+PEcO8v6U0dwjx/0c2Bb66lEEjsMrnenKkpUGAD86z/6dmR5VdVI57kSWXXDIsu+yysYQSGQRki7AgFYvYEbGVXitKg8zsoyhIgZXSBnv27BleeeWVeMPI0uPULsE0euNYipeiY5JA4RDgH8OPPvoonH322eH++++P/1yuttpq4dprrw3bb7/9bMW3fT0qnHnjvYMVKBGPl1xySaxvlj6ZztYKYD8+EOnevXs46KCDYrF+57Fw5tGeSEACEihlAkk4kRLIh/SPPvpouOeee8Lbb789200n/4twI0p0BeVSuFnlgxZuXPkb0RkpzYifKy824vtaKV9Fjq1UCCQxlaIo+b+V5z4Rldx/8DpBaROyCIjCJCKTx7JpwxzLa8BGG20U9t9//5g1wgJ387MAUSHzLUiB9emnn4aDDz44pg0yIX/729/CddddF5o2bRpvMnxBLuRLyr5JoDQI8Nrz1VdfhTPOOCPcdNNNcVAIdH7mDaLc8s0LfVZ5I+dT67///e9RYJFiUdUcEb172GGHhT59+sRPrdLqtL6vFPoM2z8JSEACpUGA9yuihInsvvnmm2OkVdp4T0JSUeuXD8xYpGrllVeOIov3L25IU10c3rfYP92keo9UGteHoygvAtnIqiSlyBpghXSe3/yNn5FW6fsHH3wQS2RQHuN///tfRSpxqp3VokWLcNxxx0WZhfwuta3gBBahstyAXHbZZXHCSO+46qqrYn6nNxildvk5HgkUPgFqYZ144olh+PDhUajvs88+MRqU/HM2RVbdzmE2VSKtwsIc3XfffeHKK6+MaRh8esWWLcK+1FJLxZuBo48+OmyzzTbxRoAttef7S93Oo2eTgAQkUG4EuK8hmoL/JyhTQKQ371fcpFJ/cYcddgi77LJLlFZEBiOqsnJqXnmZSjiv5DxOAvklMK//e6b6d/wfTODPc889F0aMGBH++9//xg/feU1ZZJFFwrbbbhs/iGdRKiK0qks3zu8oc996wQks6pUcddRR0TKutdZacXl7oPupQu4n3xYlIIG5E+BNghpKXbp0iSsV8gZwwQUXxAgeBdbc+eVzD964Sbv417/+FcaPHx9mzZpV8WlVOi83AGuuuWZcDKRDhw6xAGYSW1mBlc9+2rYEJCABCUhg0qRJ4bzzzgt33XVXTAfiZpIVb/v27Rvfn0j5IdIqe1M7rze40paABEqbQLYOHiMlzZBFH3AnQ4cOjbKc1xg+cOeDeO5b+J+4FF5TCkpgEQ53wAEHxLpXVN6//PLL45LmpQK7tJ9Gjk4CpUuAN4mHHnooUJfv888/jyt/3HHHHaFNmzYVgy6FN4RCnsFswVs+4KBuCKsLPvzww3F1prRyIFIrfdrMSrV777136NGjR/x0m0+jnKdCnmX7JgEJSKC0CKT3I2oynnXWWXGBKj5sIcKK9J4jjjgiFl7mvie7+V5VWteBo5FAXRDg9QaRRRmmwYMHhyeeeCLW0SILgZW2keWsYpjqwtZFn/JxjnoXWOmFHbgDBw4M55xzToy+orAuvy+zzDL5GLdtSkACEqgVAcTIySefHMU6n5B27do1pjpTTJXNfzZrhbPWOyMReb9AIFIzhGhdPvTIii3ekFNNq7/+9a9xvkgXJGqu2N+saw3MAyQgAQlIoN4J8N7FB/MnnHBCXGWQjQ9UiAred9994/8QliKo92myAxIoOQKkEuJSqLWHZyH74JBDDolZJCuttFJRj7cgBBY3IKy8wQv5O++8E8Np//Of/4QtttjCm46ivrzsvARKi8Bbb70Va2DxOsUnGKxQSK0KBVZ+55kbANItnnrqqZgu+PLLL8cPOrJ1PbgBQFRtsMEGsUh7p06d4gcg2RsDJWN+58nWJSABCUhgdgKUHujdu3esTZNWwOWmsl27djHDxA9XvGIkIIF8EEgrcz/44IPh1FNPjbWy+ACe/5GRWKxqWqz/F9e7wOLGhI2bEuDyYo4dHDRoUEWR3XxMqm1KQAISqC0BFpkYMGBAOP/88+MiE6QDEDXKP6ClUhixtkzyuT9MiXxD9+bgrAAAIABJREFUHLL6I5FXhEan9420cgv8+eCjc+fO4dhjj43pGG4SkIAEJCCB+iTADSPvSdxA8n61+eabh+uvvz7WZczWYqzPPnpuCUigdAnwfzQrF7JwBK9FlNxgESN+prg7qczFuNW7wAIaRcZ23nnnmK/ZsGHDCJn0DzcJSEAChUAgG+kzbty4WKvv3XffDauttloYO3bsbCkAhdDfUunDDz/8EMOfWYn2yy+/jJKwsijk06QNN9wwpnZSk4w6IsX6iVKpzJvjkIAEJFDOBHifImqYNHY+eGGlwfXXXz/ce++9sVC771HlfHU4dgnUPQE+DKYeFvcvU6dOjTVhKfZOHb7sh8F137N5O2NBCKxRo0aFbt26xdomu+22WxRYfjIxbxPqURKQQH4IJHHCm8Bxxx0XiyMuvvji4eqrrw4HH3yw/5DmEDvi6plnnglXXHFF/M6nR0lepdPwhksx/SOPPDLy51Mk/mY6Rg4nwqYkIAEJSKDWBPg/gZUGjz766MD7GRFXRF5ttdVW3t/UmqYHSEACuSBA6Q0WPzr33HPD999/Hz/0ZbXCddddN2Y2FNP/z/UusLgpAeSFF14YP6HgBZ7cTD+dyMWlahsSkEAuCaRIrJEjR4Y999wz/iPKpxm33HKLr1nzATpbiP3NN98MF110UXj00UfDN998U5EumJrnDZYoK1LNEYktW7ac7YbA9475mAgPlYAEJCCB+SYwadKksOOOO8Yl7flw5Z///Gf8oJ6IYTbfp+YbsQ1IQAK1JJAiQ1lQgrIc3MN06NAhLoq0xBJLFNXrUr0LLAwgS8jed999MQ3nueeem21p+lrOjbtLQAISyDuB999/P2y55ZYxl7xt27ZRtiy//PJ5P2+pnoBPfqgVMmzYsHDdddfF1QX5pCht6Z99lgGmhsgxxxwT08yXXnrpPyHxxqBUrxLHJQEJSKDwCcyaNSvWxmSVYt7bDj300PgzN4iV39MKfzT2UAISKDUCfFC83377xfqyFHK/9dZbYyknI7BqMdPcqABxzJgxYZNNNomrDzZt2rQWLbirBCQggbolwNK0RIo+9NBDYYUVVggPP/xwFO/F9OJft8SqPxuRtyNGjIgpmaNHj65IF4Rltlj7KqusEvr06RO6dOkSl/9NhfMrt6zAKpSZtR8SkIAEyo/AG2+8EVcr/vDDD+N7FasVb7zxxrOB8H2q/K4LRyyBQiFAWQ6k1fHHHx/rkO+1114VUViF0se59aPeI7BeffXVsMsuu8RUkQMPPDDWk6nqU/W5DcTHJSABCdQVAV7wSXPr169fLIRI5BCvY/5TWrMZQEwhrt57772Yj88HFxRpT8KKVhJLPh3izRV5tcYaa0TebhKQgAQkIIFCI8D/BhdffHFcop7t73//ezjppJMqFhdJZQj8X6HQZs7+SKC8CJBB0r179/DII4+EhRdeOGaSbLPNNhUF3Qv9NareBRbgdt999wjstNNOizeERjGU15PI0Uqg2AggWijQ2rVr11hcfMiQIbGQuItPVD+T6R93viOrHnjggXDJJZfEdMG0ZVd7ZJnfrbfeOqYL7rrrrlFcpVpZhf7GWmzXs/2VgAQkIIH5I8D7E1FXpOJ8/PHHoUWLFuHOO+8M7dq1+1PDvofNH2uPloAE5o8A9zHXXnttrCXLaxdBRPxOjdli2OpdYN1www2hZ8+e8eaEIoe9e/cuBm72UQISKHMCfFpBOhsrDJ1//vnxU1aki9ucCTz77LPhjDPOCC+//HJMF2RLS/jyM2+kTZo0Caeeemo4/PDD45tpKnyb9vWff68yCUhAAhIoFAK8b3FDeM8998QPs9INIR9u8f6V/XAmvY8VSt/thwQkUJ4EJk6cGKOuPvvss0CZjn//+9+xnFODBg0KHki9CyxWICTqarnllovpg507dy54aMXWwbT8fLrpq83NX3pTdnn6Ypv1wuxvKYXPk/7M6xUv/BRpHTBggOnPmcuOf+bTaw1LilMskpx7VjshZZy/ZTf2pUg7NRH5UINlfU0XLMznsb2SgAQkIIHZCfCed+yxx8Z6jkRj837HKsVuEpCABAqRwPTp0+MH8GRD8P82EVgHHXRQUWTC1bvA4sUecYX5Y0nH9u3bF+IcF12feCP99ttv46c+mFRuDOfFqLISGDebvBlzg0k9mlykeKZUoKIDa4fniQDX0XfffRevIXKtuR6LPd0OIbPvvvuGt99+O+yxxx4xjXCZZZaZJz6lehCSigi1G2+8Mb4xkl7Ba1NVn0ZvscUW4eyzzw5bbbVVXJG2NqK9VPk5LglIQAISKA4C/M+95557hhdeeCH+L0Axd4q4u0lAAhIoRAL8P/7UU0/FMh3UpWX11NNPP70oPjyud4GF6SNHvGXLlmHo0KExdK2YNy6GyZMnz1aMOI2HGzJCibl5J9WI3/N1k0aNGW4E6c/2228fLrzwwrD88svXGi1vxNT54Ua0efPmsW5Nw4YN59gORpdV2vjO+Bgrywcjv1IqUClF4tQaahke8Nxzz4UePXqEmTNnhnXWWScWPS/26BpqXBCBxQqq2267bUwdIPXN7f8nMG3atPDiiy/GIu1PPvlk+PHHH6P85rUkpQwiMXnt51Nq0gV5jUJwKri9iiQgAQlIoJgIkBbPexkf1FDblzqZ/O/rJgEJSKBQCbz77rtxESqySTp27BgjSOfFF9T1+OpdYPEiTyH3tddeO94Atm7dOm9SJ59w0w3X999/Hw455JC4LGXljZs26rmssMIKYfXVV48XDGkyKTIqlzLr888/j+eYNWtW6NChQ7j++uvDiiuuWGsEmNkdd9wxijAE1uuvvx4aN248Wztp7KxoQF0gpNf48eMDvzMmVpXkxr5t27ZxNTHmePHFF49t5iKaq9aD8oA6JzBq1Kj4wvjTTz+F9ddfP7z00ktFXy/qiy++iEtlI2m4th966KF5eo7V+WTk8YQpLZB/4K+66qr4oQQRnNmIqyTuibKihhhic6ONNoqvg4qrPE6OTUtAAhKQQN4IIKyOPPLIGHVMTd8TTjghfiDjJgEJSKBQCUyZMiV+GE992jXXXDMGqvC90Ld6F1isMsUNIFJj5MiRoVmzZkWZWpRu0LgQmHiiD6raspEHCCHe4HjDIzKpkAUW41t11VWrFFhIMtKoTjzxxPDKK6/EKJuq0oS4QUXe7b///jFEsVGjRvGGNaUnFvqTxf7NO4FSFFiIGQTW6NGjQ6tWrWIYbrmnCxB5OWLEiLiM+EcffRRfB/jKbrwObLzxxrGQ+1//+tf4CTWvAek1VKk9788zj5SABCQggbonwPvXFVdcEU4++eT4nvfwww+HnXbaKaf/19f9qDyjBCRQ6gRYTIkPkvnAmcyYZ555Jn6oXOhbvQssUgZJwSEqg0gsInWKuTYOUUekxCCwuBEjHx5pw8+8wU2dOjVMmDAhRiiRb8pjhOtRQye7VZViV5tVTCpHYF133XVV3lxnIx4qR0nQH27OqUvGG3JVAgt5ha3t06dP4Jy0Qe4/Eg8ORFoxZub4k08+ielD3MASiXXRRRfF2mc1qc01Jx48lm56q4vqSuPMfk8/J3GYfSzNRVVSsSpmlferzHJukSVze3xuLySV+5REaepXKqid7SdzwXMtCYY5iYP5iZajb8gdIrCQm6USgcVznE8tHn/88dC0adMYVcb3ctiY0/S84zuRdRS15x/44cOHV8iotF/al+d7t27dwhFHHBGf++l1MZfyvhz4O0YJSEACEigcAmRdnHnmmWHgwIGxTMjTTz8d2rRpY5ZB4UyRPZGABKogwP/nvHbxwTP/i999991h7733LnhW9S6w+CSetDRs32OPPRajcor5E3giEFIEFlFV1P4hvSilzWA6KWbdu3fvGKmAROCGnsilqkKNszeApCdyLFFqSB8EWHX1YqoSWKQQViVa+BtFtomYgD2iivaRG9Su4VOkbAohc8Qx/I3xHXjggWHSpEnxYucNm5o3pISm3H/GSN9JKaIWF8fRb2prUdi5OmHJ2DmWcTIeZFhKg6yJ8MlKpNTW+++/X9FOinrLCiz2o3YX5+NxWKQVGNOYK9cuSyKo8rOdgp6ffvppFIessln5umZcjJ39qJu28sorR/nHNQL/mtzU018k4gcffBBzljme8yThlBhkhQP9ZB/Oz3lSTSL+zn7UT2OjZlnla7K6PmXlH31hXIw7Mcboky5cSgKL64Qi7nzSCvexY8fG52Y5bGm+03P7rLPOisvv8jzPrj6Y9uN64w2xf//+MbWZ34v5db4c5tgxSkACEpBAzQgQkd2rV69Y94r/fYg6J7PETQISkEAhE+D/9CuvvDJGj3JfOGjQoHD00UcXcpdj3+pdYCGuuPHbcMMNYyQD9ZVqcuNeqGQrCyyiMpLASn3mYmF1kv+PvfuAt68o7/2/FBTRaCyIimgCKCaKGgsqcMEavHot2FABcwFjiRrUKLZYUdFEQRHbDTaUCxaamChG5IoFjcYGSBTUqFEMQiyoGPv/9Z5/nl+G7T5t/07Z+5zver3O67S1pnxn9qyZzzzPM3vvvXeLDwPKAEXAVw9TLPZZNTDr42Yp5o7FoTharJsEZz/ggAOGHXbY4Xc0GwVYQJGXaq+txSZriZNOOmn40pe+1OAYoKENxM0CppTv3ve+dyt6WWCJaSUd0MWR92JeuQCpF73oRc0KpRan6lqASvqszUAsMQKk8453vKPlNdrmgsn9wz/8QyvfhRde2CCPNFmsiRum3upfkKyet6B+xjOe0SYRgs37QAJD8mUFVpZxYI8YZNLR9+iqHzr2mCVgxe2xk3bnO9+5fZjvcpe7NPPKfuEtMLUA3lxHlcsC/ROf+EQ7mAAsUx4agJS0AjzALBYr6ufkTW0MQtGeBaJ7BAKdb/IDjB1//PHN+o1lGz3p/Id/+IfteZZB+pQ4DAakAw88cHjmM5/Z4B2t6A46uMRso4Uy84HWd+hBv9133314/OMf3w5XEIy/IFffXtoVxKG5k/lo4f90Z72nX/gbgKGe68UCS9trU7GvACwg3mdkPV7jgLE2FYzfKbJciEHwugr26pPcxB/3uMc1gFnugptj0bce9U2dokAUiAJRYHYVMG8yn2RtbgPX3LWf089uzVLyfu22kFdG1IoCs6iADWgHKVmbCvHzkpe8ZOqrseYAa5dddmnw5I53vGMb+C1w1hPAYlnFKmn0YuXC+sx3YOmMM85oL7uynuF2xx3nTW96UwMKjTZe6UqbYkZZALJucaIbaGRx2FsyzQWwypVHkGUmg6ze5DXqggamgCEABPgj7x5gKQ/4Am6ANMCLOmjPcVctaIEoptXqXcAFIOsBFJD0tKc9rYEdZtlVtt7yCWTjdulDVpZlZWXFl/fYY49t1kPKA7TJr8rQW4Vom1e/+tUNAAE8AExvtVSay8PxogcddNAVgo/TThuAiyzT5PfZz362WRr1FmDSAcMcVcpC7bDDDmtl7C1WSgPfgSP3gWK9dZOfnXSj7Vi/sdbqLcNor+08zxroxBNPbNDoSU960nD44Ydv+nxJ29/0IxBZ/fWJ3nqm6i4dIEzA7VGXLyfxaQPwqtqqh1xl0Ven9K0nCywDPYAFIhq3zjvvvHbQwXq8+vFBHwGtC9YCeX1fL7dUY8KTn/zkBmPpUn2nh1zrUavUKQpEgSgQBTaWAjYSxcQ0/zOnMveq9960K1EW+v0ctJ/HzVX+0bnpWlhVm4fZmFYWm6w2xlfq6uc5c+Uxy+vXldJto6RrLawvMhpg7MAIYFYuFqOMDMznbThbI077teYAS/BjMaFYubD+WKzr1LQKO2qBBcKwOOkXbSwVWFVxIzT4qjsLFovgcu0Ss4qFDEDitC4AACjh1sUi6VOf+lSDLQZLFk98VlkI1eA5nwVW+erroMoifRY2gBoLJ+3B4otVBUimjK4+BpY0wBwvaQtWdbGg9QKZa5Cvv/uQ93GX5FGXuklX/Vysy9Qd3PPBEjsMuGH1I18m2wBKWWJJV3ydt73tbZtc/4AlaaijMkiDSxuwJQ1/B5JMQG5729sOd7rTnRpU9H9Qlc4GJDoDNeBQXdqHpRSARXv9l4uU4NT6NmCnvEAmHVlA7bnnng0AGOBYkdmtUy4WW+CefPUDcATE1OZ1GRxZxrFWVCaWP9Krkx1Z9rEA0w8BPPBK2j3AklYPsJRZWXbbbbdWdxMAYMqApkwuYE5b77TTTpss0NTnBS94QQOANWB7Xj9SZlZi2hHY0cdqkrFeLLB8dkA9rsD6vc/LegVYPlfamHsoK0UWfGUROgpqwWX9Wlw8gFjbuwqI9mPhtI7jKVcUiAJRIApEgcUq4N1oU9V8cY899minqo8L27HY9FbzPu9wXgfmiy4eCv28fLQs5v/mvuYF5rTmjOasawFvrBvNNawJzN+thRYTV3cSffuNPJux5kC0MDcyz/Fl/rPch3JNUtY8s3oKVL+w1nOYmVjY1kzGgPJcWb3STJaTtRqvMMYMvGbM86f9WnOAxRXOwG/xbOFdC51pF26u8vUAyyB63HHHNfCkgxvsgRIL+iOOOKIBE1DkmGOOaR0H2PESsINjYez/3AW5xB1yyCGN5gIuBktWOCyCuIl5aXAbAxIqRtRcAEse4I30vYCk7yREllRcvuqDyB0KkLI4rxMFC2ABQtoMYPniF7/YXmDc4by053qB1SK3t6Ia1RAQeOELX9isfVxcL4888shNrnsVb+fkk09u1lLKD5QImqn+ZeHBAot1mLyALYCLC52XrHJ48QBRrLy0R1mloc8Cy4MQpTPY5ZRI7ocucK2P29UDLPnbeXvFK17RAFZd3CG5TbKmK4sp6b/yla9sAa2rXOoHvD3rWc9qdfMSdDLnPe5xj02Lf21CH3XQXgASs3XtqB6gkj4BfoJZ1Z7zASzl5kZIe9ZW1UYmBkg8oAmGccdk7efSJ8C9/fffv1m30Vke+hLLm9JU/xAYEPxSP9d6AVg+h/odVwH6fOUrX1mXAEtbg48+d9wFWUiWpV5/wqDxTv8HlbmwGhdGr1HYNavjfModBaJAFIgCUaAUME/iTWDzz3chGcCMWbjE82Shb+3hPW5uamN1rsvhTu4xBxIjV4gNc9C1uHh+mL+ah1oz2HwfF094OcpmvgOU2dw1P7Y+EEoB+AP9fNnAFZIDwJgVeLEc2iwmjX4duJj7Z+WesmDUL3gc6CM2bxkqrNXnYinaKT9POGt4c/0HP/jBLbTQtF9rDrBYdHBdYtWCXrrWguIvV0P1AEua4ER1YPUCaVgS+c5Cx0vDrk25DupIBx98cItv5H4vQr6pBsJ+VwEMYK3ExY/FjjxAGa6EnpsLYHlROQEQfHAf+OFFJC5TfykHiKUsgJvfwQ1/81JmWQZeeGkbtFnq2H3o227UEqugxlxas1JCfsEx9QE97na3uzWY1LuueWkCQmCK/GgADgE6rgJYnrvvfe87sGZjWdaXzYeUn6//1cmIXnwW4KN1QNGlqd2AVm6XtTjvAZb6A2CgT7lz1sAGJlnUq5v0veBANuXqL2DqEY94RIur5GUJKoFRntHeQKcJErglL9CodsoqL895npZour+zkNPXyhqmLLDkzbURfd95552v4K7pOcH86KS/sq4ycakDBADMU089tbXNve51r9Znwc3+M1yWZe7Vd9RjvQAsOmtTGtBE+6wXC6yKUaXdwdsXv/jFbYPB56a/6rOiHxsrwCvjwVrtxi7XOJ50okAUiAJRIAosVoEvf/nLzfKYVY55uHl7zbcWm8Za3WfBbd5pbms+aZ5nrjvXZU5s/m8u7r1vo3m13KVqU7bmKDZsbQRb8wBY5rLzWY/1daqDjBbSXZ7utUZhOCCPPmRGWZf7zpvBxjojAfdWzOCF8lAfX8tpPbaSsUZ7a7SF6lb/Hw1RstjnVuK+/qCrSZhDbd5WOr7zoAGwQE3WgNaUswKwrE2FcmLUgTvwCptEl5Voq7nSXHOAxd3K6XfrFWABGdUJCujUB5/1xhOe8IRmYeQycNGCHz2y7+XHuoP722hHKmsb5oosgvzOKom1kXTmAlg6KYswgzGrGa6M97///cd21AqIzrJL+r0LocWslwaYAmwVmJkPYFUnnEuPN7/5zQ3IyJfVkQDRvRVHARrpAGbgloHCC4JLnQHDIFIAyyL6ec97XnuJjLP8EtuLZRurKLslAKqX8GgdiqbT1H0sUVgOunzY7VSZtOjLXKt6F8Nqc7tDrNy0p/RZjSmnnaLRtmWxBM6xpnIP2OQekwt9A0jTFtqABV+BwR4Y0gVIA1fmA1j00r/cV/Cp3yXRDwFC5uXicZnYcFsEa/QbVkcVjB8sVM7ROAggCHgm7pdrvQAsOgFY+qk665Pixq2Hy2fiW9/6VoOSrK707/6qCZsxCoDX1+ze9G0/7S+/9dBOqUMUiAJRIAqsvQJcB4VzMF80N+J9YXNwFi5ltsloHr0YgMVNz+b3UgGWOZM551wnj8+nVT+/rTWUOQaAxQLLRv5iAVatJcatC0bLYD3CwuqDH/xgW68xUnCZ95r727Q0J+Y2xorFPND8ydze3Mh83j0LzYf6+i1070J9arFpLUWHufLs03DPXGUfXf9OUscCYJM8O1r+AlCL6QOjz1adqx9W3RiGCPGiL8wawOIpxGrMmtb621iwHDov1Fc35/8BWJuj3phnR10IWclY1BoEkXkxkUAALwAEf/vtt29B0i3+i/AbjIEhcMJLEWga/eDWzoHFJbctA6bB0s6IgXMugOVURKeCSY/FEijC8mYu6s9KSEwp9xuEywLLToQXGAss4APIYHnRX/0g6u9zEXsfEpCDJRjg5PenP/3pm2Bcpel5Ovo/nZk5qo/fvVyAFvcor3J7wXh5gECjl2fskFl4s0qrU/hGrcjqOfBGjCPgimk4M2FXD7AqcKe4Xf1FO3kAjD2MsltXg2c/UABk6mBSAVhpU+3t7wZHdRQM3gSJ9v0uUqUDcoFG3A0LYHE/rAlVb4EFrHF7LFjYt5v6GYjFswLo9BffDdTaH9gAMLUDK5y52hjYUyf9dL0BLO0C3IC46wFgaUNgGwxXpzpJs++jfvZ5N/7YrTG2mZQuduK0zMNukosCUSAKRIEosGYKgBc2o831HvjAB7YYMgFYV2wOG6vmptY2i7WSqhRApO985zttrmXuUZYtBbDMRRcLsMxrza+Fu6j4uXN1HPN36x1taiNa/uaw5tA8iLSxupjbslBnUMBivQCJk91e9apXLZiP56VvHg6IzXfNNc+uZ3g1mY/xrJmrftaf1onmbvJbSIe5ymN+KD9rEZZn4wL5VxgK6zaal1XaUgCJfgOyKKs0lvLsOABVfVG843GunnNpXPNhayJrL+sfa251tLZngTVrAIs+2gaQ9dkA4lmTTfu15gDLgk+sJwM/c7tZv0aDuKtTnUJYVgssa4AA1j92DQyGYk0BRHxmmeayfvDBYJZsgJkLALFa4h5mcAdhWNLMB7D4bbNccomXBTzIZ66LxZDYUD7MPcAykLAgE4ur3Bfl31vgzAWw+oGh7gGwABbQxd9Y64gFNRdYM/gYKPgcu8Tgkv8owALFvEDq6gc9LoqgipcO+GfR7uUxbmAUJB2k88ICvsYBLC9PfsMAz+hlUqM+XPKkz29fnKxxAIvmzLJrJ0+buljDcAt0aZO3vOUtzWLMi68mA1V2fwOvxMiaD2AZdLl9AX2j1m7y8dJgdaY/AnOnn356A54GNzBN/9V/wL25XoDyEMvLDp9+uh4BFq1YT84iwKrdJJ9BVoj6lfEJbK9xx3d9y6TI5FPbg7/GkHFWhLM+jqf8USAKRIEoEAUWq4BQG8IsmN+bGztlelZiIC2nBZY5sPiyLvNV1mjCm3BJsrAHAMAOLormuTwWejer3lLH3JwliA1QYTjMR12eF3tL+hbc5vgVA6t3Iay5jXmnUAjm0NZk1i/KYc5rXSM0B2t6YV1GvQhAM/NtYVOsR2wqA1TmeuPWJ8osrrE1jHm/+ZFN6PJQqP6kbNaL9DLnB4HMuaQpTIuymGfZIBx1QzSntslvDWPezYjBukMoFeWs2L5gj7WNNaV1qPkbGGcNY05uHSU/EM7/bfZbH47GLwW6zN+tA5TL4VLaxeatNSp91dP/3McdVR20lzUDmCu+mjmm+4A1eigX44BxFnnqKL/Sh9eHz5Z7rUW0F6ioXZ3K7n79gC5Vfs8K8O+y4a4vMh6x/tIXASh11wfFOnagV98X+7UgTdVFX7QWrPkxmKovqrP6ymfWAJa+qOz6tLGg94hb7Pi3FvcFYC2z6qMAC+BhwVILQN990HzgWb7ULg0Q5QPpQ841z6BgkBYE24Jx9NLhpMNKolyzPCemE5gxlwUWlzDwpU6wA864/sx12Tmol1HvQuh55WfpZEDxwrbzYDCtD/04awx/82zdUy8LdeFHz0pJel5sYM9cuzSgJyskOhkQkW+nOUqnLLDAHcHyZxVgia91v/vdr73c6AZkgXZeAre73e3aYOpF4H99jDAaiKVFSxYymwOwvIC9YLxIvCBNQgAslngs4FgK6qfAK8g37jJR8GIFWrX9egVYJiCj1nfLPLysSHL6h/b1WTchMnYUZO5f4D5nJh3GA7B2rhf9ihQyiUaBKBAFokAUmFIFeoAFPDiQZznjGa1ktZcTYPEMAAOscYQrMf/jqVGX+WnNWVnt22R1f79uKC8L4T/AFrFc+3hOnrdOsHkqBAYYow6jFljuMxc2t7HGKquZWnf4Xi6N5q/Pec5zGqwqixrzaht61jrmrrxWzMfNv+dyPZMnMMRLQZlcwI5ySq8seKzF1N3apcBczePrwCMQSHl4pvSbo/4vcL6yWSNJX17mbqVv6U0ncEooGDqqo7xHDQzcb0PSukF79PM780NuZea4ygTU2uysUytrPeq758SAYzxg3k93G92ustKvvIESazTpjV5AnPi7QqVow1pDl4WXNuL1Yn0qhpfzAAAgAElEQVQNGGqfJz/5yQ0u8qSRB2BpXeyiAQAGhJV1XK3Hpakv1aFY9bmtPklX8Yh530ijnq/Y1erFmwr8s06rEzFnIQZWtUUPsBgU0X1zrNxWcryqtAOwllnlUYDFwsmgWh++yg6E8EFjJePD4EPsw4f2gxR2EVhe+fALBthf1anABafrocz+Jg2QwIdpLoBlYDVYAEAotWd8wMftFBnsWImBbDp5D7D83lvVGNTsONkt8OGvD0VZnflu0OWSVDF1lNMAxq/c/+1SGDiRbrsz4FpvStu/4JykiL4rox0UZfEC6mNgFcACtPrylJbjLLDmsiJaCwusAlgGRPUyGHqZiUeF+tNH0L3eZLfq6UWjbxiEJgFYpZFBrQAW6zPB4QEsOwxghpeMlwXLOS/UcRM2psqgB8DpCsBa5kFnkckVlKrb/e5FywQfPAYlTUhqUlf3mSh4+fsc2X20G6idp/3ltkhZclsUiAJRIApEgc1SABRgweEdyrLEvHmcO9VmZbJCDy8nwLLIZ8kDOqg/wEIXX9YJrJ/AD1DLvPbmN795s/i2UV9zD5AAcLFGAiasT4AK811uatYvNvtZZZmfuEdaBbBqfuLv1lBAiLWCdJTDJr55DLdDawkWNeZDAJX1FEDlUg7zWlY36gH+ADzSGZ1PVdMUQOohiXs9X+shG7826W38WheBU6ABbwdzbjCURtqlNvTN0cChWktZK1lzFdizVrK2U7eKySoN8Eka3MM8K0aXOTgtaU4DnjlcYAvSAT9CzdQcz7oUnKlYx9LTbqCcTVvrXmsBc0gWaOoKeGkj7cO4wDpC+dUN3Ct3TBZbRx999BXWeqybWDLpF+qn30hDH5CG0DrWQ8punVwAkLUVCFWHJ+iLdOaRok+4F/RitKH9eU3QSPtrB/pbh6pbAUp9AEgVt1g60qCxPgLAVl9U9+qL0pqVGFi1ZvR5BfFoT2v6TvscPwBrmV8IcwGsUaskAxPAAAj4YPGn9ruO74Q9QADkMtAw0yz63g/wgkfbGQAIDCJMI8u1bS6AJU0DIZrsw+jDDCxYoBp0ajB0n3yZY0rL1QMsvwNN3M/skPgQGPCYcnKNq8G6wJ2B0WBjIOCqp55eFsBTuVgaTGjghWIgoIH0/Vw7Nspn4HMfE1aDCQsr9wJWZYFl92s9ASz1B66YTBv8/c7sGQw06FT/KusrLoH6Ed1XAmBpV20pH31F/yvXytpFco/JnPKCpKCXcgZgLfOgs8jk+h1MbQau2yEzYfPy6idcdYqgSRFw5fPGAm9WdpQXKUluiwJRIApEgSiw2QrwljD/NrdlgQV6bESAxQKroIG5O5gHKrBQKYADmFhbcP+yVnAYlYOLaq7PxatcsWjo/9YC0qj5JYjB++R973vfJksgUMHmf51cbo5j7gKWARbSMZ+peL3a6gtf+EILX2ItYq4MvGg7cZbACeUvt0QhS8CPfmG/1EU+ICI/83NzLkCNIYNN+woXY/Pa+ssJ5ObNvBy47TFmoJdyq0cZF1jr0MI8Wz3Vw7pQGg7G8rNnaMdzwr0gTVkQgUoMKMAcZbKu5AFT/XcUYIFR/q/M5oTSZt2mToBhzTW1J0ss6xauerQy99RHnvGMZzRYwmiAVRvda81gjWpNp9zagT68fBhdqBvjDRuvACdwVBdXSnUr0AdgiSld5TnooIOaprVmKsMAhh9gKG0ZbcivAJY21xet7dWVTr5Yq9V6HPyTrljMtJDurAAs2tHUWs3nyzpTn6z40ps9MK5gAgFYyyzuKMAyUDPvrEG3rB6AB18GMx8EA41O45IGSwcE1HMsXQwM7jMwo80+mAZ8H3B/838fwhoA5wJYBUL22WefTemDWAYCg7+dBekrjzSVpRa2PvQVxL06PRc+gya/ah9mZRQbhxWZxa+y+UB72UgPzABVDGxeaoceeuimQVI+dhQ87x7ucQYFVkc1INkBYE5r8HK/CYNnanehBnZ/Q+ENhKtpgUW3cW5kfQws2il/xcAqyFddsWJg9S6E/qe++pPJERiob/C99mKjFf0NPsxpQckyu9bmBmXupn0QdxMC/xsXA6vKMpcFFp29WPVTbe93u18s+uxiGOgBUnXxQlHegmkAFtfaWYkPMdcQQTtuv9rcNQsuhNoAAOZq7PCIgorq0lspmlSYnPj8sLzzeZ3k5KBlHl6TXBSIAlEgCkSBqVNgIwEsVirAzrhTCHuA1YedMEesOYSfrX9ALPNahyOBWeb51jQsuKxxzGlZg5hHAhm91ZOfzZHNgQti9C6Eysbyivugi6WPOQ8I0s9lpANe3Ote92rzZ2soc2jzbGUCX1jomBOxXmJ1U2uiudwI5+ucgJmySAswMX8Uv1eatUGoTH63/lF+c2kGAiyjWE3RDySktTIou5+tufoNZEYGLMZsVEoT6AJZymWvN6xgAAF20YB1Fuuw8qbpAZZ1FQBn3VDruwJdQCGrLOtGaVu7ve51r2vAsLRSDusK60ZeJOpp/cn4wUVr82pQiD42yrWj56rd/GztzP2Sln7W3uMAFoDpf+CM9ac+WUDLd+XSF2mtXAVB/Z3u4FXFIdYXhVHpPXVKb/Nq7SAe8CwCLHVlVFLtb1037VcA1jK3kA8uFysDhw8AKFUnM/iQsXSwmC9fbAOKDyfTx37wYpmF8rrPh9WgwVLJQhLEAajqqFYwyiBXRFiVeoDFH9mA7LSFAiGsLgxWXAqVU97c5HzI+QjLw6UuIJUPJDDDJJQ5Z13+bqBj0VWWQcrrJWCgsHMgD2bD6i8vLyJ14zpot6BPqwZcOwuIsAHMApr1l/8Z3Go3wYvEKY9epK4a9L38PG+QWQhguddLUKBDL4DRUwjrhUkbOti1kDZzXxdzWYBSu2sfbonKO3rVKYQGc5cg6E56GH0Bys+Okp0CVnrazsu7j3EF/DGvpme9lAA8WikjKKHuZWrtHgO7l0QFNwQwmEb7n3boTyHsy67c4hgwQzbJ0C9p4DkvBS8gaetv6qKcyqK99CF9yeV3fvDaFOAKwFrmgWeO5ApMaRtAk9UiU2ggtHZD3dP78gOMduDs9vk81G7m6pQ4uUSBKBAFokAUmC0FACybwebE5qSseJZqnbNWNV6qCyGAZWFvDQKkmGdby7gKYIEsgmbbTO7n+TVXB4cs+M2hbWaaK1rD+A4a+b+/F3DpwxbUZhtrHhu4FcQbwLLxb86ibDb/zbXNh5VLTNnRjbjyWgAwpKXNzGlt+HILBUi4/Nkktv4Aicx9zZmWamEnL2sE9ZOGOL76Sa2par1RYMV83mnl5vTm8w6rKi8bawTPmtNbTylv6VL9yO/aCsQx9waurCesnVw9wAKpWEEBa+XWad4uDfP7ciEE0KQJ5lT9a56pHzFAsL500ZMBgXYc1cpmNyMM81J9SV2kw+LJxjiYxGjCXNX3UXgpffnRoaznypIPCJVfb4Gl7Xnm0LqHqdLl/mgNaK3q/wwutDf9fZZBR/3beqdcK6vOtTbTZtrAOmuWXAirr/gsAVis4kA8a/1pvwKwlrGFdGgUFtAwKI+LTWQQNnD5bnAQG8jpBaOnTIA0OhALJR8uH47RAHhlNmqnwM+9214PsAySCLzO2XdWEMFC1aDcB1Z3j7IbVLxg6uQ7saZ8kEGp/lJvnd7C2IusrMLK4qbuVX7gB1EvN8PRQa12VZihuq8P3lewp8xuDY5eWL0lj4GDb7iBysDOfBWkqoG6n1AYZLkfAmMgoBdcDXyj3aIAlu/Srh2MAlh1Aoo0ewusGnQN0kxmKw4U2DcOYMnXIGl3QrlMAIr+1wtHWoLn08cgXy/rysvAKy868dn3vV5wwCIN6AtgufSB+QCWOgOQgKQXKKhZl0mCCYOXlJe8vKoc9YJnsqwfAaagG9DHJLsPErmMH8NVS0o9Z8ECy+eQe66xxmSgLPP6SU79bEfUJABkronerEzCV63hk1EUiAJRIApEgU4BAMvCz7zAotd8clauSQDWQhZY5h3AiXl6Wf73eticB/xAA/NSFjfmmOaG1hzmLOay5p5zHeZkvs+CyfzTXLgssMxdzDW5upmXWmuxXprrwCrzWBAEOHGBVtYzNl3VU9nMVwENm/x1LXVuBCLRg1WUyzzd5n/NhXtI4//qXl4O1oxiQlk7uQ+40cesc3ilWCuOXspnzm4zkh7WgtYvINzo5jkt9V/whl50rfjNyiFfXgbaiIvnuHWO9ZByMJhwOX3S/L9CUvTlE0rGuoTFD7hk4169ADbP+Nm6QRp9LGRplE7ajWePTX15MAQBxXqApS+pW/VFa+VRGKZ+1nQMEaxvWfTRQF+0DlZv0I+F2bi+XOnpYwCevjhLLoQ09XkFkK3ltTuAPO1XANYytpBOrOMaTNDMUSgkKxZUCC9rFh8Yg0AdQz9Kz33ogBGDFrNEA76/WVwaRAzGXgCeH71YFT3rWc9q9xvEAZECTzXoKh/aziQSJLOw9aLwwUXiBVgHwgTYMzgYRNRtFDwoN3BhcOYzXkER7Rr4u/t9MLgkSZNVx+gpDzUo+a7MBiZmvQZKg4dBzkCtbIAKs2E7EvVi63cCkHy+3MCWwb9AkbT7Fw5AyJrKwO4Da4DzzLiXkkHRy4z27isrK4ANSKIdQAgGlX99tQl95AFusVZzMb9Vj3EWWAZPdShrpQJN/UsTJKSPwV7fcC8ICp4yRzZ4GnzlKX8vHzCsLLDsSjEZ1j52VrwwxvUj/Vj9DGrqpSw06O+VNwstuzJ86autvOjtVgjsrx+x+qKDHRx9c65JyTJ+JFc0qVkAWHYzxcoTY89LugBj35d8Fh2IYBIIMFcAzEnM41dU8CQeBaJAFIgCUWAKFegBlkWzueWsXEsFWKyIbJyXKxtrmnEWWDaPbSKXy1U/t7a2sZlpnWA+CRKZV5u3CkFiTllBsuc6NMZ8xhzY3MWapw/ibo7Me8C6qWK0VpiW0XZRDwcemQu7zIe4G1qHiKHkf/KymWx+XcYESwVY5r/0sI5ygVcVFH5cX7HmYOBg45EGrNFYZBXAKgss6xNWY/0ap8rGa8JGq7k8jw7GDMDg6HrI7/QDsMzRzRsLYNGQNtZi1q424HuQV2vXWv+CdC5tw7JpnN7WJtZBAKZylRWVfAskWrP4HI0aTVR61rC8UUAz9R21wAKUKgYWwwYxeysWV6WhXfVBlm3WKda54A2rL+tIz+uLNGHsMW7jvSy6eqOIWQRYvLSs35S9jy02reNYANYKtkyZgfaLRT+PUvb5ilCB99zDncvv5dazUDrlp91bxPR5lQlkpW2AMzAXYOqBWrkbLWbArnTLesrLaTGnls2Vn5cIQGSXpl6EvbajZar/Vb3nK/tonpN2h6rzfCbFfXsZeGm9kJ7lq13lqjTq7/oDSy0agVP0WYxZ81Lq3fv7j3vp9S8CfdRLDAj0ouh3Xnpz5YXqPWk7rOZz0wqwlMvnxcSFyypLS3/TV2r88V3bAOGs9EzKTBbrszJfO6+mxskrCkSBKBAFosC0KzDLAAvsYXUEIthY5HpVEGFUd3MJHgAsTcwpWNGIc1qWKb0LoXt66/5+3ldhN3yXJ3ACYPHyYPXid2sRVk8W1uPmjFUWIMT6ZdQCC7CSjk1XljwFf0bTsglb8Xf9j1skKAdWAEM2X+Xl7yyzlHe++bs5cz/fMtequLDSEq/Y3wqq1KYhrWvNpxys0GwAMzRwz+mnn96MAFwssJTZnJ/bmji3NW/r68dAAcBSRzBJ/jb/x83x6GcTGpxigcVAwlUAS3m4F4rhC+j06xI/9wBLGQAs1lWjedFHe9DB5jhXT33PxWJM37OmUR6WWb33UD+Htca0GS6gvKsAlrWQ/Fl5Md6Qn813wdlHw8R4DsBSV26UABbjBsYSvrPAEw4FoOVS2td79LNBW+1A61kCWLU+8DkDFOkegLWIN47T9Vjt2PnnipQrCkSBKDALCkwTwCorSJM4ExAWV1xR7UqaENVJMTWx8aIyYTWBMmnM6YKz0ONSxigQBaJAFJhGBWYZYJkjgE3cy8wlhBsQz2fUKt//LM7FnBJ317wB6OF5UJvUBbBs0oIGLI4qzEcPVkAD8TZHARaIAM6w8qkDqsRprQOq+raXBwgiNIe0+yDu5kJc5wAQ6YAcQoa4bzS8i7jErMXAHv9n0cS9z3O9BRMQJvwGV7zRdKpcYAlLHYHB1cVlg5CVmGd41AA0Nnt54fCEAEt6bWpDnAbCmwCMwBHrJN9p3QMsbUWHAkV9Wqy25Mf6S1osy+YCWKBLASzWRIK5u0YBlnL1UKm3wBJLDORTBnNQ1lV19eVyarmwIqz/6FkAy+l3gBvtWF6pM0+OPnZZbaqzjHIv0NS7EBbA0hd5zLhfH+JuOA5ggTYAFi8F2vBI0ibKAKbyKvJZ0C98NsbFP/O5AK9YuMlvFgEWTykWWAFYi3zDBGAtUqjcFgWiwFQpME0AywuT+TOTcpNQO0a9u2BNHLzY73nPe7aJpd3I3n15PVjFTVUHSWGiQBSIAlFgQygwywBLA5k7sDZiEcMymwUOwNSH5wCFWEQBIuYYrLZZ0ghRUV4BkwAscEIoDO5pYBpLGVBGfixigBCwp4cYLHSE5AByxLly1QlyLKTMz4AUFuYAECMJYS5s3vXpyIOljs08QAzAcF+5E4rrBLSop7I5ZU/MJSFRav7UwyvQ4/DDD2/zMFAD9GKJJOi5S1nLLZG2LNTAp/4QL/cBCeAJACUfbqliDAMwnlNvedSpgMo4F8ACeWjgVECwr2JKjc751gpgAXwsr1zAJqspBw7RG9wC3ViFVXn1NdZe4CnrM21NIzqCTJMALH2nLLAALDGf9Qduh9UXuV76XOiLfQgUfQjk4lar3ZSHeyyjnFmI9VsWWAFYS3xVBWAtUbDcHgWiwFQoMC0Aixk1X31xFfjum9iNXiZsJm4mc3VoRE126t4ArKnoVilEFIgCUSAKzJgCsw6wWARZgLNYcgEurKfEaq3Dp8Sncmo6Kx3zH9AHgOkDW/cAq064XsgCqwdY0hX7iesZTcEKZVAWZQIqzHm407F4ATLKIqcHWOogzpY6VQwr4EE6TsoGgaTDEghwYoWjHOZRDrPpA6tznROX6zOf+UzTRjxYdWfdAwZJq+L2svLhYqcedANYgMGyZgNFxHVi8eYe2rFoA6vAKNAGHBR7FrxSN7G8WEQBfJ5RTu6MXDmXArDEugWw6tTDlQZY+lJvgdV/pHsLrB5gqR8rNRZrLOOUkYshWAUG0hokYgEIbIGENZcddSFcigXWKMDCJlxCtOy9995tbq1txBlmXcdKqdxC1VNf1J/KfTQWWCs/gCcG1sprnByiQBRYhwqsFcAqc20TIRNJJ76YEJmAmtjUZK4k57tvomVCYCI4eoz0OmyaVCkKRIEoEAWiwKopMOsAi1AsT4ARAdXNM0AcliggCcssFipc0SzcWZiw2qrDiEroSQGWWFXc48xfwCCueyxqWJa7QDAARwwiYWdAHpYvXL1Y7QAZvQuhZ9QBTAKbWD6BH2JGgRDmRYKSS8t9/sfFjotgnVRXYESZaGMD0AFIFWeXW6Ng3yxzaKOsyg66AFtAGIhXAe5LozpkC4CqEA+AiXAOLL4c0ATMKRcrN5AQQCsoJp3NAVhc85Rx2gCW+ikTfYE/9dbfXDQE8hxWxVqP+yArKJZZ2tGzywGwwD1tXacsKgvXUhZu+pD5s/7vNHZATbv7u76of/qdtVsA1soPvQFYK69xcogCUWAdKrBWAIuUJmtOX2Eibzeq34WqSYD77DgygWbuXibPFV9h3ARmHTZTqhQFokAUiAJRYEUVmHWAVZYj4IDA7GW1VKEI6oAXi3cuaS996UsH0GX00KDNBVgaqcrCslysTvCs5i01v1EO7mVOquPSx1pnFGBJxxcgxHJM7CYbf7UJWICKFRQrqac+9akNlPRgp+rtOystlj+smIAmsKp3JavA7aAeqy6WRf4/Gt9Kvg7aEfSbxZa0+sOSqnxiUMlPveqE9AJekwAsrp+slqYZYNWHlDWTIPVOGDS/7duMBuAqyzVwVbu5RgEWwMrVcjExsMoCqwCWvl3t1rurFvDs3Rn1xXvc4x6trzpVUj8JwFrR4bYlHoC18honhygQBdahAqsJsCq+hF05O5Osrpjzs7qqF3sBKb97GTs9hfm83cH+xJzRyds6bJpUKQpEgSgQBaLAqikw6wCLUAWJABWwh8scqyLzDgt71k9OwbMxxpJp9HRxcEhAbRbhfhZHilXTOBdCeYBgrJFAMK57ddpglUMarKsEOncqGpAFCLF8cTqfL+59QAVXL1YzgMeolbn5k2DxXPJYl5UlmXhX4n2JayWI97hA8T3AAk7AlAsvvHAQbNyJifKt2FlcC0EnG4ZA2LjT1wvA+c66yMl2XOYEEOc6KX4TqzfWWACYYOmjQefVR9wuMcDcD+KJaVpXD8xY6QNlIAyruXJVLHjXf0BYPSkHfQGyskISaB1I0xYswgDOiqNV/cZ32ohX9uEPf7jBH7FWgZz+oqH/0e/EE09s1kpcOqXZp+Ue6emD4mNdcMEFrQ760q1udavW9rvsskvrF8cff3x7Viy2vr/RBwSTlkDwXCiBr1HLM/1bnCttycKL5Zx5c39pY5BULDR93L36iz5Le+VhiaUvgpPaDcwaPQhh1QakJWSkL2qXxMBagmhuTQysJQqW26NAFJgKBVYTYFXwVEE8+dubUNREqAdXJmRiXJmk2LXrdwfrpR2ANRXdJ4WIAlEgCkSBdaLAegBY1RQ1R7CotXAHWip4eM0jxsXM7K2IPFsbZ/0m22hz1+K5IM3oPEX+5jEscoAGUAiEKIuk3qJ8HMAZhSfKBYRID2TqLaT6uVGfVm/V3kMWaVXcI0BPHQp4uW/UOq2eHa0j3czxpAV4gFK1aTlfbNKyjqt8x9W/r1MPzxaywK/n6rs8+udH9fF7X69es74ONOsPBqh0Rv/WWzhJCzDSbtqe1vpWla20Gi2rvHxVG/dz5r5f9GX1s/TGhdqovga62TyutirwWeUYbedpH+ICsCZsoQCsCYXLY1EgCqypAqsBsLwQ7fo4Feeoo45qxxnXC7afMJjM2UG042M3qCZ3o6bwaypYMo8CUSAKRIEosA4VWE8AqwdZ/aK/Yj/NB1Xq2YJZBT76+cpo+uNgTw+mRvMbBUo9yBmXT5/f6P8rrarbXF1z1A1wHKxZjC59+r1GBT18H4VXc4G1eqag0FxwsQcrfT5zQcgevI1Cmfn0XSjt/v8LpVP3qvt8fWiu9uph2+im7Xz1Bkx7j4XR9Ef7XrVX1ae32JuVYS4Aa8KWCsCaULg8FgWiwJoqsJIAS9p2PZ20w12QSbYduto1q8mW3UiBTwVo53/PBHiunaw1FSuZR4EoEAWiQBRYpwqsR4C1XE1VAGEuwDMOChTAGPfMXPfP98xy1WU0j4XqttR850pv1EpoFKj1+cwH0kZhzlLLt9r3z9fWiy3LKABcKmjs81mO8iy23Kt1XwDWhEoHYE0oXB6LAlFgTRVYKYDFTFqMBscon3rqqc1sviZNfYWZ9AvK+aIXvajFpgCzckWBKBAFokAUiAKrq0AA1tx6LzfkWd2Wnf7clgJoZg1gLZf6G7Xei9EvAGsxKo25JwBrQuHyWBSIAmuqACuohz3sYcPJJ5/cyuEoX+OZayk7PL3pukCjJ510UnMX/OpXv7rpZJqqqHT58wuO6mhop/Dww6/8xvntr6lIyTwKRIEoEAWiwDpXIABrnTdwqjfzCqxH66nlaBS6cJ0UkN6p5uLnCo4/7VdOIZz2Fkr5okAUmEoFDPoAFuBUAOsmN7lJOynn/PPPb6fRCO7oPtZRowE9vTDKagrEOvPMM9uxwCbCrLAqPkIPrwSwdHLPn/3Zn7XTUkYDn06lUClUFIgCUSAKRIF1rEAA1jpu3FQtCqxjBQKwJmzcWGBNKFweiwJRYE0VAJj23XffKwAs45ljdA855JB2zLAjhIEsxwQ7rtn/HUddF1DlGOXjjjtuOOGEE9pRz3UCipdKQSxH8u63334tv1vf+tYNjC3FymtNhUrmUSAKRIEoEAXWsQIBWOu4cVO1KLCOFQjAmrBxA7AmFC6PRYEosKYKzAWwnvjEJw5veMMbrhBMXbyq7bffvkGsnXfeedh1112HXXbZZTjjjDMavDL57Y8CBqecLOM45Tvf+c7DU57ylGGvvfZqxz4vdPzxmoqSzKNAFIgCUSAKbDAFArA2WIOnulFgnSgQgDVhQwZgTShcHosCUWBNFRgHsLbZZpthn332ae6Ac1lIiVMlbpVYVj/72c+au+BokFPPgl0HH3zw8OhHP3qQ7lxHJK+pCMk8CkSBKBAFosAGVyAAa4N3gFQ/CsyoAgFYEzZcANaEwuWxKBAF1lSBcQDrkksuGQ444IDhwgsvnBNgVSDJAlJ+7wGW2FYPfvCDh8c97nEtmCLY5cpJPmva3Mk8CkSBKBAFosBYBQKw0jGiQBSYRQUCsCZstQCsCYXLY1EgCqypAuMA1kc+8pEW/+qnP/3posrWW2kJyL7DDjsMb3zjG4e73vWuvxP0vRJM7KtFSZubokAUiAJRIAqsigIBWKsiczKJAlFgmRUIwJpQ0ACsCYXLY1EgCqypAqMAy8mDxxxzzHDUUUdtspZa6Njesqq66U1vOjzmMY9ppwuKlVVxrur/fUUDsNa02ZN5FIgCUSAKRIErKBCAlQ4RBaLALCoQgDVhqwVgTShcHosCUWBNFRgFWGefffbwspe9bPjABz4w/OpXv2oQajEA63rXu95w5JFHDg9/+MOHLbfcslle9ZBqFGIFYK1psyfzKBAFokAUiAIBWOkDUSAKzLwCAVgTNmEA1oTC5bEoEAXWVIECWCeffHIrx2mnnTYceOCBww9+8IN2ouBiL3GuTj311E2WVwBWrigQBaJAFIgCUWA2FIgF1my0U0oZBaLAFRUIwJqwRwRgTabrh5EAACAASURBVChcHosCUWBNFRi1wDriiCOGZz7zmZvgVR+cfb6CCth+wgknbLK+WtNKJfMoEAWiQBSIAlFgSQoEYC1JrtwcBaLAlCgQgDVhQwRgTShcHosCUWBNFegBFre+ffbZp1lhlcvfYgHWYYcdNjz3uc+d89TCNa1kMo8CUSAKRIEoEAXmVSAAKx0kCkSBWVQgAGvCVgvAmlC4PBYFosCaKjAKsK597WsPP/rRj64AsBYq4BZbbDGceeaZw1577bXQrfl/FIgCUSAKRIEoMIUKBGBNYaOkSFEgCiyoQADWghKNvyEAa0Lh8lgUiAJrqkABrFNOOaW5DYpd1VtfjRaugrr3f99pp52Gs846a7jxjW+8pnVJ5lEgCkSBKBAFosBkCgRgTaZbnooCUWBtFQjAmlD/AKwJhctjUSAKrKkCPcBSkG233Xa4+OKLW5lGTw4cB7cArf322284+uijh+tc5zprWpdkHgWiQBSIAlEgCkymQADWZLrlqSgQBdZWgQCsCfUPwJpQuDwWBaLAmipQAMsJgl4AZ5xxRvv+oQ99aPjwhz88XHDBBcPPfvaz4Ve/+tUmoAVaFeDiPnjUUUcNf/7nfz5c9apXXdO6JPMoEAWiQBSIAlFgMgUCsCbTLU9FgSiwtgoEYE2ofwDWhMLlsSgQBdZUgT4GFgsrwMp49otf/KJ9XXTRRcMXvvCF9nX++ecPX//614dvfetbw+WXX96A1rWuda3hpJNOGu55z3uuaT2SeRSIAlEgCkSBKDC5AgFYk2uXJ6NAFFg7BQKwJtS+ANYd73jH4fTTT58wlTwWBaJAFFg9BVhSAViPfvSj28mDfv/qV7867LjjjpsK4aVQFleXXHJJA1r/+q//Opx33nnDJz/5yQa5Xv/61w83v/nNV6/gySkKRIEoEAWiQBRYVgUCsJZVziQWBaLAKikQgDWh0AWwWDBstdVWE6aSx6JAFIgCq6cAMOXr5z//eXMR9PPXvva1YYcddpi3EF4Uv/71r9szANhVrnKVYcstt9wEulavBskpCkSBKBAFokAUWA4FArCWQ8WkEQWiwGorEIA1oeIFsCZ8PI9FgSgQBdZEgT6e1WIB1riC9pZaa1KRZBoFokAUiAJRIApMrEAA1sTS5cEoEAXWUIEArAnFL4BlAcgaIVcUiAJRYJoVMFbVKYNlSbU5AGua65qyRYEoEAWiQBSIAvMrEICVHhIFosAsKhCANWGrFcC6053uNJx11lkTppLHokAUiAIrr0BZXXH/c+2///7DKaecsmgXwpUvYXKIAlEgCkSBKBAFVlOBAKzVVDt5RYEosFwKBGBNqGROIZxQuDwWBaLAmikAYIFZj3zkI4d3vetdAVhr1hLJOApEgSgQBaLA2irgtOHb3/72zTr7gAMOGN7xjnesbYGSexSIAlFgEQoUwNpuu+2GSy+9dPiTP/mT4fOf//winlzbW6702/KFWaNyBGCtkfDJNgpEgc1W4KEPfehw0kknBWBttpJJIApEgSgQBaLAbCrQA6zdd999OOSQQ3I4y2w2ZUodBTaUAjbjhUN5whOeMPzwhz8MwFps6wdgLVap3BcFosC0KRCANW0tkvJEgSgQBaJAFFhdBQCs293udi3TipNZIQdWtyTJLQpEgSiweAVqvCp7plhgLVK7AKxFCpXbokAUmDoFArCmrklSoCgQBaJAFIgCq6pAAaz+kJcArFVtgmQWBaLAEhXoT1PfYostmiVWANYiRQzAWqRQuS0KRIGpUyAAa+qaJAWKAlEgCkSBKLCqCvQA6w53uMPw2Mc+dlXzT2ZRIApEgaUqwOpKTF/fn/nMZw4//vGPA7AWK2IA1mKVyn1RIApMmwIBWNPWIilPFIgCUSAKRIHVVaAHWPvtt99w3HHHrW4BklsUiAJRYAIFACyWVze96U2Hiy++OABrsRoGYC1WqdwXBaLAtCkQgDVtLZLyRIEoEAWiQBRYXQUWAlhrfF7W6oqR3KJAFJgZBbgR/vKXvxxucpObBGAtpdUCsJaiVu6NAlFgmhQIwJqm1khZokAUiAJRIAqsvgIBWKuveXKMAlFg8xUogLX99tsP3/ve92KBtVhJA7AWq1TuiwJRYNoUCMCathZJeaJAFIgCUSAKrK4CAVirq3dyiwJRYPMVqCDuLLACsJaoZwDWEgXL7VEgCkyNAgFYU9MUKUgUiAJRIApEgTVRYCGAtSaFSqZRIApEgUUoIAbWdtttN1xyySWxwFqEXu2WAKzFKpX7okAUmDYFArCmrUVSnigQBaJAFIgCq6tAANbq6p3cokAUWD4FAKwb3ehGw6WXXhqAtVhZA7AWq1TuiwJRYNoUCMCathZJeaJAFIgCUSAKrK4CAVirq3dyiwJRYPkUCMCaQMsArAlEyyNRIApMhQIBWFPRDClEFIgCUSAKRIE1UyAAa82kT8ZRIApspgIBWBMIGIA1gWh5JApEgalQIABrKpohhYgCUSAKRIEosGYKBGCtmfTJOApEgc1UIABrAgEDsCYQLY9EgSgwFQoEYE1FM6QQUSAKRIEoEAXWTIEArDWTPhlHgSiwmQoEYE0gYADWBKLlkSgQBaZCgQCsqWiGFCIKRIEoEAWiwJopEIC1ZtIn4ygQBTZTgQCsCQQMwJpAtDwSBaLAVCgQgDUVzZBCRIEoEAWiQBRYMwUCsNZM+mQcBaLAZioQgDWBgAFYE4iWR6JAFJgKBQKwpqIZUogoEAWiQBSIAmumQADWmkmfjKNAFNhMBQKwJhAwAGsC0fJIFIgCU6FAANZUNEMKEQWiQBSIAlFgzRQIwFoz6ZNxFIgCm6lAANYEAgZgTSDaPI/89re/Ha50pSstb6JJLQpEgbEKBGClY0SBKBAFokAU2NgKBGBt7PZP7aPALCsQgDVB6wVgTSDafz3y61//erjyla/cfitoBWD1v0+e+so/WbBtmqHbSpRt0jQnfa5a0vPf//73hw9/+MOt39zvfvcbrna1q618Q6/jHAKw1nHjpmpRIApEgSgQBRahQADWIkTKLVEgCkylAgFYEzRLANYEov3XI4DEb37zm+Hyyy9v311bbrnlcNWrXnXYYostNsGtyXNYuSfBtx60AXDTZDlGz4KBYI+ybS4cLACl7r5+/vOfDwYN6WszMGkuDaqt6/8FLpfSQvL6m7/5m+HII49s/ePZz3728Jd/+Zetz+SaTIEArMl0y1NRIApEgSgQBdaLAgFY66UlU48osPEUCMCaoM1XE2BtrgXLBNVbsUfAj/PPP3/44he/OHzyk58c/uM//qOBkO222264xS1uMdzxjnccdtlll3mhyIoVboGEf/aznw0f/OAHhx/+8IfDta51rWHvvfcernGNa0wNwPrP//zP4eyzzx7+7d/+bbjmNa853Ote92rf65oUtOl/wNVXvvKV4ayzzhr+5V/+peVx9atffdhpp52GPfbYY9htt91aXj2gAtNMjs4777wG0f7H//gfww477LBkQPnjH/94ePSjHz2cdNJJrSp0f+9739vg2Wpc6+nzV3oFYK1Gz0keUSAKRIEoEAWmV4EArOltm5QsCkSB+RUIwJqgh6wEwAIJWJhY+BcIKOsZ3xdjvVIWTf29cy3A+7RX2pJIub7+9a8Pb33rW4eTTz55+NrXvrbJiof8VZYdd9xx+NM//dPhaU972kDjKtek8GVc05a+8ux1XchS6eKLLx7uc5/7NChzs5vdbDj99NMH5Z0PcJQFUllDLdTVfBj1gcXW1/1lifS9731veNzjHtfgjnIpn3L2+vZ9q6yz5stL+YGxv/u7vxuOO+64VvdKw3fPXuc61xke8pCHDM997nMbiKw2++Uvfzk8//nPH175ylc2APaOd7xj2G+//drPylx6V/lG+2C5mrrv3e9+9/CiF72oPSc9fWTc50GeV7nKVX5H5qVAqKpX7946i66u8/W1AKyFPon5fxSIAlEgCkSB9a1AANb6bt/ULgqsZwV6gHXb2962rVGn/brSb/vV7xqUdrkB1uhivhbnBaQmBUwLLdx7mEPGcTCjhzBz3TPaBH2+QMQFF1wwPOEJT2gWPAAD651rX/vaDX5stdVWzRILgPnpT3/aynCrW91qOPbYY5s1VpVprrL1eS8Efnoo4t5RmOJvPeTp0x4HsFgUlTvdOEi12PYbbYfKt8oIai0Et+j3F3/xFw0Q/sEf/MHwj//4j8POO++8yU2zb7v56ll5V7ufdtppLV3112ba5qY3venwrW99q1lj/ehHP2ow6uCDDx7+9m//trVpWW2BTocffnhL8u1vf3sDWOqqPuP6Zt/XKo0CdFxOtRfrt/6SXg/V3F8Qqr67fzEAuMpE63qm71O9S+ZS+t0aDFHzZhmANW0tkvJEgSgQBaJAFFhdBQKwVlfv5BYFosDyKcBo4UY3ulFjCAFYi9R1OQEWt7pvf/vbDVAAOze4wQ0a5PnBD34wnHvuucN3vvOd5l5385vf/HcW71VcQa4vvfTS4Re/+MWw7bbbDte//vWb5cxnP/vZ9jtLnB6KWYj7P0soIAJE4g4m76233voKKlx22WXDV7/61fZ38OCGN7xhAxCjF7jQW1bpVO4Hr570pCcNZ555ZisDVzLWOn/8x388XO9612uuYMr/z//8z8PLX/7y4aMf/WgDEFzg3vzmNw83vvGNG8QaBRDyu+iii4YLL7ywxWUCk3ypy7gLAFEWgOP3f//3h+23374BEWX+13/91wZePE+7URDmw/GlL31peMpTntIIL4DDKqnKJq3f+73fu0IZwZCf/OQnLW3lvO51r9vS32abbcaCQq5y3/3ud1vdpaUt/Kx83/zmN5tO+gErp1ELO32FDiyezjjjjPaBPuaYYxrI0q+0mXx92LlvSvd2t7vdJje80foWUAXF1Pld73pXa8s3velNw//6X/+raQw2CqzO6os+rg996EPDXe9615anMh9xxBGtHC5ty4LNpW7anv76t7qLpUVX7fPlL395uOSSS5pLKTdN/ePf//3f27M09Dlxcev0vO9cGLWHi+b6tT5LA/n1MbPmgqE+Q/SWpvIBqL5LXxv6fMnb57+HzguB00UOK6t2WwDWqkmdjKJAFIgCUSAKTKUCAVhT2SyrVqhx89hRb5SFDCFWrbDJKAqMKBCANUGXWE6AJZ7Qwx72sAYgxBLiIgUEsGYBQCyaLe5ZvzzxiU8cHvOYx1whtpHis1YS3LoCXoMwhx56aAMirGA8B3r4EsPpne985/Da1762QQHwx98BgD/5kz8ZXvziFw9/9Ed/tAlkfeITnxge/vCHt/vAibe85S1XAGll/SIt8Yks9G9yk5sMH/jABxoMAjGAFR1NPeWrLqOucgZJz8rr85//fIM8oAdAUvDBPeoIzL3kJS9p36VLI1AFwHjyk588PPjBD94Uk6ngAmsh5VfeffbZZ/izP/uzBtbAirJuArFYivmfstfF9fGZz3xm067c1IAMdfB16qmnDrvvvnu7Xfrgi3bkdke3svTyzAMe8IDh6U9/egMrdK+Xg/IpNxj1oAc9qGn1whe+sMWekoZ8PL///vsPj3/84xvsKZDFPe95z3tea09aqHPFpPIz2CZt/UTe6ittWtU1DsLok7QSt0z91LMHcMoFRmpr0PWQQw4ZDjzwwAYKq0+7R9pAVLWj8stf/3aqoHxAVjqDZMpJH+6Q2vR1r3td65cudb3nPe/Z6k4b7XXOOecMd7vb3Zrm3E9Z+tHBPfKluT4I5o7CP21D86OOOqqlDaZpY3qrq8/Rne9859ZX6ADAKpdr1sBVtXUA1gSDfh6JAlEgCkSBKLCOFAjAWkeNuciq1JrtG9/4RjsgyZzXPPsZz3jG8PGPf7yF7HCPefYBBxzQNroX48GwyOxzWxRYNgUCsCaQcjkBFksVlimsTljYABMGERZSFROrXN9Ywdz73vdui22ApQYVVi7ggcYEgATzZoHisqgHsMAD7l4W+CeeeGKzoPG8ND0HJliQs1YBQ/73//7fDWKBNrvuuutgsHPv//t//6+Z6o1erKWcDqesINtrXvOagfUW8AE0iMsETuy5555zDoZgjhcqKxjpsBwCDJSzTsB79atfPbzhDW/YZJFTJxcacMuKDTwBVuRZl2DirI6kw2IKcAGv/F6ua+4FC8V0+j//5/+0+hcAqrpVrLJy6wTOAEeQwwWq/dVf/dXwmc98pkEUutOtwIjn6AfgaPeCOiy8xHYCofQB+QCQddofEKSOyn2Pe9yjacnSSnp+fs5zntMsodSlt5Dz///7f/9vA0r6hpeTvwFTfp7rND/psLwDvpSNdu973/tanv2uTQHQKluBpf/5P/9nC/beu78WrHvqU5/aAKQ+t9deezVXRJZl+sYpp5zSdGOhJ2i+tgJB//qv/7rp6/8+A/LxnH76uc99rn0eaFOWWjTQr13qqC+85z3vGW55y1te4XRG7QXqOVRA/1FG6dSz+gM4xnJN2srLmnBW4RU9ArAmGPTzSBSIAlEgCkSBdaRAANY6asxFVsUc11rButCmNIMCBhM27q0brRHN9XkfWGvaZB71zFlkVrktCqyoAgFYE8i7UgCrwANrFHGHWEQZbAAplk9gl8W4U9lYJ7EucRXAAhMAFYONZy3aH/nIR7YFuP8BU+CPhbrT4+TBNVEnYLUChIAWLKhYvQAs8gejPAuqsOiy4O+JPPc8pN6gx1VO/KVb3/rWzTJH/v7PcggUUr6FFv/KCiL0ecibK5tBF1TTBnQAyNwLUIFoQAMd5WvwrZhJBbDUXf60Yd11pzvdaZPGdKQx/exMsBSSFpAEkgAv9AFb6AP2KSOLNfmwvJLvRz7ykeYGCIT5neUPYAi+iAXl5QEIsfgBLZWnABa3PTBI2n/+53/eYI0dkH/6p38aXv/61zcYCKrYLQGt1J3lGpgDCn3sYx9rzx599NGtHauuXkb0P+yww1r6LIvUZ662oLf6sHDyktNuyuMZsKgs0KTlXuWomFNc7tSHtR145nrBC17QAF1BUpCO5RMgxLKpdnm0C9c9X6Ahd88jjzyy1dWzcwEs/ZQu4Ck3R+VTBv1d2ysjyEsjnxv360f68tve9rb2udKOgBhg636wlhUd0FmxtgKwJhgw80gUiAJRIApEgSgwVQoEYE1Vc6x4Ycx7heSwDnjjG9/Y1jc2h82NrVnMc3lQWFt9+tOfbussc2ghXRZat6144ZNBFBhRIABrgi6xUgBLUViIAEkW0RUY3KACMAEq3K0MOqxTWOKMAiz/A24sxAtwGbRAlfvf//4NJoE+wALA0Z94+Pd///dt4LKwN2CxWAECgAagB9yRp0V970omfhVQ46RB0AtkUA4uajVIAhjPetazNrnMLXUwFEScKxjLJkBIunYGevdCsY/Um9sjd0DQ74EPfGDLs6yIACzudWAXq6S63MMiCYijNwsg6RjUXWAOMAJkAYxiTXFzc5VFEkuhcuX0QgAZ+50LlkUACqs4FnasxOhCqwJYYBkQIy2AsdIHVFj+sKJi2aY9BGxnEVXlq1MIxYlyCiE42ddP3blnAoR3uMMdNsWSmusj4H7upuJggW7ajEUU3VjGAT7y0gZ9YHb3eZbbnp0d+gB3IGZ/SbMAFgCmX4Jsgs/3fvdlgTUfwJI/yMXVs+KgSQMc0+9Zg0mX+x9d6Emjfffdt7XF7W9/++bCqE7y8bnQXuCXe/QtFzfUWGBNMGjmkSgQBaJAFIgCUWBqFAjAmpqmWPGClKeJDdvHPvaxbZ1jvWOjuT8cyfxXfFuHLtlQ5xlx0kkntTWfNOJOuOJNlQwWqUAA1iKF6m9bKYBl4EC7xRFikdLDB4ONgYZ5p5+BEjDEM2WBZcEtjhYQxXKlLveDWqx2LPQNYGBQ72pmYGIlBJCAXQYr7lV8oz0PnrEYYt0DDN397nffROSVGeQoeOZEOuUCk1hNqQtgJO0CE0sBWGCIOoFkOqx4RGIiAXR9cHppH3/88a0sdhmYxCqre3qABf44XU9deo1YMrGaAsnAPa6BBYEALHCuANY//MM/XCE4Pu0M+GV6q7y3uc1tWvJ9XYEQ7nu+g5SC1vcASz6sj9QDTKnntYEg46AWiyjt4iUDprk8Nx/A6vvSUtoA8AQyQTcAk3WVC2STN9dJkNBLDuysugJEABZLNtdCAEsfAeRo3ENVzy4GYGkvcM6LuNcbnAK1WMwps74tOLx6sPAq6ytA9FGPelTLu2IEFIh72cte1k5TBP5YMwZgTTBo5pEoEAWiQBSIAlFgahQIwJqapliVgtjIZaRgHsyTwhqHF8golLLmssFu3m8T30a7dZeN5qWs3ValUslkwyoQgDVB068UwGI1xJqpAnyPFk2wavAFqDIIcSlj/QJgsXYy6IBU4FZZX0kDXPF3EIlFENDBpazconyv2D8ADNNR97GksmAHWIAoz4nlZFDjWsbSRQey8Pd/VksgF/c46QFYrJoMegKJP+IRj9g0UC52EJQOiMJ1DYwCSbg0yrMAXFlAqQcXOyCJVre61a0a1ChAVDGwwDuwZDSgt7qxEmMFxBUShKrYVnYiwBXpATcGfu1UeXMzY6kjlpK/qztgUtpqh7Ko0158zd3H5Y9LYllgsTRj6aWtQMQCWPIBUIA7Vk20FyuNq6hL+RYDsKpPFaRZbPcHz0A1/UO8Nr+Xqyd9X/GKVwzApTq7ACxup8q6EMDi/sgPn7WTuGcVN6u3bGPmPJ8FFouw97///WN99cFbccmkB1xqR30KdKO7vs5Nl9tr5SkvP/tibefzpm243gZgLbbX5L4oEAWiQBSIAlFgGhUIwFr7VjHHNF+uuf64U96Xo5QVhsU83boNlLK52xtLmPf2Qd55SHz7299uHhtiJwv9sdi123KUOWlEgfkUCMCaoH+sFMBi7SPuTgXn7otmkOOix7UP/Ljvfe/bYBFLqwJYBiixj1ge9a5rrJHEBgJtDD6gVw9WatFe+bkHKGL54jm/sxhineSFx/oKCADJgAxByQW4BpVANXAFrOkBBqgmflYPCMZJ37uO+X8BLEBI+eVpIHVCxriBngsekARIGGyVW/krBpZ6swQDY2qgrjIJKq7MgAd4BNbc5S532QSIeoAFbgFZNZiDOsCYAPR1uuBcXavqqJ1ZU3k5cHUTIwokUX46gjr9pX2BIjsjNObiCMq5lgqwJuj27SXLoskLDfhhVqwtDCLKU/Gplgqw1B3MY/nWn/64FIAlVpj26l+uBaFYV4mdJj16A4TcYrkUcscEWH2muKaOXp4BLcFX8c/iQjhJz8kzUSAKRIEoEAWiwDQpEIC19q1hfmmD3/xaGA1ufXMdrjRpaa11rAOdcG5tZJ5tvix0Rr+R38+fGUoIg9J7+ljjBWBN2gp5brkVCMCaQNGVAliAhmDd4gyNwiu/sy5iaWIgYmVk0AOayoXQAMjNEMAqSxjPWaSz0OIu5e+suApwlZVJn58Byn3iOAFFLgMgKxZghUkp9zUucqyhABXpiI3l1Lq6nzUS6AMMgQbibok/5ZprECw/7fK1NriCJnYLnEAIlIhVxA2vLHUKVPgOMoAN3B9ZhJ177rkNdC0EsMqFcrEACwhheitturP4Avu4GAJPrHn6nY3Rbqas2lu99CdWSIsFWKyR6OBFNA5gSU8g/XIvnKCLj32kbxvlZ9knGOSrXvWqpoOA6C996Uvbs70LoefA1vliYM0HsFj86WPypPvee+/9O6cQ+huoWH2iKiDvcQBLnDeTBf1FOwFyO+2009h6s5JTduAuAGu5elPSiQJRIApEgSgQBdZKgQCstVL+v/MVi1WcVmssazceIPOtHZZaYum6rE2EmDEndkq4DejRfEbXZUKcCGkjfMhBBx3U5tLLDdeWWp/cHwVKgQCsCfrCSgEsgwd3JYvkUTeqsh5hneMS54k1jvt6gCXWj0GwAlm7l2shkg7OsGByOiDXuLmC8dVpcgaqfkDjWijeEesVMbHACyam4BB3PQNxuYBJA7gCsIAsLosGP4BrLnilnNzAQCf3iAUFfLnAiao7NzqwZBys4NrHRJYllmdZbanHUgGW8spzPgsswKOCl7OAMtADRyy/fAdl+rqW5VXBORqVTzkrJNZ1LLBYiAGFfRyzgkJc8sAcgBHAKhdCMbC0CSuocQBrnGXbQjspII8XmJ0YeugzgGmVxfPADwsybecF5wACl7rpb2Jg9QCrgKlngdgK4k4r7rPlNtkDKP1cWuMAlh0hO1gAlrhkiwVYoKj2qpc4SzKTCFdZfpWFHvArXha3wwCsCQbMPBIFokAUiAJRIApMlQKrCbBG56BzCdF7hMw3Rx31HJlP2Nrkds9C894+ncWUpZ/Xz5d+zX3LQ6Oes26yLrIYZ33FMAFYGqfXuPLUxnKt50brV88wNmCEYA1oHeFU8VEvltFnrfUe+tCHtrAZPBZAsD48zVR15hRmwykQgDVBk68UwDLQAESColvIF+m2kP7GN77RAAFoYdARD6osWnqABXwAWKNkHcgRBB1oECsJBBLnqQZceQMIJ5xwQgtwLYA4INKDMBY3TqAz4BrMBLeWl/tZ3oBq/Qlwyi14t/hV4kuh/9wSuRxW+WrAFE9J/tLj9gfeAF4GT/Vl/cJyjKuiOETqycqpYIp7wJ9DDz201UE5gI86ya+CuM/lQjhqgSUeGSCizC6AiosgiAe2OAWSy2f/8nIKHmskfyuQ2LcDaAIeil2lvlwx1c/FBdEJj+rAgkz9+pNBCgoBQiywACxgsAAWV05xyQRcF+C9gjNW96azujv5T/m0PXg23yRCn+O6yTqMVSALO1Zt1WYGD3VhOeblCfJo3yorwMn8WH76q7btL4BMHCrwzmmGtB0FWO5XZwBLHr0FFs18BgpggZ+LBVgsxPTNci0ER/Xh/mRJ92h3kEzQS1cA1gQDZh6JAlEgCkSBKBAFpkqB1QBY5n82Qc1RhdjwZS3BQ8Ac2qY3j5ACMNYT5ODizwAAIABJREFUwmOYL9sw5WVgPdAf7mPOaH4qbZvn1mSumo/Ly5rB3NXP5sTyM4/lITFXnClzPvNSMW09ayPc5q15IY8L89MCUHXgz6c+9am2GWvuyWOl936pxpamtZvL2sJaRl6AkPUUAwO/87DhLSMt99kc7k+Tp4nNasHYrZMAJvWyaa6O/aZ3D6PM1Xnt2LAVc5dXQR9ruSDXKMCyZrCmOvLII9uawSneypgrCkyDAgFYE7TCSgIsgx8LHLCJBZIBxWDNjQoFN6AIrM5ipGIk9TGwwC8UfxRgFUk/66yzWpovfOELGzzhxuYSX0ugdwt14MwJcmh9f+oE+MUVDBSSPnjC5ZE/NWulgiklqbL+6Ec/agPgscce2wZoZRYLizWPwRZoqsFdnn52gR3ARQENL0BxtIAh5eBC6ERGp88V4GL9U/kAI8pqsPaiYYHF31sZwAqQa74YWMoJYHEzcykXoCcoPTdIrpryqA+Ql4wXMx9zeekjgAgLIy8i1juAE2DixSoNge9ZqLkKYAF0XjTqOQqwvGS86MYBLNZuAjICX9rGd0DMM2I7KZ/8QTZloS2ANt/lpczSjQUSDYEc5d9xxx0btFRmbSZdfead73xnq7+LtoCX43ppxNpJ/1JvLqjqpk8WwJKmvjQfwNLOLMzKhVD++rpJAIgGDtYLuL6rP5NscM/PnmeZp7wmAurE6pFmYry5T1n0NxMEL279oCZH2jNB3CcYNPNIFIgCUSAKRIEoMDUKrAbAsgYATsxdzZHLEsl8ztxYqBIbpebq5mXmskJr1FzWWsWao8CQeRuLJfNF82zxbIEec3trAxuaNk7N6/ytNm/N8VjZWzeAYuPc9IAdcz5zSZvMZbmlrOKs2qQFqcq4oIwObGib2wolAiSNXspahwfZCLdOUVZrPc8WeDNvLq8OoMjc2+aui442qK0NvvjFL26akyojAGh9IowJKNgDOmkCcdZM2tv6kYfIuGucdZq1JsMF+ttItg5bihXb1HT2FGTdKRCANUGTrhTAApMs7u0sADOouoFNnB47AgZNllEsR1gx1SAyCrAsyketawxidhS8KAx+gMQtb3nLlof/XXjhhe3lYlA3wHrZ+J+rhwFgGquXii2lfGAb89TRoOMlrQDZLJMAJdBC2UAVOy8Alh0SsMCAbpCUnkHSwN3nzQ8b2GKp4156gQ0Ga5rJh0bqJV4WOFLPlwuhMgF3Xnp93fwsVhggI4g7wMKih7WXy8uMFRGo50PjZauNvDi88FiD0dELBvTxwpCGOGGgjJeyl4eXr797ITvx0M/KCMZ4MXoOwALIRndTpM/qrXchrBhY/udlxwpOXqBivchAK+6JTIb1HffKw/3zWWF5+QusrqxezJ5jgSVdEEx/0SY08OKkXfWB6rcgGism7epZ3+kvTXprI/1SW48DWNIB26StbU2ETCT031GAVUH+Rz/SAFZZ4rnHREI/Vz9tDMoBh3732VYW/QvU1V52uFjGsV6LBdYEA2YeiQJRIApEgSgQBaZKgZUEWOZT5vbmqzY3WQ+Z77Lkqc1tc0CXeRVgZW7pf+L92mi02WutYMMZ0JEm+MNKyXzQOqVO/DYvt8Y4/PDDm4WSuaa85GkOKi/3mIe6Rxwoawfzb/M9efBMsRYxP/QswGY+bf5nDVAb0+awZRFmPgmWma/z9LCuGb3Mo9XRxqh62bxWFvNSFlg2i6UnX3N389473vGObS1inaEMNoA9B2RZJ1pXgGbWDDxcpGeD1XzZZn3BN2mZY4NQF1xwQVtDWcvUNZebZEE1FmY28q0VnMYNoAVgTdXHeMMWJgBrgqZfKYDFXY11EtjDEsqAWfGoDMYsZuwsgCK9qxTLI+BCYwJJBpk+0F7vew1AseBhiWVQ9ELwfwM5+AAOsPYyiPYxsmqQUyaAhqVXDZAAGvfGMq0d54PNYgd84Ht90UUXtUG4ggvKm6mwgdqArvzAVp9O7aSwhFJ+oEgaVX71ZWUE1Nix8ZLqdyH6GFgssASUH40B5iUAlDjJsQBWxcBSfxCRlROLHCbQZcHl5MgCXV6EfvfS9jLz0na5Vxm93J70pCc1t0q/lxmyFzaABaQAeKMuhLWLBGDZBaEX973e6k35pQvSKJ/+4ALr1FnZwTaXnSQ/zxUHrT4Wyg0sedZkRzvWkb/aSJ8Bxsq6qvqJ757VN7kSekF7ebuU0cRDGb0YgageYNWLs8rghWxHTnvaDSqApS+zwLLjZjLCCnCcaXhZYCkPCyy7cH29WXDZBVS/+szJu4Lxay/WdMCv3atYYE0waOaRKBAFokAUiAJRYGoUWEmAZf5pw5RVu3nxrrvu2tYv5lB+twFqnmwT0b3uE/bDvNIc0BrDXNc8n2W/uaQ5Lmt7IIYVlnhRFQrFfJB1vvWFzXeeH2AN2GPjHAyyPrLuYQAgHAWXQnNrG/hOdlcm0Mqmps1qc0CbmNYt5uTmh1wWeRfYtFZO81FzQjBJGcqrpW9kAAtcUk/ltxYyh/e89USFEvHdeqoO2aKTuap5L8OEAnB0NOe1hrCJTCf1MccWhubNb35zq0fNpeVvXQHOgX+1DlDGuQBWld/ahDeQ+TMIBvQFYE3NR3hDFyQAa4LmX0mAZWAzKIkHZVBl9WEw9mUQucENbrBpUKpBxH0W4cACixy+2uPAREEgA7hFPyDDasmiHzyy+8F6qeJY9YNUT/MN0ixyDHzKamfBLsmo+1YvrcHPFwAF7Bh0vZiU07O+WJf57urz9lxBNnXwEpG/8ttpAYkAEFZRXi4G7hqYSwcAhdmsdJj49tZZVU4fBpCCnnYb3EPvHuZ4gXrpF5CRHrAI+BVU9DcvUTrR1w6JMslX+ZRVuXypD/1pYRdH3dwHZvbWUQWw1Bvw8bsXYb28C6YpnzooH0CkLCCRPguOnXbaaZtOIdGnFvMikobdK31GGr70EeXUb9SpN8euF6K0aWr3Rzspm//pnyYQ6m73STm9zNWngsT3fUed9Rl62YXTztKmmbgC+pR2MjEa7fdlXejz5DKJqEmL32uCoD+CnCYr2ouuIChAqA1ZrNFdnwjAmmDQzCNRIApEgSgQBaLA1CiwkgALDLKhbG5lvgf6WGNUWBJzL3M41vvgi7kkIOUZ8ztW/tzibDabP9vENKcGZ4Al8ZjqMCrzZnO0973vfU1b3gVgUB+T1zoBILNB72cb3bwTzEP9DFK5bLja4AWRak5v45ZXiM1hoAocExZjFGCZ685lgVUAy0a1+kq/ABZA52dp2kBnsFBrLtZfQJyT3x0cRaNav9QGuDWdMtHGRr4NfjCvLs+yVLMuYSQBeNW1kAWWuTtrMNZ02sacfTHrhqnp5CnIulUgAGuCpl1JgMVCpCCOAd7gasBfyFKmH4zGDS49VCi442/ycH+dOFjEfiEqPyrbaPrzyVr3FlCbK6DiYtJQfldffr/PN8COWvhM0AV+55G50gRQlFEdx9Wzf25U8/73qlNZ5C1Ux7nqVNZTk2he/WYx7TZa9rnKM063ufrvUl+aC7WzeoBnPlv0MGkwIFb9QDn/cxIjSy/A1C4Y8+vFfh6Xo28tdxomdkA5PU0yK8bCcueT9KJAFIgCUSAKRIHpVGAlARbLovvd736t4qyruOfVvLM2ZM3RuMWxcjeHZxlU8Uo9J74qMAWigFaglvmZ+1j+m7NJw/9tbvoOhNlk5GI3OmcEcGw426hkOQWCSY/1Fa8X3i3cEBkLSLef54FE8nfZaGXZNQnAAoEArCq7GFilE4AlfEgP3myoC/oub/NP8AnQ6+umHKAViAUK8tTgNVH38E7g2aLetKtA8TWnr9456vVS8YV5opj/KgfPj9ET6qezd6dU612BAKwJWni1ANYERZv3kYUW9DWY1SA2CZRaKmRY7jquVXqL0XapZVsIAk2z1guVfT4tVqNeymcywxQbFGTx5vRH0KogYe2A2fES+NMun/vtxM3yFYA1y62XskeBKBAFokAU2HwFVhJgcbnjiucChljeAzPlUVHfWfQ7ddAlPAi3wgIkLJ+ALzFtzb8AFa5zNhGdDlgXFzkQiscKcMXayVzOPK/mogWjgDXeAFwaAayKVSvmqfASrLfKs2EhhaWtPLwnpLOQBRYXPxZYLMUKUrFoKoDFSopu5X0BrolBBXrZCOe2SMdxl/ksTwM6CenC5bLm0sKasOISU4wlm6/RdZ40xwEs8YV5IvDCUHbArSzTFtIn/48CK6lAANYE6q4UwEK5kfmywJqgaJsNsJY7z6Q3uQILQaDVAD2Tln6hsq81wJK/iROYY4Jg107sOabZdWQz6yy7TgcffHA7OIBp+Fvf+tY2mRh92U+q01o8F4C1FqonzygQBaJAFIgC06PASgIs8WTBJxfwNM5qveLmusec8XGPe1xz5asYUP7OAkngc9biwA7LImmXNRfIIzwISy3hJNxTJ/n1AKtUr9Ad3BqdKi78h3AYoJYYT+Z43PDGXeM2qrnqVRD3PgZWbwBg/giqAVjmj4sFWKCVNaG61QmFtbHal6//m5/FBxM4v8oLbImB5UAw7pHigS0EsKr84o0JE+KqA7ACsKbnM7yRSxKANUHrB2BNIFoeWbICC0GgAKwlS3qFB0wOBHgXrNMkiFm4iZJYXMzDxZUTt0FMLBMiJusCyvvfNGu/kCoBWAsplP9HgSgQBaJAFFjfCqwkwHJancNxgBdxcsXn7YFVQRffzcVYXbGEF4S8LLD8nUuduFQsgMzTWE6BOjYUK406yEecJjFOARwgq59D10FKdXiUTUtWSe5jISZWlxMFWWCNcz8sGFYgruAQIMVlkQUWSzBxvkbDgXBP5LKoPku1wAK/6KfuNlgZOlQokMqHXtKu351CKOyFy72sqGgizutDHvKQBu4WAlgVV1fZnSbOoo1FnRhiszz/Xd+f6I1VuwCsCdp7JQGWGFh94PAJijfnIyvh5rac5UtaV1QgAGvle4Rg92IC2HVz1LIXswlKxVZTArEXxB5w0qdJzyzHv6pdtMTAWvm+lRyiQBSIAlEgCkyrAisJsLitca9jdeSUasHDC0z1FjxiO1UsXpZXBZ7c89nPfnbYf//9G4DhMiigufkXCyyWRKzlXWI7iYHFWsj6jEsiwDU6V+OSaNELznDhkx9Le6d0c43beeed26Yl2DYKacAxEM3f5Vtuhsrxxje+sQEe8bOAov4yj/d3G6CuCuK+GBdC9zs5ULB67pGC2ttEBcvqqnUCHQvOSbvcEJXXKYz77LNPi+cqvpeTxevApFHYVulWWlwa1VHwenNlsbQCsKb1E72xymXc8Dn32WBRaTyb9utKv11oZb/CNVhOgMVFSQBDZrIGTW5M6P9KXAFYK6HqyqW5UDef5pfIQmWfT7XVrFftZBn4TAzsUDmhxkTHBOUP/uAPWjwBu4J1es7KtfjqpBwLrNXROblEgSgQBaJAFJhWBVYSYInJ5GRoaxuxm1g2iaXUQyVgSswr7oFCp/jZiXcui1Nro2OOOaYtTgUvd2rgV77ylQaL3v/+9zfLIPNFcZ+Eejj++OPbs55hgdQf7iQIuximrKRc5nXukY+YUOJs+dmJhE996lObpX1dnmV9dMIJJ7Q0WSFxd1QXMVJZ8SuD0wTF5wJ7XObBoJf/2yT1LIDFUKGCuHM/FL/LveZmdKpTvdXN4vzhD394CzLP1RFgGz1F3T3qxlpLuuqwxx57bIpVBdr9xV/8RTul0LxW/lwa6+rdHfu+6jm6OgmSq6UyOJ07VxSYBgUCsCZoheUEWCi3wbFMaA2as27hMYGkeSQKrLkCXtZOcBFHwWTEhMrL3udxNaHaSgsxF8AK4F5p5ZN+FIgCUSAKRIHpUGAlAZY1jRMGH/vYx7b5FCsiFkTACssnAc9tGrLUspEIKB199NENwFgXAT4st8zHuCOy/DnttNOaRRarLtAHqNpuu+0a/AG2uMdJ1xqNxZOQECw0hIE49thjW8gIzwqELg6V+1xiQ7EW40bohL/HPOYxzSqLOyL3RKf4AVOstRgacMHzLCDl5EOuh1/60peaVZP5FYv9G93oRs1yDPTi8lgnXnMlZAFfAAu8YxVl/snaX73VyVrQCdFglsDzIBYd/+iP/qid1AiEyUMbgmjSlEYFuTd/rXkrPZ1SSLtyBXzFK16x6cCi6o39PNczyi8u2DnnnDPsvvvuDWCtp7nwdHwKU4pJFTBu8FgDcLkB+yxMe/9cVxZYowTc79PeAJN2tjwXBaZZgbl2oaa5zJOULQBrEtXyTBSIAlEgCkSB9aNAASw1AjdY9yznxfro0EMPHU488cQGori+sU6yxmHpzi1PfFEw5jWvec1ws5vdrEGVL3/5y82aycmATujjxgbWCLT+rGc9q4EoAOjlL395A1UFvUAcQd6dtgfU8GaRPpgmRIQF70477TQcccQRLSYVAGXeJ09QiuWSPFnb27zkisfAgAueZ7kYisl197vfvclkc9OzXATlayGtbkCU/NURuALRwDH/A7voUS6ENADvPvCBD2xyTwT4AD8ueze96U1bOqy+6KAe/i8P9VY+aSgLOMiLh8Vav5ZUR6BM/CxhM/yfyySrqtEA8NX+6iUQvDhm6k93QfljYLGcn5CktTkKjAKsL37xi5uT3Ko8uy4BVg+yArBWpR8lkyiwIRUIwNqQzZ5KR4EoEAWiQBTYpACAJeA3wMGdDohZ7ks4BhZIb3rTm1pMK1buFQMLEAKqWFftuOOO7e+AT0EqFlAsp1j/AFGgCksnz4gNBQyxLPJ/l/+fffbZLSYVayExs/xN/VhqcDk88MADm2sjeFWQpzYvxYYCqM4666z2LIsm+bKGYs2lnFzv6tnSCqjj0viGN7yh1VGdPceSCrASn4tVl/QEfefCB2Cpr/KxAOPG+PGPf7ydjg24cRN8+9vf3sJYVKB7lljgnXKWjhbxXAuFuWCZdctb3vJ3gsirH/j3tKc9rbkRqo+0H/CAB/xOYH11cj9opczvfe97G8xjTUe3rE+X+xOS9CZVoAdYiYG1SBWX04VwkVnmtigQBaLAsigQgLUsMiaRKBAFokAUiAIzq8BqACziADfi/YIz3PkAHnCKmxsLI5ZEBUbAG5AKyGKtBXKVu520LFq5CwIy4A83O9ZZfdxVFklicIFQLJZYYgFY1m4sl8rqaBTGSE9AeM9Jg9UUCOV5IIl74biQEmXFxfJLHT0n0Duw5AvMYlXGBRAM4gbob1Vm31lvKTNt/A4yOdFQ3etSdzq6t7SkH0sqdaug9qOB2f3u62Mf+1iztNMGgs1zPaRHXf3JhKeffvqw3377tRheQBd3TfVX7lxRYBoUyCmEE7RCANYEouWRKBAFpkKBAKypaIYUIgpEgSgQBaLAminA5YYFFnDDAotVjmu5rWyk38MRv5f73rjK97GbRssy6vImLVBpNATEXAcJ9eUYTbtAzyjQGS3jXM+VZZn7q859fqXtaJn9vS+vn0dBWZWt/ldpVezShQ5OUg7QT2B87Ux/bpMst/r6+BkgA68EmAfvuC66b9TybM06bjKOAv8FxgFmsFlsus997nNTr8u6diGcevVTwCgQBWZagQCsmW6+FD4KRIEoEAWiwGYrIDi3U/9YPbHMcQLeSh1aM2oVVNBmPlg218EyKxmvdFw5FxJ60gNwxj03V/4FvQqMzZXnKDAbLTsXy0c84hHNksuJgtocxKzYVhVv62Uve1mDagLvi311jWtcY9nB5kK65v9RYD4FLr/88mYZCWDd4Q53GP75n/956gULwJr6JkoBo0AUmFYFArCmtWVSrigQBaJAFIgCq6PAueeeO+y6667tZD4Aywl4s2BlMykwWoyqkwCsxaS71HtG67iQhdVC6ZflGrcr7oHam5sm90CnPHJ1BDJZXbHGEwNr7733bm6GN7nJTRZKPv+PAqumQH0W9F8uxA4mALA+/elPr1oZJs0oAGtS5fJcFIgCG16BAKwN3wUiQBSIAlEgCmxwBQAsp92xuuEyxhpnFgDWRmy23lWwd6NcLMzrLbPE2QIrwSonLgrWLrg818HnP//5LUaWeFdPecpThl122SUnD27EDjcDdQawhHTSb1mSBmAtotESA2sRIuWWKBAFplKBAKypbJYUKgpEgSgQBaLAqilw3nnnDbvttluzxNl3331bbKSrXvWqq5Z/Mlq8AnO5TQrs7otllbYDpMZZa/UAy/8FlOeC5RIo/upXv3pLx+mGLsHaBdEv18Lljou2+JrnzigwXgEx3fAYFlhO+nRIwbRfscCa9hZK+aJAFJhaBQKwprZpUrAoEAWiQBSIAquigNP+ACwLwYc85CENYAEZuaZPgXGWVuJhgVB1IuO1rnWtdnphYNP0tV9KtPwKiH11i1vcogGsPffcc/joRz+6/Jksc4oBWMssaJKLAlFg4ygwF8DaOAqkplEgCkSBKBAFNrYCANbuu+8+XHbZZS0W0jvf+c5h66233tiiTGntRwGWuGU/+clP2tdvfv2b4UpXvlKzltr2+tsOW11tqymtRYoVBZZPgYsuuqi5uIrXttdeew1nnXXW8iW+QikFYK2QsEk2CkSB9a9AANb6b+PUMApEgSgQBaLAfAr8y7/8y3C3u91tuOSSS4Z73/vew7vf/e7mNpZr+hUAsC76zkXDMFypFXaLK1+5uQBe81rXGq5z3WsnbtX0N2FKuJkKfPWrX22HUPzwhz9s49cHPvCBqbc+DMDazEbP41EgCmxcBQKwNm7bp+ZRIApEgSgQBShwwQUXtIXfN7/5zeHud7/78K53vWvYZpttIs4MKMAi67LLfjL84PvfbzGvmoXWla88bH21qw3X2+Z6w1WusuUM1CJFjAKTK3DOOec0yytx26xrjF8Vs23yVFf2yQCsldU3qUeBKLCOFQjAWseNm6pFgSgQBaJAFFiEAl/72tea6yBLrD322KNZYN3oRjdaxJO5ZS0VKHdCFleXfO/S4aeXXz5sucUWw9ZX37qdHhh4tZatk7xXQwGfAacO7r333s0F+lGPetRw7LHHxgJrIfFzCuFCCuX/USAKTKsCAVjT2jIpVxSIAlEgCkSB1VHgW9/6Vjt90ELw9re/fQNYO+yww9QvAldHndnI5fKfCuJ+2SCA+1ZbXW248hZXno2Cp5RRYDMUALDOOOOM4UEPelA7RfUv//Ivh6OOOmrqx65YYG1Go+fRKBAFNrYCAVgbu/1T+ygQBaJAFIgC//7v/z4ceOCBw4c+9KFh5513Ht7znvcMt7rVraZ+EZiW+28FfvOb/999UAys/wqHFXmiwIZQgMvgQQcdNPzsZz8bDjvssOG5z33u1I9dUwWwzj777A3RUVLJKBAF1ocCD3vYw4aTTjqpDfRcCOy45ooCUSAKRIEoEAU2jgKOn3/iE5/YYsdsu+22w5lnnjn88R//cRPA/CDX7CgAYo1eXAy32GKLtOXsNGNKugQFXvWqVw3Pec5zhp///OfD61//+uGxj31sYmAtpF+5EDLZFAE/VxSIAlFg2hUwIRXg8POf/3w7dSgAa9pbLOWLAlEgCkSBKLAyCvznf/7n8LznPW844ogjhq222mr44Ac/OOy5554BHisj94qnWhDrV7/61XD55ZcPP/nJT4ZrX/vaw9WvfvW06YqrnwxWUwF9/elPf/rwmte8ZvjNb34zvO997xvuc5/7TH0/nxoLrNVsrOQVBaJAFFgOBUAsA34A1nKomTSiQBSIAlEgCsymAkcfffTwV3/1VwPoceqppw73v//9p96KYTaVXvlSm9eBkk5lY5VikX+Vq1xluOENb9jadNpPaFt5hZLDelFA/+b+zO0ZfP/4xz8+3O52t5v66k0NwGKaiWy7Ym479f0mBYwCG1qB2p0zwfnlL38ZgLWhe0MqHwWiQBSIAhtdAZYLj370o4dLL710eMYzntFiyVz1qlfd6LLMZP1/8YtfDN/73vcG33tYxQqLx1AA1kw2awo9RoGLL754ePCDHzx88pOfHG5729u2sCg77rjj1Gs1NQDrzne+8/DRj3506gVLAaNAFIgCdlhB90c+8pHDKaecEoCVLhEFokAUiAJRYAMrcN555w2PeMQjhvPPP3/YY489htNPP324xjWusYEVmd2qs8D6wQ9+MFx22WWbjCrEwdp6662H61//+s0aK1cUWA8KGK/uda97Dd/97nfbmubVr371sM0220w9pJ0agHWXu9yl0b9cUSAKRIFpV6AssAz2grbGhXDaWyzliwJRIApEgSiwcgo4weuBD3xgO5L+mte85vDZz352uNnNbrZyGSblFVWAdT0rLC5WLK5sWmrXWGCtqOxJfBUVAGXf//73Nwss0PalL31pc4OeBcvRAKxV7CjJKgpEgfWlwEMf+tCcQri+mjS1iQJRIApEgSgwkQLPfvazh5e//OXNQue1r31tO80r1+wqwALL19WudrUGrrRrwtzMbnum5FdUQN9+ylOeMrztbW9rcPaEE06YiQDuajE1AGu33XYbzj777PStKBAFosDMKBCANTNNlYJGgSgQBaJAFFhRBf7xH/9xuO9979usGXw//vjjG/jINZsKsLYX65RFSsW9CsCazbZMqf9bgTp86pxzzhnuete7tlM2d9555+FDH/rQcOMb33gmpArAmolmSiGjQBSYRgVGAdYf/uEftmLWBMfkx5eXxeiXvzPftaOXOBnT2LopUxSIAlEgCkSBxSngnS6OzP77799i+oqV9M53vnPYa6+9pj6ezOJquPHuqnkaeGVe18Mr/wvM2nh9Yj3UuPr1y172suFFL3pRG58e//jHD6961auaq+wsXAFYs9BKKWMUiAJTqUAPsM4999zh+9///nD55Zc3WAVOiYnhyw6eL/+rv/30pz9tux4OsHjCE54wlfVLoaJAFIgCUSAKRIH5Fai4mOImvfvd7x4OPvjgwWEvTiX8m7/5m+E617lOYMeMdyLzurLCcjqhOdzVr371YatTcOFKAAAgAElEQVSttprxmqX4G00B49XXv/714VGPetTw6U9/evi93/u9Bt1vc5vbzIwUAVgz01QpaBSIAtOmQA+wBG59znOe004gMrkpiysga9xlIuSehz3sYW3CmysKRIEoEAWiQBSYPQUKYPn+jW98owVFtqkFcHi/3/ve994EsGK1M3vtq8Tmay4bjz/60Y8aoBQb6wY3uEEs7GazSTdsqW2ms7Z68YtfPIDuNtFf+cpXzhSMDcDasN03FY8CUWBzFegB1oc//OHhkEMOaQDLVRNak9X6uf975b3PPvsMp5xyyuYWJc9HgSgQBaJAFIgCa6RAveeBjte97nWDgO42s/70T/90eMtb3jLc8IY3XKOSJdvlUACwuvjii9uCv9wHt9xyy+G6171uA5W5osCsKPBP//RPwwMe8IB2yiYA+973vnfYddddZwrEBmDNSm9LOaNAFJg6BXqA9ZGPfGR42tOe1o7OLmjVg6s+LlZfkfvc5z7tGNtcUSAKRIEoEAWiwOwqUGCDhc6DHvSg5pYjzuWTn/zk4bnPfW6LdxkLrNlsXwDrP/7jP1oYiLq0JYgFAvieKwpMuwLf/va3m2uzgO3Aq5NSnZzqoIJZugKwZqm1UtYoEAWmSoEeYH3sYx8bnv/85w9nnXVWMzXv4ZVCjwb/9DduhHe/+90HJxdVbIWpqmAKEwWiQBSIAlEgCixJAXOAj3/848N+++03XHTRRS2gOxedfffdty0UA7GWJOdU3GxOx/VKrNMKDaEdAUrt63uuKDCtCui/wDpY9drXvrb15b333ns49thjW/8dPaRgWuuxCR7/dnSVtcoldmrXN7/5zWG33XYbzj777FXOPdlFgSgQBSZXoAdYn/jEJ4YXvvCFg1hYdfpgn/K4Cau/7bnnnsPpp5/eYinkigJRIApEgSgQBWZbAdY6IJY4M4cffniLm7T99tsPRx999HC/+90vG1Yz2Ly1XGaFpT1ZXLGoEwA78GoGG3SDFfnnP/95g+gAlgMIjEdvfetb2yZ6rU9mCazHAmuDdeBUNwpEgeVToAdYn/rUp9qL4bTTTlvQAqsvAXjPhfD3f//3l69gSSkKRIEoEAWiQBRYUwV+8IMftI2tv/u7v2vxsHbaaacGse52t7vNVMDkNRVxyjLXjgAWeLXFFlvEdXDK2ifFuaICwOtll102vP71rx9e8YpXtJ+33Xbb4QUveMGw//77t37smiV41cobC6x09SgQBaLAZAr0AOszn/lMOy77xBNPbInN50LY5yZw4t///d8P22yzzcy9QCZTLU9FgSgQBaJAFFj/CpgHfPe73x2e/vSnDyeddFI7uc5mlSDvgijX4nH9K7G+alhW9gn9sL7adT3W5jvf+c7whje8YTjiiCPa+LPVVls1eHXooYfOdHUDsGa6+VL4KBAF1lKBHmB97nOfG4466qjh7W9/+6JdCJX99re/fTsB5MY3vvFaViV5R4EoEAWiQBSIAsusANhx6aWXtgXjcccd1+InXfva1x4OOOCA4a//+q+bNUQPQrgeugJHlrkhVii5Ctyv3VhncS1kmTVrFi0rJE+SXSUF+tAlxg798dxzz21jjIDtTs/ceuuth5e85CUtiPu1rnWtVrLqv6tUzGXLJgBr2aRMQlEgCmw0BXqA9YUvfKHtqr7pTW9aEsC69a1v3ay2bnazm2XCs9E6UOobBaJAFIgCG0IBEOulL31ps4Yo0MEC+9nPfvaw++67D9e5znUyB5jBngAAgAMCZDuhEBi45jWv2SBWriiwWgoU+JafkwZPPvnk4cgjjxxYYPmfTXIw66CDDloXMXcDsFarZyWfKBAF1p0CPcA655xzhmOOOaad7rHYIO4EcfoH8PXABz5wUyyF7Nytu66SCkWBKBAFosAGVwDkePe73z0cdthhbWHpXQ923POe9xwe/vCHN7fCHOgyO50EGBAP68c//nFzzzL3Y4FlXsdVK1cUmFSBCkNS64GFLKX0xX/7t39rG+Lvec97BpvqwCqQepvb3KbF6L3rXe+6bg4cCMCatGfluSgQBTa8Aj3AOv/885v7oDhY9eLp42DNBaX8/eY3v/nwt3/7t8N97nOf9rKJ68CG71oRIApEgSgQBdaRArUAZX0lZqZ3vsNfWGbVZtYtbnGL4b73vW+zyGIxwZrHlzmBuYE0an7QL2hHF7vrSLaprgp30EsuuaRZXmmXgljXve51m0WdKxuSU92EU1c4IKrvM3MBLOOIQyJ8feUrXxnOPPPM9vXNb36zQVX9cbvtthv23Xff4QlP+P/YOw/wqMrljU9CU0ABqQIiHQQE7AoWFAEVRYSLvWO7lit2r+3asSuIIogiioqIKDYsWFFAaRYUC01AaRaqgBD4/38TJp6s2WSTbDZnd+c8T9iQPeX73nPO9833zsw7F0qDBg1SKrXVCazQPbreIEfAEUgWBIIEFhPI888/L7fccotOPkxCsRBY1tddd91Vya+ePXtK+fLlkwUCb6cj4Ag4Ao6AI+AIFAIBbAOisV555RV54okn5LPPPlN7AUIE+6FcuXICmbXbbrvpJzpZtWvXlurVq2vEVuXKlVXPBluBH/ZnwUr0D5+cwxa+9rsTKYW4QYXYlegrSASz9yCxuDcU5uF+BO9FIU7ru6YQApHvXtDJHfm7aakRPQVJBTnKD6QUFQR51pYtWya//PKLkPnxzTffaDSnkae8/5DeOMTPPvtsOeigg3R8SLXn0AmsFHpBvCuOgCOQWASCBNacOXM0bBeBRNM+YCIJ/vB3fjBSmYCCOeu0fJdddpH+/ftrOmHFihXdc5fY2+lXcwQcAUfAEXAESgyBP//8UxehtmhlkYpezSeffCKjRo2S7777TtN+sBEswsqIKWwCqhaSmsYPi1KzKUw03CK4WaxGOtCcwCrcbY2sJB3taEiqiy++WNq1aycbN27UaBjSRLHx2CAWfEtvBKIRWHmhwrtvPzw79rNhw4YcMotxhH3YLGIL0gqiu1OnTnLKKadIq1atlPAOjgWpNAY4gZXe71TCex8Z8myRKnmFSya8cX5BR6CQCAQJrLlz52ooOZ5UMy7xwqFnYT94TTFA8dgh5jp+/Pgc48aMJbyrd955p5xxxhnqZWVLpUmnkBD77o6AI+AIOAKOQNIjwELz5ZdflhtvvDFPmQAWpCtXrlSCCyLEFqiRNkB+xEq01CPOESshk/RAJ7ADhnfHjh3l6quvlkmTJmkhn2BEVqSjMoHN80uFEIHCvKOR0ZOMCZZCzDoDgooCUERpHnDAAaqlR9pgOsiQOIEVwoc7lZvEBMpg7tU5Uvkup0/fIgmshg0b5tt584TwiXfu2muv1bRDwoTNuGTigfC67rrr1KsHoZUOk1H6PDXeU0fAEXAEHIF0Q4DFJzqZpPXktQUXtkGyCafXOeeco4tV0oZwlPED2UV0BulFOMU4P//nEzvbPvPS5Ew37Euyv9w31jTcn99++80jrkoS7BQ6N89NMN3XyCpzgBPZV7VqVXV6sw6wNOJGjRopabXzzjvr39mHZ4/902lzAiud7nYp95XJ9rHHHpOPP/5YI1SuvPJKFa++7bbbhPQrBCstDNcjTkr5ZvnlY0IgksBCx8omoYJEVfn+999/12gr3guM0KDRCol1xRVXyGWXXaaTk2+OgCPgCDgCjoAjkJwIGIHVt2/fAjsQtAUQBIf46tKlS05qYbDScfB3O3Fe0VYegVUg7AUSi9HOAGEYzdFoumYc62ubot2DZD+qMPfdMpPos5FStq6wYg7BYk/BzKZkx6kw7XcCqzBo+b6FRsAmTAb3Bx54QG6++Wb1TlAVYcCAAcosI2J5ySWXaCUWtH+GDh2q4oeFeeEL3TA/wBGIAwKRBBaekUgDsqDnmFDz++67TwYOHKgijbZxHCmI5LJTchsB14LOFYcu+SkcAUfAEXAEHAFHIM4IFJXAwoH13HPPSdeuXePcIj9dSSAQJArRKsI5iX4Z9pzbcCWBuJ8zHRFwAisd73qC+4wgJWlSpESRNgVJBXlFxBUbg/sjjzyikVhM8CeccIKWF/aokwTfKL9coRHIj8CK9WRWjWjw4MFK8lpJbY7H20K04oknnig33XSTWIRXrOf2/RwBR8ARcAQcAUeg9BEIphAWRGQESRAnsEr/3hW2Bax70DJbt26drmsgsIikQ3jfN0fAESg+Ak5gFR/DpDxDZChxQZNpUTvJdcjZp5zn119/LW3atJGnnnpK2rdvn0sHi3LC119/vUZfMcAPGTJETj75ZNf+KSrwflxCEIgHgWUNhch98sknNUqR1EKrVsj3hBEffvjhSvQ6iZWQW+sXcQQcAUfAEXAE4oaAE1hxgzLUJyLjBEck5BWbra+oEgeJ5Zsj4AgUHwEnsIqPYVKeIbK8rnUi3rm0iFM/9NBDcsMNN+ginOorl19+uZQvX/4fobTTpk3TymuUEd5///3ljTfekCpVqnjIbVI+YenR6HgSWCBGuPmYMWPkv//9r0YrWsEDPnl/DjvsMLn//vtVO47/lxTxnB53z3vpCDgCjoAj4AgkBgEnsBKDc2lfBXsNaQh0f9lMG4tPKsR5FFZp3yG/fiog4ARWKtzFQvaBwdWqnhHlYWJwwQpphTxl1N3nzp2rZBSVOfbcc08ZO3asNGjQINf+QZ0s0gzRA2KAh/g699xzc6o0xKtNfh5HIF4IxJvAol28n6+++qr069dPFi1alENSWQXPQw45RFMN27Ztm3ZVR+J13/w8joAj4Ag4Ao5AIhFwDaxEop34a2G7mdg2ayyckHyyxuLvyEGg75tu1eISfyf8iumAgBNY6XCXI/q4YcMG+d///ieTJk3SdCQEohGfjlc0hw3iLLjvuOMOvRYbGj/nnXdeTlQJfwtGgnHcN998I506dRJSCvfee2+NwmLA980RCCMCJUFg0U8M3cmTJ+v78sMPP+h7YtFYfL/77rvLoEGDpGPHjmGExdvkCDgCjoAj4Ag4AgEEmNdHjhwpZ599di7bNy+QXAMr+R6dYOVp7DXWWsuXL1eHPNkk6GBFq1SYfL31FjsCpYuAE1ili3+pXJ28bCqbEeXRsmVLefHFF6V169ZxaYuV84UM4zqnnnqqjBs3TsNmP/roI2nSpEkuoixSiwvRwyuuuEJ1ssgVJ2KLRXq8yLW4dNJP4ghsQ6CkCCxOT7XOKVOmaCTWF198oaQWG+8CRlC7du3k9ttv17TCvFJy/SY5Ao6AI+AIOAKOQDgQQNh7xIgR6pgyuY5IGzivlrqIezjuX2FbAYmFtimRVx51VVj0fH9HIH8E0prACk4geREk8daDCsvDaATWa6+9pgTW6NGj40Zg0UeLwCJypHfv3jJ79mz9RIA6v2gqizJ56aWX5LTTTtMJHjH3M888070WYXl4vB25EChJAsvepS+//FJ14yCAI7eGDRvK3XffLbTDSV5/OB0BR8ARcAQMgVS1YZPpDgfXGRRnueiii+SFF17QLuCIwl4uaIPAopJ3ly5dCtrVvw8JAsF3r6C1Zkia7M1wBJIKgZQksCwKCP2YefPmyffff69aMjvvvLOKHzdv3lx1mMhLtn2nT58us2bN0pvXokUL1W2yBSH7EAb6wQcfKJvOsYceemiu49F44lo//vijEjaVK1fW6/BD1NH222+v5w4uMu3aa9as0TZyPG1gUuOY3XbbTQkmKlfYYpbvqOo3YcIEbTs6OFT0i1y8Mil+/PHHggYVoau0l0nw22+/lYkTJ8rAgQO1nbVr15Z///vfig14HHHEERotZRvnIY+bfiGuPmfOHN3X+gWetCmv69PGXr16ycaNG1Wz5/zzz49JvHDGjBl6HPfsggsukLvuuisHg6R6u7yxKY9ASRNY9t5TwRNh9/fee0/w4ga9tk2bNpVrrrlGox232267lMc8lTsYafSuXbtW9QOJTEUU9ueff5bFixdrhSMEYpk7EP5HZ4NPi9Ljk+eE8dvmmVg8/amMrffNEQgbAmY3WVStaeXwaULPfGJP2g/2HLZc/fr11RbDKcjfqlatqvuYBo+97zamuIOjdO6+jckrVqxQZxNOWcZr/m66swW1rGbNmvLss886gVUQUCH/3t5FoutJLyRynh/fHAFHoPAIpByBhcGOIf/uu+/KgAED5JNPPlFUbOCAbIGcuvjii+Xoo49WYolj0IOiAh6kCfoyTz/9tLRp0yaHOCJ66Morr9QFImk7kD5GgJHeg+A4KXloNwXF0DEyCBc+55xzpE6dOjltsTZBCj366KOaF88ixTbOwf7HHXecRl+YRhVtJRKDtkOm9e/fX6666qp/RChBGkEYPffcc7LLLrsIUU0QXVyLlCQGULAITqIQZbSDc3N9FkDvv/++4sjCmUnXjCD63qpVKz0XbYysFsjgzETN95UqVdLKat26dYv6hNp56d/ChQvlrLPOUgKuQ4cOGiGGoeabIxA2BBJBYNlY8dNPP8lll12munC8v2y8w4xtLGhuueUW6du3rxtEYXtICtEem7/QAmRemTlzpjoacCBAZDFeF2bhE5xPCtEM39URcARKGIFIQjlIZtmYb00IausEx31+h8DC6YqzE9uVYjl77LHHP5ymHo1Vwjc0yukZr4m8ogI36YPYxjZvR97naC30FMLSuXfxvKq9w6zNWCeyfoNwRirFdbHiibSfK10QSEkCa+jQoXLTTTfpIAFBBRHEBIDXeunSpYJXm8gjohYI54WMYeEAGQQ5xe9Uv6NcPYTVggUL5KijjlIx5e7du6s+E94uJiYWGEQJESGBAWJRXlyHH7zmMOyE/j755JNSrVq1HBKI1CAIHsgzBjC8LLSL9rBYpb383dLv7NgPP/xQ28EASHQSxFrkAMggSbuYMCHR0KHCqIHQYqFL2yD6rM30E6IJD9Hhhx+ui+JXXnlF9agglBAftPbh+SciDXz5O31AqJ122wbGiMNTURDsX3/9ddl3330LfK+4Lv06+eSThRRHIrzeeecdFZv3zREIGwKJIrCs30uWLJFrr71WSV3e8SDxy/uLkcyYhmHkW/IggLMADz2k/ahRo3ReYYzGaWAbYzzRGMEfi9xAXyO4ALYojGDUhUdgJM/z4C1NbQQiCSnrraWTBaMm+R1bk+/4xHnBD2MDnxbhwzmwNbF3id7v2bOn9OjRQwkuj/JI/PNkhCGOB+Zl7H/ul0llMB7XqlVLbVtIjPy2HXbYQajQTcaFkx2Jv5fFvaJFQrNmYm1k0dHM5ayrsN18cwQcgcIhkHIEFql4TNykupEKd8MNN6hgOUQLkweRVZA0fE+aHsQOKTgMJBBVREqRKghBxXdMGBdeeKHmrHM+RMX32msvnYQgcYjaIlUOAgjSiwgJUgwZoD799FNNnXvzzTf1eyrysbhksQFJQ2QVUUr8/4QTTlDCh2M5N2l+kHBEkEEMQa795z//UUOECCwINc5xzz33KMmUF4FF5Bf9rVevnpJBRGAZQXTiiScqqUQUFSLufNrGPhBoxx9/vEybNk0JKEgyzgcueJDGjx+v7YWE43twOfDAA3URxWDNIE17uT4EGhFxeAlj3cD1mWee0cGdamzcK/cgxoqe75coBBJNYNEvxh1IaN4tI6FtwYNYKAQX7x7vqpMWiXoSYr+OLVJN/wRHBVF1jz32mEydOjVXChAOGBY4RNEyjjI/WNoQix6iZjF+ue/sy1zBD/MNc5rdf1/0xH5/fE9HIJEI2NjNuBBM+YWYwkmBnYduKenClkoM2U22AA5SbDVsV/5vacSck3GAyH1st2OOOUaJLR8HEndnuZdEXmHH4/TGbg7asIzlrA/IeDCB78govMS11q9UkgjYO47txjvNs2FReMzVrHOCAQAl2RY/tyOQKgikFIEFQYXgN2QTv5MOBwljXmoGDLxWfH/JJZeoUUA524cffliJIQYV0gA5BwQMxA+6M3g+MAwgi4hqMm8WxA9Ei0U7EQ2Fp8RSPHhISP8gHQ6NLYgvyCcWGqTkQVoxwZGqyP8ZxGyj/XjjiW6izZBnpOERhRUksCDjokVgFZXAog0skCHc6OvVV1+taYqm48X3lspIJBj932+//ZSksn3wNJx++um6MGPxRV+YsGPdLr30Uhk0aJAO6l999ZV6FMHVB/lYEfT9EoFAaRBY9IuFDBGid955Z857wfuBoQSZQYo0hrPp5yUCC79GbAgEjVeiS3GyMMZZtBXEE1VhKWSBdqERVUTV8V1+RH6khhYtchIztvviezkCpYVApF6VtSOvd9eisIz0gOCCyCLSh6q1ODY+++wzPQXnZcxAs/Tmm2+WY4891quhJegmc1/MiWtju91PHOpkQxx55JEx6cImqMl+mRJGgLUSkdXB9GHeY4IAguurEm6Gn94RSAkEUorAgt0mVQ8hdFLx0H2CPLF0CpvQmegRCUc0ne8RNrcQTiYdyJrHH39cF4ZoO5EyR1QXhApeLJuEIKwguCCtSJUjKoqBKVhZhImL9DrSQrgGaYiEDd977705aXf8jl6VMfJ2DkgsSDY+GeS4DtcOphCWBIHFAgsxdyLR6C8TLZ48w49P2krkAGQf6ZNEB6CX1bhxY8UAYo40QEgt/sa52Ce/LWisQdwhNM/f0IKB5DNcUuLN806kBAKlRWABHu8fUTsPPvigLmCMvOCdwRji/bv++us9/TZET5rdI8TYcaQwb1Akg3uGEdupUyd1bPBpkVV5Nd88unlFVNh3keSVE1khehC8KY5AjAgEF7v2DkcjsVkg43yFwMLhSaQ84wv74yDFqckPtphHY8V4A2LcLTjuYv/imIBMDEZecf9wjKOZi/MXZ5NvqY+AOa34xFYjmpJnASITxxTPgb+Pqf8ceA/ji0BKEVhEOyEUTpU+jH+r/mfEEAOGTfyQXAwieKdIOwxGB/F/KnpBnDDgMMi8/fbbcsABB+TyZiOYPHz4cF0sotUEwRTcLCScEG+MCEgoDApS7TjWSC1SEInOirbAiPSqQwaZiHssBBbGCpFl7dq102sQTRZMIURPB4+/bUy+iKcjHEzfEAa1SoNBjQaItfnz5+uADEbWN/YhAgtSDiMKbIk0AKOCNsMAI2vYsGEaAYYeDAKlBRlvBZ3bv3cE4o1AaRJY9IUxDJ07iHQM5WD0J99D1EOSuIZcvO984c4XjLBgPiDNEwcL94t5oXPnzuqtP/jgg3Us9VSSwuHrezsCjkBuBHB+UtEZsgQJCWQtGGuI6mROwK5zUjt+Tw1jPDYxDm/IK9YGQX0yrkT6Nxkf2O9WZTJ+LfAzJQMCBDXwjDDP8+PEVTLcNW9jGBFIKQILooMoKCKxGBRMDyToGeEmWIQUkzf5x4RdE2JtGx4sUnNIGYSMgQgjkqhhw4Y5oZ8cS3oiBA3nC4ro2nls0WLiu3wi5IjnhYUv6XWQXuieoMOVH4HFOY2AKwqBhZ4XGlicA8OG6Aw0sEjNIxLAKi5yHUTbWUihqcD+TLTgECQAgw8zf6cfYMFx9JuFNdEfVG8ksgACi+vHshEFR/ohulqQX/TXIsA43rWwYkHR90kEAqVNYPEukE7Iu0KKyOLFi3N06Og/7y5FGYgChST3FNxEPBV5X4MxlDmKlHSiaFns4I0nLZ3xzjRqgvOALzBL7375lR2BZEbA7CRSlp5//nmtQI3DkTEFyQeIFJyavoCOz10Gb7Bm7fDEE0+otIZtYIwNiywHaZxBfcL4XN3PkiwI2HrU5/lkuWPezrAikFIE1ty5c5UcIk2PiB30qSKFjPFCsYizyZ0IH4gowjhtYEGYHP0RUguNtGGy//e//633kf04B2lupBVyDVLpSJULRnuxL4sWq3LIJymOREOgwYWAOwTayy+/rIvM4IAWTcuEvyPsjignUU5UN0HrxvQQ7DiirIgi49ykSVJRMEhgIWwPgQVOkRFYHLv33nvLd999p6mYEFGc10i6YEi7EWv0g76xION7zkFqE20jGo5rQW5F26zv4IURgG4YpCEGFt7DgtIPw/qCebtSG4HSJLCChhDjGiQ1engQz5EkL1GfeOKpRBpMNXQyuOSfTxsvv/nmGx330TBkvGO+QMQXHRRbRPpisuTvh1/BEUgnBGyewJ7CyfH5559r93HMPvvss7LPPvukExwl0lcwJqUffImIxgkbtJMhr5AKIfKKNYfPuyVyG5LqpEH7zZ4HIvawAdwOSKpb6Y0tJQRSisAi6gdiB8FwiJRg5A4LBiOXiEBiguFvTCaQVxZhRDQDHnEiGiCa+D8VX1j4oYtlC0DOBXlFJUHOgRYN2iWQPMHBh7Qe2sXG3xFh55P9WWyy8KSKIBX9Ikko2ohOF8QXYaeQTVwLgg3SjRQ/IqkgwkzDy1L8SOtDx4oqgnkRWKQQvvXWW1p9EO9cMIWQNnFeUlwIeYZAMk9dkGSjfVb1Bo8SemFG2jEgczxEGf0lnPqkk06KOjAH0wNJ7+T6pIT26dNHcSaKyzdHIGwIlCaBFYkFxg+LFATc8bTbu2j7kQINqbznnnvmkNGmzRA2XFOpPYyFS5Ys0Sq1RKLy//3331/HNUvPpr8ebZVKd9374giECwHmB0h0qmqTdcDYf9hhh2mUPBkIPv4U7X4xnmNv4+iFvMLmD244gYl+87TBouGbDkfxbpL5ww+Fd8hocZIzHe6897E4CKQUgcULf/vtt2t+P6QRqRpowxi5A1AIuPfv319TOJjA0R2BLIGAgSR65plnVMSdDcIKvRLOwwBDRBfC4lYt4tNPP1UtKSKGMARYkKDzZEQZxxAVgZcdIowoKzSrTHeLaDEWmhBMkD1BHSzCj9GAIsqLfqFJhY4VJBECwER8TZw4USO4+DvfGwHGBMp1qbAIyUT0UjCFkL8RYUZ0FiQd1RSJuLINXEgrhMhj3969e2vfqIbFRntoH8QZKZEYPmiPgatpZbEP+gs9evRQTbKLLrpIQ6sjdcLsmhbpxv/RG4MYgBzjnFQkROTQDazivFnniEYAACAASURBVOp+bEkgECYCywgrSBKMaTT8bDNvH0Q1C5aDDjooJ5XavX0l8WT8neqMw+Syyy7TxQ1pgxCIjO2RGjQ+vpXMffCzOgKOQHY2ABsSEUS44+jlb9iwAwYM0OJCvhUeAdYUZEIQzcZYH9ShxJEOtpBXkTIjPt4XHutUPIK1FNk0rHd4JnhOkBNwuYdUvNvep3gikFIEFsAwEBCdxCIO4op8c4gYiBq8JCzeRo4cqQQMUUXoNkEgMWjgnSLtjk9Im6FDh6o3BSFkPFaQKOS2M+Ez8ROpRIocqTksEDkfRA3pOvwfUXN0tCCcEOuDBIJ4MmFHCDIIKhY1pPdBnHEOCDHa/9RTT+nvMPJEhB1yyCG66GR/wpG5Nu1AmwuDpGPHjtovIquofgJpxsYkCoFF9BgDJO2GFBo8eLD2G6KLhTjEHFFeRDsh5M6iiwqEDKREc3EMmlngSNtYhPE71W2oQMjiODgpE3VA1BUpMyzW3nzzTW1LfhuEGSTfbbfdpphBrnFtNp/w4/nq+7nigUDYCCzrE2kijEVoLjHe8A6bYY3e3v3336+ks+kExgMLP0duBIw0JNqWSF3GXdIGcZKQtsN4lteY5uOcP0mOgCNQUggwLlE5Gr1YbDRsQETHr776aq+KFyPoFrmMo5yxHecEfzPbHjud9QekFvarOZej6cjGeFnfLcUQMMkU1m1BGRWeHdZh9tykWLe9O45AXBBIOQKLCYTFGxMyWlEMEET9mBA5HhIWEkRKQZSgP8IijgGEVD4iiiBk+KRaCxuRThBPEFEQMUxKLVq00O9IL4RIggiDPIN0sQgtrgWrzkBEpBc/DEymiUVlQiKMIIMgbiCqGLAgqGgPf0Nf65ZbbpFzzjlH0weNlUfnhogw+sj+XJMf+s+xhC3zd6KfiMAi2soILAwYBOQhrsjb57y0i1RKSDUqYjGYsvglog39Ko6hH7YQZuIGx7p16yqOEH5WVYV9rQIjBJ0RZZBRRGRF27gmEWnsA4kIxkSX5SdwH5e3wE/iCBQRgbASWLz7RGAxNpFWyP9tw7iGtCdSlXeN99+3+CMA5ugI4lBBl5HoWbzxpJozjrqIa/wx9zM6Ao5AwQhgu2HX4rDFSQqxju1HZG7k2FTw2dJvD2xc7HfmV5zFQcF2xnUc5ji20YW19UAQJXdSpN8zE63HrBsJGIjciIgMZg85Yo6AI5AbgZQjsOgeJA6pfxBN6DuhFcVigoVbjRo1dEFB2iCVWKwiIR4UPFCUNyXSiAggIq4sDxlxRiqIQNJAREHs8DvfQ+aQAggRhWeLAQkjgIkLgwCiCG0uCyE2vS3aSpQUBBHRXiw4Ia3YWFR26tRJoyiIvIocyDgHoeAQbXj08aTRb/YjVREdHKLFRo0apVFPRHAFCSwmXMghxOnRnCL3GgKLyRjPnGmGUdWMv3ENRPINR4i64447Ts4//3xNP4ys+GjRBeiQEemBwUQYNamJpD3aBG4eKcOZKDXwBdvzzjtP0y+9YosPW2FFIKwElo0x33//vaZAE4FpKSRgybhHmDrjGlGSXs45vk8Y4xljKjqHRKoy9jMms+DBUeGe+Pji7WdzBByB2BEwgXHsWGxd7DpsYrRKzREZ+9nSb08qnTOvks2B9EhQrwjnEBHOOIfMdjW8nbhKv2eloB6zboMMNRIU24ygCwtoKOh4/94RSFcEUpLAsptJ9BMpbrDbeJnQcCKiiQgrBojgZEIkEmSSRRrhLQ8uMviOffgekogIp+D3TGJch2tC9EBewaDbNYOhoEECi7ZiPJBHz4IH4g2CB6KNY/mMNunRFq5HuyDe+J39EYrnWKLDOCfkEotVzhvcuC7HkiZp1S84HiKLzfrHwEr7wABCi/6zHzhyLTabwG2itutwDOLFEHxgTzQW0VqmuxMMmyVaDI8gnkEiu9DCIqXRNXrSdXgKf7/DSmDZ+8g7TrSmkVhGkIMs4wJjFMQ90Zz2Lruwe9GfO8MdDEnlpggF4ysRvzgRSMH2RUzR8fUjHQFHIH4IzJkzRwvtTJ06VW1GnJ7Ibvj2TwQsJdx0dBFmD6Z+Ma5T2RGtV49s9ieoMAiQrcP60Qp9mZPfbYXCoOj7phsCKU1g2c20lDaLKiqpmxyrlyWS5LH2sOix9MJo+ijR2h70ANn5o12nsP0PtiVIVOU3uNq16RNi7qRqMkB37dpVQ9VJawxuGAJoxRChwCKbRTXRIe4NLOzd8v0TiUBYCSzDwIhp3j3eLRYo5umz9xqjCRFaIk+tkmgiMUzFa0HcE3GFhx7nBdUfLQ3cjdJUvOPeJ0cg+RDATiNz4JJLLlGiHR1VMgKiFdtJvh7Gr8VghVMYu9RkPzi7zaOkYaJNi+aVFx2KH+7pcCbWSQRBsP4L6qWlQ9+9j45AURFICwKrqOAU9rggaVNQBYm8yCVb2MRKhBW2fcXd38SgYyGxgn1gwUw1SDxWDNSQU//73/9yUirZF6F3dMaIFkHInlRDohaCxFxx2+/HOwLxRiDsBFawv6Q9kC6C8U1kphnffGJws4ihkASRlb4VHQHGLHQYSclZsGCBVpclmhRy0KNJi46rH+kIOALxRYCxiogiZDWQeyAKC9sLGQrfciOAVMg111yjTiAkMWzDbmfORPOK7ALTEHNHhT9BhUEguGaKDEjwZ6kwSPq+6YKAE1jpcqdLuZ8I4FPVkDQaUpWoBtmzZ08lsQhjZ7E3ffp0FWwfMmRIjoC+D9ylfOP88vkikEwEFh0hzZgUB8TEjcQKGuJEDUE2k3IcJLj8MYgdARY3AwcOVKKeDbF8dP0KcmrEfgXf0xFwBByB+CCAYxK9WCJESTln3MLRwXiV7oS7kQpIkRDBDE4mNWLzo2leoXPreq3xeSbT/Sxbt26RjIxM2bxps6xZu0blX/IqBpDuOHn/0xsBJ7DS+/4nrPcYAlQYhLhC5L5hw4ZywQUXqMcPfawJEyaoDheEAKLvwUV1whrpF3IEColAshFYdA9PMkUjMMghtILvGoYSxRZ4T3k3nXQp5AOxrTIthDwRDXjmKZaxzz77FP5EfoQj4Ag4AiWIgBX2mD17thbzoAjR/vvvr5VrTQu1BC+fFKdmjqSaNpHLEHzBSBl0Xfk7aYMmd+FO16S4raFuJM8YulgrV66WTZv+kgoVyqvusttjob5t3rgEI+AEVoIBT+fLYSxhDJhINJXP2NBeIGqBiZ8FNBUYfXMEkgGBZCSwwJX3kAqmRGNRwTS48f6hWcd3XkShcE8hhidVbzt06KBEPcTVG2+8kSOQX7iz+d6OgCPgCJQ8AkQVESVKtWn0r4iGR9Mp3ckY0ivRvEK3FY0iNsZ4iIQGDRpotcHu3bvn2KwueVHyz2qqX2FL1hb59bdf5c8/18nWrRna3YwMUYdiZPGxVMfC++cI5IeAE1j+fCQMgVhE5dPdYErYzfALxQWBZCWw6DzadEQ/It5ONdLghoF+0EEHaaQWC5lgKom/o9EfHaJIX3zxRTn99NN18ccnGDpmcXnd/CSOgCNQAghgm919991azIOxnzGLiCwkHtJ17GJOpHovpB5OVtuYCylChOYV0crBQkNOYJXAw5lmpzRdujVrVotIppJXbFY1Gr1S3xwBR0DECSx/ChKGgBNYCYPaL5QgBJKVwLLqhJBYCIyje/X9999rdKRtGOYIkONl3nvvvT1FIoZnijEOod8HHnhAU3AoXMFCMF0XgTFA5rs4Ao5AKSPAuDV+/Hjp1auXpskxr5EaR0R8Om5UG6TQEILt4GHzIuM45BW6hmi4erZAOj4dJd9nov2WLVsmWVnYY1vVfsAeIworXd/Jkkfdr5BsCDiBlWx3zNvrCDgCoUEgWQmsyIo37733nlxxxRUya9YsTZEwTzLe5j333FMJmf3220+NKEsBDs1NCFFDwA0x37feektq1aolEydOlCZNmoSohd4UR8ARcARyI8C4RTGd9u3by/r162XXXXeVr776Skn4dCHfbU4k8goRe6LQjLyy+RDt1v79+yt55ZEw/haVFAI8bytXrpTVq9dIZmaGILdC+qAXCSgpxP28yYiAE1jJeNe8zY6AIxAKBJKVwAqCZ4TVl19+Keeee67MmDEjl1AtC5h69eqpQd+lSxcNZfdUibwfP7RkwGjq1KnSrFkzJQSDKSaheGi9EY6AI+AIRCBApT2cFQsWLNCKZ/PmzcupRpsOYDGnoVtINPLw4cM1xZ65z+a66tWrqxbWUUcd5ZFX6fBAlHIfiZLneYS8IpUXuytdyORSht4vnyQIOIGVJDfKmxk/BHzxHT8s0/1MqUJgcR95LxDvveyyy2Ty5MkaaWUGE8ZTo0aNVCcFA94MqnS//5H9/+6779Q7j5D7oYceqtVVfbzxp8QRcATCjsDatWs1dZCUcsb3zz77TAmtVN9sfEawncq8pE4ShWZ/53OXXXZRzSsE23FIBDUhUx0f719iEQjaCxYVyKc/c4m9D3618CPgBFb475G3MA4IRKZMBT1rcTi9nyJNEUgFAstuHe8IpNXChQvlvPPOU/KFLej1q1mzpqZQnHnmmW5Q5fHMf/rpp6p59csvv8jJJ58sI0aMcK9pmo4N3m1HIJkQgLS5/PLL5bHHHtP0uFdffVW6du2aTF0oUluZ9+g7VRiffvppnQOJfrG5j8grtLCozOvRtEWC2A+KAwJBYouq7RBaOBZ9cwTSFQEnsNL1zqdZv23wnz17tqxZs0ZDwPGq2YIdg6VatWpacc0nhTR7OIrR3VQjsICCd2Lu3Llakerll18WjCUjsfiExCLNApKLhU7wu2JAmRKHon111llnCSLAF110kQwYMCAl+uWdcAQcgdRGgJQ5nBO33HKL2kejRo2S4447LrU7LaJj9c033yzDhg0TxLOZz+wHwXb0H0kLR4PIN0egtBBgDYMtBtm6bt06fUdZs/h6pbTuiF+3tBFwAqu074BfPyEIsChHl6Zfv34aHdG2bVt5+OGHdUJA92fRokVaXWbQoEGy++67J6RNfpHkRyAVCSy7K0uWLNGKei+88IKK2bLh9YPsrVKlir5LCL+7Yf/3czxmzBg5//zzVYAVApCFkW+OgCPgCIQdAWwhSJwLL7xQx/knn3xSzjjjjLA3u1jtI20QZ8xzzz0nGzZsyFWFd+edd9Zqg5B4EFoQBq5BVCy4/eAiIgB5tXbtOlmzZrX89dcmTW8tUyZTiA6sVKlSEc/qhzkCyY2AE1jJff+89fkgYNXSWHB///330rdvXyWxMEyGDBkiRxxxhBJYaD5gtC1fvlw6d+6sURMIMLO5weKPWH4IpBKBZf0Mhqoj7GvlxPH8sZkeA+WcSTm59NJL1ZDy90U0BeXiiy/WKE8WPxB8vjkCjoAjEHYEcFLgrDj11FPV7sHBh12UijYQcxiRV3fddZc88sgjagdC2pnuI85M9B579eqVkzaYijiE/Zn09mUjwHP5669/qF2RkYERJpJZpoxUqFBOatas4QLv/qCkJQJOYKXlbU+PTpsxAjGFIUY61E477ST333+/nHDCCcICnH0IG0fjgIgJFuznnHOO3HPPPRqe65sjkG4EVmR/KSvO+4CeE7/be8UigGpVvC9EatWpUyftw9mJWrjkkks0zJ8FIGmEvjkCjoAjEHYEcPSNGzdOevfuraTVgw8+qLpQqUjcYBPedtttGmX2559/5jhf6CvSEnfeeafiQIq8b45AGBBYt26DOtmz7S+RzIxMycjcmisKKxXf1TBg720IJwJOYIXzvnir4oAAC2x+IKcuuOACNcQgsu69995chgmGG95HjDXKJENyEYV14oknpv2CPA63IaVPkYoRWJE3zEheohavu+66HIMf7QXeHYRtESxHP4XoxnTeGD+ISENPht8Ruzc9lXTGJVn7HksFSZtnvEpUst5lbzcIMJa/++67WmWWMQs7iQjbVNuotnjllVeqXUifrcAP72/VqlV13O7Ro4dWYvTNEQgLAllZW4WU13Xr1komOm2ZmbLDDpWlcuXK+qw6eRWWO+XtSBQCTmAlCmm/TlQEzIBgh3gOwiy8ly5dqovriRMnqnHy4Ycf5qlxRRumTJkiffr00WOoOIMeRO3atf3OOQJREUgHAss6j+H/zDPPaKTi77//ru+qRWNBYoEFnmvSL9JVWPTRRx/VRR8pKaQTUpHQiY3wDCD2vLJwtfsSjWAMElPBKrbB3qxatUoX/egq7r///rL33nvH7X7TRtpGO0tqjgzPnfGWlDYCvBtUUT3kkEO0KYi5M9an0kaE/a233qq2HULYbNl6QmU0gnjgwIFK4AUjr+Jpk6YSlt6XxCJgIu5EwfN8oj1qxJU/o4m9F361cCDgBFYC70M0I7i4TQh6iWPxGBf3esU9HkMJw58Nw8FEoOM9CLMAIEQcHRqMFQyyq6++WsU489qsjDTGDe169tlnNYzcN0cgGgLpRGCBAZFFr732mhY+QKg8+M5CYu277776zjVp0iRuC/lkevoeeugh9e4z9iAMTBQn4126EnphvHfBedh0EiPbaeRVkNyKnL/5/+DBg1UEGnJ3t9120zR1008sTt/tWkHiyonQ4iDqxxaEAO/C5MmT5cADD9SxG+3Dm266qaDDkuZ7bE4Kjzz//PM6jwU35CJwOHTt2jUn8sqr6ybNrU2LhtqcZBqk8V4vpQWI3smUQiAtCSwjeWIleyL3KwoRFasHNZY2Re5jXmUGtLyM7FgGuuBxRe1ftOtEthdvNUYS7abi30svvaSkUkF9L2y7iKQ677zz5I033lBdg9dff11at24dNcqLReekSZPklFNOkZ9//lmOPfZYbVss+KXUqOCdiRmBdCOwAAbNkDfffFPJ4IULF+bSxMIj2KlTJ7njjjtkjz32SDtxUUqugwtjCYLIxx9/vP7uBFbMr1SJ7sicgxAukXJ4slmoEzGXX+rrd999p/eSKmU1atTIEeZnPrrsssv0XKSgU8iA+eKggw4q1pzB8/LVV1/pD3PPXnvtJa1atcopnlCiAPnJ0xYBnrsZM2aoE4LxCvIq2QksW/STekVFWNIGeVctupH3i4hhCm707NkzJ6KlIFs0bR8S73goEAiu+axB2c86laJReffNEUh9BFKKwMqL2OEWRnouIwmsgiYrmwTtXPzfFiWxkhuRBFY0Miavttj1LZXAGHjaY98F22G/B48r6FGmP2wYLrEQRcH+2LmD182rbXYfFi9erF5qxNP33HNPTetDDLogD3PkNQvCfvbs2XLooYeq8GH37t01omrHHXfMFwoWKexLm3bddVcNqU93XZ+Cnp10/j4dCSzuN+8uablU3KPCp73vlvLUpk0bgczh/SvoPU2l54cCERBYGJhjx47VEuzRonxSqd/J0hfmkCVLlsh+++0nzEPMd19//bVGT0XbcICcdtppsnr1at2P/e15f++99+T888/XcxK9gX4OJFdxnnmiQ6iORqoT7UVMm8IAHhGSLE9ZcraTZ23WrFnStm1btcVIH4T0SeaNPi1btkyj75966iklr8wuZlzGscn7dfTRR+dE5psjuDjvcDJj5m0PPwLZa6EMFXPn140b/9IsE57ZatWqZlcq9M0RSHEEUorAsoUVJAQvOHnC/AQnIltMEPLPZMZ3pLAZecLCDAOS4yFVSItBz4T9OS//Z38ihmKZ4DiGiAXOWbFiRalUqZJeK0jW0CYGH5tY2ScoIMn3fMd5+MTo5lyR/eI7vMvWTs5DOwsihsANLGgDP/SRvnONvI6lL1yDdkEIsU+wLbSD72gvn2wIDbKB5fz58zU6A6z5JJqDioD0mc+8ohU4jhBw0vzoFz8FVYghVJxoKva7/vrr9SeWe4bRxuIBzayhQ4dqKWW2WHBM8fHCuxeBQLoSWEbif/DBB3LttddqtIiR4Eawt2vXTqsXoqnCmJIOG8LH4MG49+qrr8oxxxxTYGRpOuASlj7ybJpeVXEILHOmMIctWLBANeGaN2+ulWuDaYdF6bcTWEVBzY8pLgI80998802ORigEFnZQMm8WeYUdhw3JZgRV3bp1VagewfZIezqZ++xtT30EjMDKymKdtU5WrVqta7iyZctIrVq1pUKF9LC3Uv9Oew/zQyClCCxeaiJn0KHACDzhhBPksMMO+0f/WVywsPrxxx+V4EF4GMOTjQUZaQAYpqeffrpWpMMD++2336rhW6tWLWnZsqV61okiYmEWGTXF/zFo33//fQ3JxlBesWKFenvQhiHFhrQAE+CjrVzzk08+0UUgE2q3bt1yiBzrFx59vuc79jFCheOnT58un332mS4kSZ2DWKJ9eNPYn/8HI7foqy1Cp02bpriBx08//aQEXb169aRDhw6KH0LmQeJn/PjxWm4ZsgmMiKIKYsDv6ONgHJCmUbNmTV3UgRXH0tcxY8YoxuALlvSFe0DZeXCyBQIkGPeENs6ZM0fvAW1r3LixdO7cWUVzMT7y2qgqOGjQIG0/2B1wwAExLSYR5cUjx3PCOfCGp8sC3IfLwiGQrgSWOQJ4Tz///HMlhz/66CMFz4gsfmcMuv322zUdN5r2XOEQD/fed999t2oigQtaYYwjvoUHgUgCi3mHRTtzerQtvwgs3gNz0jBH4nyJdJJwTUtbYkHNXFKlShWd/yOdP+b4oaIn8w7H8kllS1t821wUjBQxpxHH4+TB/mDe4xq0yaK3I9vG/va+8h37W1Ve5nDsBq5nzj7rH5/ZC6a/K7XZnB0kCrw6Vnie/Vhagp1L9Cz3kjGdsTtZN94BCDiq52JrmoOY/mA/kuaO7RmrMzpZcfB2pyYCW7awzlqlkcEiBA1s1fTBSpUqS/Xq1dzhnpq33XsVQCClCCz6hagqZAmRSI899piKDZvhZ/3GaCMqgPQwjDNIGyqQsHEMmhiQQugnkSIwd+7cnIpbFgEFKUOKDBonZoTaBAmBdOGFF8pbb72lXh8zNC1vGQIG7YwLLrhAyReOe/vtt7WKF8Ynnlyikho2bKjHEgINWUOqDhMv523UqJG2l8gwyDj6jcFpxjRt4nciqWgjEzkep2AUEVFUeKYgmtB8ssgwM2ghqCB9EGVu0KBBzmNDmgwYY9w+8sgjKlQcuZFSgc4V3mlIO7CGGLvtttuERR4GMEaFYUdb6S9RCxhQbPSbxSDkE9FXtkAwnInqAmdrixnQ1keqyYAVmBEaT3+C6TyRxKP14csvv5QuXboo+UYFQ3QTCor28lElPRFIVwIr8m5DAvAuklYY3HjHGO8Yo3AopLoWFM4QFn5saO6RjuxbeBCIJLCYU1i0F5XA+uKLL1QTi7mXeWbUqFG5SB3mf84PIcW8YpHWOG6YN8855xzVzrKoLZw1pDthc+CsYb7C1uAdYoOUIrKY6GCzK/g7xBg6Xe+8846g2cV1uAbOJcjjI444Que/yEhpyGcijjkeZxfzOe8wczwOLRb/OI5IjeRYKi0i7k2bI+0qsF20aJGmW3J9nH0DBgyIi6h9eJ6g1G4Jz47prV133XVK8iTjhh2N83H48OFKyAYJXBylI0aM0Hci1eejZLx33ubYEMgOFFgtf1AROhP9Y6ILs49l7N1+++zxPpask9iu6Hs5AuFCIOUJLEioSKIiFgKLCRByC6MPMgM9JAgXIp2mTp2qhiVRVCNHjlTCyYxJiBsWLRiteCghyhDFhOzBKIVQgZjhvJA5aMjgpeTcLHwwIJlwId4getjv4YcfVpKG3yHYjDTj/HhnMTI4vmnTpqrDweAF+QJphIHNJM0xiM1CItmARnQSBBFRThB49JO+wOgTkUX0mGGFIWAkFoKXHFdYAgujm/7j0eZ8tBm9EKK4LALrzDPPVKKNNpx99tlKaLGRjoQ4LsY8pNjHH3+shB4EIGQgxhZkXXDD2CZyC0IMHCK3aAQW9wnPHFonGDksSvCY++YIRCLgBFZ2JCfbDz/8oO8h77d5vM2A4r2F3IEQZhxL1Y2x+IYbbtDuOYEVvrscSWDRQhbtLVq0iNrY/CKwIIxOPfVU+eOPP9RRw7lsfoW8Yu6GvCUahPmazWwF5n2inHE+oa3FvE/U3llnnaWEWHDRbU4b5mlsEHQZOQ+ONtpA9UsqyPF/c5RxLc7BHHnSSScpwUzRFHPwWGT3GWecoVHiOKuwR6iiiRMO+4f5GucNEd/0gdR9bANS//OK6Ibw4jpcg+hDKnFGi5AO39PhLcKm4lnk3iYrgcW7wxiM4xUnrb0HvBcQwNi92OgWeeULfH/ukxWBTZuyNLuH9Wom7FWGyHbbbS/VqlX5h3xOsvbR2+0IREMgZQksCBDIHgRWI7dYCSwmNgQeIVUgfjgODyMeUgwzvod0wuDDSGPRhsF6zTXXqDHKtSF6LPKJ7xEWh5ghIgiDl+iejh076rkwEDEUSQWEHMLruc8++6gQMtW+MGwhrCCCMDAgyfiO4zgHXlOIHgxP2ooRCrnzyiuv6KIRTyv/59iZM2eqthORVxBfCJxjuEB2cTznJkKMqnz8DcMUzyq/Q2Bh3NBGSLFYI7BYxJqXlgUDxgUeYlInbVFLu7nGsGHDNG2CgZnqMAMHDlSSje9YGIAj7cODjFGCRw0Czjbu/8EHH6wplRjSRoQFn4VoBBbGPH3FUIc0I+WRtvvmCDiBFf0Z4H1izKFyFYsHNiO3GN8YQ6+66ioVOU/V1CInsMI9RhSGwDIiiGjoaCLukEeQQ8w3RGBBANiCmHkDRxTf8bwzHxHlxPwyYcIEjXri75BBpOQzx+BoweaApLLiCMzpONBoO3MdhBhRJLSP4yCMcFjxfwgm5lSimSG05s2blxN1zLWZ54PRZkR8QWBh1+AAYlHPnAvZxu+Qd1yffcCBNmD/EN2CUye4+Ic8I+qZcxL9hW2DPeMEQbjfiWDriLrDNuM+Y7vidEiGzeYZMhL69eun9jnPMD8W5c8zybyEk9ekP1zXNBnurrcxGgL4Dtev/1OWLVsu5cqV1TG5YsVKUqZMBqNykAAAIABJREFUpoPmCKQ8Ak5gRUkhhFyhUhEeUQuXNy8o0T8YahBSROg888wzOnCweIMUglSx6CzIITPg7JNJlEmWa5BaQMoi3zHZQjZRcQgvEt5SfjA68biiG9W+fXslcTiW4yC5MDQ5J1FWwZBo2osRTFsxmiG5SD8g6onrYpxAtLHooj1M6vyf4zCGMYAxYPmdaKbevXtrO0k5tAisgggsBNvBgGgwI7BoC0YShjLGO99Z9BTXxptNpAZaVPSbhQBEXnCjTaNHj1aSCwKP9tMuNowSIuHQ76L/4EIUVeQWjcAiQo7IPUgv7iOfkJC+OQJOYOX/DPBOQYqjncK4RSpRcGOc5F1l0Z2KpLATWOEeI/JKISS1j8jjvOYH/kYkHal+LI4jqxCS+o8DB8kCHFJGYDE/4WAh0hiSiuMhfohmYo4lurlv375a0IS5D91OZAKwAZjPcEbxw5zMcTjDmHuZ26ySLvMURUrQnmO/Pn36qE2AhiT/J7IaCQQcTkQT0w7ePeZ9W7hDNhEBzZzM+SHAaBdkGw6j1q1b699wYHFu2ofuJJhACATtDbDgWN5/5l5sJ4++Cvf7ENm6ZCWweKewG8lqwCbGtrSN55p3gvcJQjWoZ+rkanI9n97afyLAXIOdxdyS/WxnVyf0zRFIdQRSjsAi6ooIqPwisJjsEFLPTwMLcoq0PSKNgpX8mPDwdqITwCcTIxFTGHtEBUESQT4R9QMRZcLFwUgE0gzQpILwwngkhQAj1gYijMynn346J3ef70xrivNl5z6vVFKHdDcWhZzD0gp4aI2cwejGYJ0yZYoa6S+++KJ6iokC43cWkXhxIeuMoLPjMU6N0AqK01qlLSLBCtLAChJYEGdskQQWmhtBQxd8IMvAkwgoNEa4lgnJ2ku5fPlyjX7DYMb4x4A2wxzj/vDDD9dIMs5FX2MlsLgvLBgwwI3A4v66sZPqw2Hh++cphP/EjDGDcYcUaCJSTfeHPW0RDvHMOE26cyptTmCF+24GCSzmDTYifCFpom1EJxGJzPycF4GFthvPe5DAIkqYeYc5CeKIhTXPvEWDEK1ElAiFXtiYj4mm5ho4pyCdiJimvURkcaylHvKJfYIGJ+QW/4dwwplk2pg2/3M+IqewRYjiZh7DSQYJRVu4PjYIWBAF/e9//1s1rizi3HQxSdsn3RGbB+KKed+Kr9B++outRFu5Nt9D4PmWXAgkK4GFXhzvGJH4VoXc7DWkL4hazKuQiNt0yfV8emvzRiC4vnSMHIF0QSDlCCw8haSp4BHldyJpIjcWWGhTYZRGE3HHION49C2C1bMYKPiOqCIMW4w+ROAhgkg5g0hhH9hwRMbz2iBiMHiNSDNPJZMpBiekFJOt6WlgICO2DskDkcQ+GJwYzLSFv5moK9cLDmZcgwUk+7FYJAKLlAC8tRivpBUg/kpagR1n54gWXo0nizQg0hgwVIlwssWp9ZcIKMg8DF+LwIqVwCKCjf5DQrGwsPTCyIgpcICopI+0n+PAnP0w8NH0IIUQspKUjcg2RovAwtDnvkOsQaAhIp+XaG26DBLez+gIOIEVHRsiSRBxRnME7zib6fqwqCc1mxTsYIGIZH/WnMAK9x0MElgsem3OC8591gMjW5lf7PdYCSzOx7PAD8fjXCIqkcImpAFiH2AHQGTxyRxnThwW4JC/EFhsEFWk7AWjnXBgQULhIOJcpNiT5pdXai7RKLxrRHBj7xANBtHE79gApEdahWWcRkGBeNOwo50QVLzPbKRGQrIxP9M/dFiYs9EHJbqa6Giix31LLgSSjcDiPWOegbzCFsUmtEJGPLtEzmOvkhnBuxG50HcCK7meT29t7AhkZW2Rv/6iiBi6WBViP9D3dASSBIGUJbAgiDC2ECWNnKQwGPFYEpWUH4GFDhOpbMGQYyZAjoc8IpIIcgsiC4IDLSfIEhZpGKTRCKzgs0FqHp7YYAodxA3eWyK7uB4eYlIRTEjcCCxK1FslP65vJa0jjXGLrMIwhQgjbY9zYrzyu+lfBSf3aOSOGdSQhJwPjCF7IktqQ2AR1QVGBRFYpGSaB5zrkhKBMQzxBo54g6ORaexvFQxJhwBH6wfkE2mQkHRoiwQrEBpJl5cBQ9Ulrk/01pFHHqkEH/fSjZ0kGdUS2EwnsKKDbdEkEFhEbbLQCEZ58k6zeEYzi6jQVNicwAr3XQwSWMxNPIM4WphjIjeeX+Z+5jLSDAsTgcV1cEAR0USkN//nWuhTEcnEvEsENRFTXMOIItoAWYTWZX4EFk4uosCZ/5n7cYJhS+Q1R9FuyDPOBwmGY4e5n9+NwKKPpAuS2hi0d2iPRX4xh6IfhHYX+2K38MlGpBkRWdgBEGSQBszFrjEU7vchsnXJRmARhU82A/YxRK05gekXunG8R9i6Jtge2V+36ZLr+fTW5o+Ards2bNgoa9euk3Xr1kq5cuWlVq2aUrZsGYfPEUgpBFKOwIKgIa3MUlhMXypYeQdtCIxW04Ug4gavKBspiAid41Uklz6SwGIfopkiCSwisJj8MVC5NoarGYz5PTG0y0TZ+Z3rYvxRRcVS5iCmLBrMvEhEmJHehiHL8RA1EFx5GZ82SXN+iCLOS2Qa2l2kQJJSQLujEViRZBbeWzCG1MFAoK+RGxFinJOUA7DCiI+MwMLTTDSYEVhmKEMcIYz7zTffKJEEHkR75bVZ2zjWRGVtkYzhMn78eDVkEK23tIig0ZKXAYPAPukctJ1INXDCy+2bIxCJgBNY0Z8JG09YZPMOEUUSqU3CmMS7hs6dafsk81PmBFa4714kgcW4ztxEZFVwC84LkDMUUGHOjSUCK0j6EJ194403avQTxBQLafvkeSfNjmjmoIMkSGDRDua/yAgsyCRIML4nuotociIZoy3Ief8glpj72Y+KoUZgkUIIgUVUOrqT5ggzPOyc2DUQztgLHEsFZqKvOSfjIHNt/fr1NRIGx08w5THcT4W3zhBIJgKLeYVnGgcjJK3JXfD88p6RbUC1QXt+83o3nMDyZz+VEGB+W716jaxatSr7fdiyVTIyM6R69RpSuXIlycx0caxUut/p3pekJLCyi7ZrxdCcjb8xic38YqYc3b27LF+2XLr3OEaeffY5qVyxYvbOW7O9iRh7RDgR9l6hQnmZN3+B1N6mxfLYkMfksn79hPDLIUOHyqmnniLlyiKM9/cGgdW4aRP5ORiBtVN1TXn7V59/yZRJk6VDx45q4O3aoAEXla1CpNBWKZORoWltS5cv08EFD2a9evXI+5OtGRny4YcfqBDq0iVLpNsRRyi5s2rlKqlXr6689trr0qZNG/VqQsJdfsXlMvzJ4WpMPvvcs9Lz2J6yZeuWbJ2NrdnpOj//8rN8O3u29h2iCxF4BrFbbrlV0xvKlS8v9957j1x84UWyhTZs3SJlMsuwu3z51ZcyefIU2bhxgxruR3Ttpv34dNIk6XTwIQpI73/9S5588gmpVLGSHmP3Zdyrr0qv3r1kS9YWadqsqXz6yadSo+bfGljocf21YaO03bO9fPTBR7IjHnBKamRkyG+//y6nnnKKvPPO29KgYUMZ+9JYabut/PfmrM1StkxZvdffzZ4tP//yi2Rt2SLNmzVTokxvs/Zjq6YnQbDhoUbkHl2ySIMlLwOGxQZpm5CBRIeQOuGbI5AXAk5g5f9cGMHMopz3ineSRX1wkc+Cg6gQ0qAgtG1LxsWFE1jhHieCBJZpYOEoCVbms2fTekIhk2hVCCG38tLAsueeT0hbCCfsjmnTpqnjDMcT7wQEGlHbRJBARLHFQmAhFk+bmePRpKKNpmsVeQdoA/Mg7x77M5fTDkshNAKLiGVE361Cm71/QQcWDj4KuEBmYUMRhUV/OJa/4TTib5b2H+6nwVsXiUCyEFik0EIMkyXB+8Jmzylpg2QGULyI5zAybTDY52ScY/ypdQSiIcCz/ttvv8vaNWt1raZOhC1bJbNMps4v5cvnXss6ko5AMiOQlARWXoArebJ1q2zYuFH23XdfmTXra6m6005y79335GhD4ClcvmKF9Ot3qbw8dqzyJeXLlZMFC3+SWjWzxYSVwLq0n5Ii+RFYjZo2kV+2EVhEcNWoUVPW//mnDH38cbnqiiuU9b7woovk9ttukx132FE2bd6s58dAoGrRosWLpO7OO8vgx4bIgR076nfrN6zXqkKvvjJO9t53Xxn+5JPy3vvvyaWX/EeJnXPPO1e1MfDc0hcihbp06yYrf/9d0xKGPT5MWjRvrkQURNaK5SvktNNPlxnTpsn2lStppNR/r7lW2zb186lyzDHHyG9ESDVrJiOeGi777LOvflcmI1N+/e1X+Vef42XiRx9JmbJlNRqNtpUrW1YWLlok++67jyxbukxq1qopTzz5pBzT/Wi9Lu1ctGih9D3rbHlvm0BtJIGFt/eADh1k8cKF0rxFCxnz4hjVzYCIYwDmHkI4XXnFFRrtdvKpp8jAAQOkapWqkqlkoKgH+eSTTtIy4XjbIAu7dOmSY8jwCyXOMWIw2vFgo9kRueVlwFx00UUqiEvEGNUL0TXzzRHICwEnsPJ/LoILecYsUpaIrsRDaFolnIF3H80cFr+MBWzJmH7kBFa4x4lEEFggEExXDxJBpMWT9kS6O84Rfud7IsfRsOL3WFIIWcATSQVphHYWC3mioYKR5nZd5lCcYkgF8D0p/8znQRF35uT8CCz6xPkgn5lTIdCIbKYaIcS0iclTfIb327fkRCAZCCyefarYErVLFJY9mzyfROrzDBLVGxk17xFYyflMeqtjQ8DmnM2bs2TJkqWSlbXZYgL0s1q1qlK1apXYTuZ7OQJJgEDKEFiGNS/xoEcekRuuu07WrlsnNWpUl6OO6q4V+PCETvr0U5k+Y4aSTZBKRCVBhlh6G9X8rFw0RiXGXq60vK0if236S6N98OBCniz86SepVbu2ki+QWaQdol+F94ew/M6HHabfcx2MyIWLFkr5suXlkv9cotE9pLaxuCP0ngpAW7Ky5JFHH81Z6OEhfeuttzSS6FGr/lMmUzZt2qwVBiG1CLFqtVsr6X700dKkcWMl4Ki8h7A8DDwTOuQcRicb14PQueP2O2TDxg2qQUO6HhFheIc//uhjmTptqmRtzpLOh3eWQQ8/LI226dSAHR7dBx96SDasX6/M/jE9ekj9evXk119/kw8/+lDT/8AD47l582YyceInijFGBBoaVF3C+CX64tgex8puu7WUatV2UnKvdp3asvKPP+T8Cy6QsS+9JBW2205Jya5dusouDXaRxYsWy0tjx8rMGTOkQvlycuqpp8ntd9yhZFpwA2+MbUgu7gMGT2QqYqRRgyg8Oh8IwnOP0UnDw+2euiQYzUqhiU5gxQ46YzPjDsURiAZB8Jm/BVM8iA556KGH9H2NTIeO/Uqlt6cTWKWHfSxXTgSBxTPNIhsyliImaEHh/AlGeUE8PfHEE1phl/2peIyWD888BBZV0yC42JhrSdkPirizD1U80ZejT+hPEcFI9AmbRZ3wSVQVzivmQeYynDLYA7x3VoXQCCz+H5lCaCS0CWTTZqqLQpwhDs9czzvNHE2fGzZsGMut8H1CiEDYCSxkHXhPiARkLrHnnHcDOYz+/ftrZGDkMxwNarfrQvgQepOKhMDfzkKRlStXqZOQ51sLilEMa/vtXAerSMj6QWFFILUIrOw8Qlm+Yrn0v+NOeerpEbKOan9UJsHLn5EplStVlOP79JFJn06S73/8UcpXKC/z5y+QWnWyNbCGPDpYI6g2bN4kw4YOlZNOPuXvhdS2NMRNmzdJ88ZNZPEvP0uF8hVk/oIFUlM1tLJT12Z99bWm5aEVsemvTZqLvHnrFsmQDA3lrLLDjuoRvfyyy5TYksxMmTplilZK+e3336R3r97y8KBBUnWb7tP7E96VE086SX7/4w/Zb+995LkXRknDxo1lCxFly1fI0CFD5PGhQ2Tp8uXaV6KUymRmSmZmGZ3IDzn4YLnltttkz733kgyo+OxgNVmzdo08OugReWzwo3rs5qwsTXMsy7GUrsjMlC6dO8vd994ru7XaTaOr9NgtW+XnRYvk1ltu0dRF0gQ3bclSfNkFg737Ud3l448/kiVLl0rLFi3lo4kTpfq2FEIMj3ffeVfOP/dcWaaplFska+tWJcAgtdpo9aIMWbBgvtx1551KxK1eu040fXtbeiDplpW331769O4j1990ozRs3Cj7HdvWRn5FNLpfv34anQVRidAtqUpBoyX4O/cO455oLY5F9wQSMxkjQcI64KRau5zAiv2OBhfVEMMswPlkfLRFN+8a4tQs2iGS86qqFvsVE7+nE1iJx7wwV0wUgYW+I44nbABIKRwzOJqYh3jGicRCSxJxddpEFTVILBbizI+kFJ5//vn6HU40dLDQeOT/JkgNIUXKHgQSZBJ6WjjfcHQxrxGdggMLJxfvGee+5JJLckUiG4G1dOlSrZAYjcCy95PzohnWrVs3dQha0RQcVRBukFs47nzOLMxTGZ59w0xgIfmBg5fofJ5tm09Aj2IIkFfIRFg1z1hQdQIrFpR8n2RDgOqDkFjMFegem4B7YHmUbF3y9joC/0AgaQmsXDpY/MeImb/+koyyZVQj6p3x4+XZkc/JwvnzJWvrFqmzc13pedxxKjh6xRWXq+G33fbbyyvjxknV6tUVnJfHjJFBAwbIX5s3y7VXXy2du3aR7bavmK24BYGSkaEGZq+jj5aly5ZK2bLl5I133v5HZM/KX3+TF18YLR988L78NH+e/Pnneilbrpw0atJEDU1S6LbfbjsliTZmbZaH73tAxox5UapUrSp33tVf9txzL03nky3ZUUwsjN6bMEEn7bPOPFP6XnD+tjZlyMYNG2TyJ5/IqOeek2+//Ub+VLInQ2rVqSMnnHySHHHkUSrip0alclDb0MvIlA1//imffvyxPP/8KPnx+++ECCQMXY7tc/wJcnSPY6RG7drZbbENEmlzlvyxcqW89fobMvqFUTL/p5+kTGaG7NKgofTp8y856OCD5eqrrlIPdKNdd5Uhw4ZJlZ122kYyiWzetEmmffa5jBg+XOb8OEfWbVgv1XfaSR4cMECaNmuWTQZmZMq6Vatk/Jvj5eWXx8qCuXNlzdq1OiDXrrOznHveeXLQoYcoIShl6Bv36O924jF++eWXFe8//vhDI9pIDQxWhwwaMBhIpHGga2KEF6mZvjkC0RAwAot3i8hFjz4o+Fmx4hQUa6BgBlVHjcTiaLAkqtN0TPAgJstCwwmsgu9/ae7B/EnkNOM6VQjZ4qmBReVB1R3ZulUdL5deeqlqY7KQoErgYYcdpr8ToU1kFHYK8xH7QtjahvYli3GE400niwgTopgRfbeCJZpqf+WV6m3nvEQNcx3GIaoio71FxDMb+nIjRoxQgtjeJ6tCGAuBZW3jfERevfnmmzkkQq1atWTcuHEaheXkVWk+4cW7dlgJLByKEKQUMwo6PHiOefaI2mUuxnaNdErmh0iyzCvFu6t+dLohwHLYIrKctEq3u58+/U1+AkujrrIka8MG+WLca1KnejWp1HBXmfvRJ9Ko3e6yqUJ5mT3+XdntoANl9dq1svH3ldK8w/7yw9TPZTsIpY4d5Ms3x0v9XRpIhbo7yw+ffCJN2rSWTeXKycLPpkqrww6RX+bPl42r10jT/feVHz6fJhXLlZcmh3aSmS+Nldr16krFBg1k7qeTpFm7tvJnZqYsmDpNdj/kQFn041zZsmad1N+9lUwf/7bU2nlnad3jaPnq1delTr36sl2dWjL3s8+k0R57yIa/NsrPn8+UVocfKosX/iTrlyyV5gcfJD9Omiw7Vt5Bdjmwg3z5+htSt0ED2b5OLfnxk8nSkoqHGSI/TZ8hbQ4+UJYsWCB//rxEardqIXM/nyZ1GjWS+vvsJd+Mf0fq1q8vFRs2kB8+mihN27eVtZs2y7JZ30irQw6WxXPmyoY/fpfGe+8h7498Xpo0biKND+sksz74UOo1aiSVGtSXOZ9Mlqa7t5ZVGzfIsm+/k5YHdpSf58yRv379XZp2OECmvTJOdtqpmjTs3Em+e/dDqd+sqWzXoL58//770qJ9O1m1YYP89sNc2a1jB1k0f56sW/GrtDjkYPnuvQ9kpxrVpXrrVjL7gw+kXtNmUrF2Lfnhgw9ltwP2V5Ls158W6u/zZs6QFT/OlX3/1Utmfz5Nqu9UQ3Zq2VxmT3xf6uzWShrsva9ImbK53l6IKyKpiL7CE06lJNInlMbbRnragoN9ILBI7yDlA6MIIss3R8AJrPg+AyxCWOiy4CfyhMWwpSjxPvIdxS2o5EpKdrQy6PFtVfHP5gRW8TEs6TNAXFGFeNGiRXoptCTzq0KIQDrRVKQFQv4gWm7zB84OoqsgmiCP0IYKak+R6nTvvfdqlb9guqzNPaS0o7mIMHpQ+JxUKYgqqgfagp13ok6dOkp+8cn/cTghS0AqISnzXINzs5A3TRQiUqgKSPRVpEOGCC0E6mkfmKDNlVcKYfCe0J6nnnpKyTkizbge0eOQYziXfEteBMJEYNk7AmFK2iC6baTO/r0wz9Cql0TrEokI0evkafI+e97y+CKwbXmjJw2SWMFqnfYuxffKfjZHIDEIJC2BlQMPBNbmTbJ59WqZeNsd0qxZU9l+j3byw3OjpeUhB8nqHSrK4jfelna9e8qCWbMka/EyaXliH/nylXFS5f/Fv5ueeqJMG/CoNG3eTDJb7ybfPj9aWnQ6WNZX3E4WvfaW7HHy8fLjl19K1vJfpUWvY+WLl8ZKrUo7StNzz5Yp99wn9RrtKhV2by0/jnpJdj/0EFlZcTuZ+8prsvcpJ8qcGTOk3IqV0rzXsTJj3CtStVJlacFx/e+RZi12k8xWLeSHl16WFh33l1Vly8ryNyfI7icfL99Pny5bVvwqu/2rp3z5wktSp2o1qX/6KTLpnnulces2UrFdG5nz7Ghpf+ghsixDZPG770nbk46XedNnSNnlv0nD3j1k5nOjpHat2lK/Ty+ZMWCQNG/TVsq0312+f/Y5aXlQB/ktK0t+/3CStDvlBJkzc6b8tfgXaX58L5k+4hlpsMuuUqt7N/li6JPSsHUrqbBHO/n+6ZHS5rBDZcVfG2X5Z1Nl917Hyo9Tp0vGL0ulxaknyownRygpV6tLJ5k1bIQ03aO9yO6t5avhI2SfI7rKsvXrZfW0GdL2uJ7y3fTpsvGXX6TVySfKtGHDpWGDXaXaYZ3kqxFPy657tpftWraU70aMlHbdusniVStl7ddfy+7/6iU/TJkiW5eukJZnniqTBw+VXf6/2ky1Th3li+eflnodD5Rmx/b5B4HFAD127Fj1zrGwIPUBg5+FgxlIGD0YRujuoH1F9AfGEvpZvjkC+SHgEVjFez54B4lQgaQiEssW+UYCkKLEAgXRXtJGwh6N5QRW8Z6HRBwNcYVgOZ88f0QCWuGA4PVtfoCkguQxAosqwrahTWlFCZo1a6bnMq0q04CcP3++3HDDDepEYZ6xKBFS9kgh3GeffZQ0ilx8Q4q98MILqpU1e/ZsdazUrl1bKwhaxUIj0tDefOCBBzRl0cgyCDEiotCbRCOLdykoKM+xvHM4bYhKY/579913c2lt2fmDuHAOSDz6TfQa5DI4UE3RI1oS8QSX3DXCRGDRSyIUIXghcnmf7IfveJ5Hjx6t5GxQH67k0PEzOwLJh8Df2lhb1eFANCNjtqWa+5idfPfUW5yNQGgILMLeJ0+eXPj7oumDW0SytkjWho2SWaaMIJZEiltGuTKylYyyjZsls3xmdtWrrC2SWaG8bMkixlIko3xZ2frX5mxtqDKZsnUTx5UVycrS3zO3K6caT+ycWbasbOG8GRmSUSZT/64vP5l+m7KkTNkyWrqU3zM5L9cg0qBsGdmiF8uQzPLlZcuf6yXD2mnX48i/Nm9rW5amRKKXtWXTZtXOoi8IqquRy3XYl37SMtpRoZz2Obt/5WTLpk3ZGY/lysmWjX9JRmYZRMCy9y1bRlMT0Z4i1ZDeCeeuUE6yNm3Wv4GBXpvrgQvYlitP77Rf9G/L5i0a/aa4ZGVJBl0smylb/tq07XpglJV9TzJEtm7eko0F92trdqqQ7lsm82887Xq0Ay8ybdNzZJ9Ljyu/rZ18V66MbNn0p2SUKS8Z5Svm8jTYYhjDH30EROtZKKCLRdQHqRvmxUZMn4UCgz0VlUhtYpD3zREoiMCCIMWAxvj3FMLYn5eghgkkFikiVJCysuhmWBFBQsl0NIEsdSr2qyR2TyewEot3Ya9mzxz6TbYxzkdbALM/Ka+k8bOxXzBSir9bJTS+s8pn9uxaRBT7cU2ec/5Ws2ZNjVZif6u+m9dCgneB/YMpthwXuS/7cA3aSio8cx4RjLSV85uWnEUbq/GXkaHnNT0h5sJg3wyf4HvK3yw1/5xzztEIMNIiX3311UJpDxX2vvn+iUEgTAQWC200r4j2QzMu+OySNkjRgh49eqidxrPr0SSJeUb8KsmFgDlS1q5Zo/OClSZkDkJCxwms5Lqf3tq/ESh1AovqgEyaeArRbChy5SnTwbJYSQgpCJ7/JyS20TzZcZQwItu0rPhFvzdBLXSeOE73yyZZVFspGIuZzftt05HKJq+yrxHYOM524c92zmDb9PdsEk2vl520rG02iapc58jecVssqDU4IjZUz4GITPY5INO0tdYeazuX3rKtn3ZebePf3UIkPUcuy/pvbc6FgR0T6E9OW7dhYv3Ltpr/Bsr6nPO3bd/lin39W7IrF8g5u0INQiSWVaIvaHQHDR5SMhDOx5vOogFRXP6P0Y93j3QNvH14owlXx0Dygd2HyvwQYPFHBBbaLywQGcesyqcjlz8CkYsN/k+qCAsWiGQW7rYo4TsqtfJuQhDxu73bYXtHncAK95Mf9EbHopWT16I42nH5PYvxWFwX9RxGQBX1nYkksEjLJ32QSGbe0WHDhmmKpadvhfvZj6V1pU0Zc/RBAAAgAElEQVRg2TMOMYq2G7aZEcT2HQtvtLCIvIK8inw+wzYnxIK77+MIlBQCZlvxTmnwxTaNRtZBRPR69GJJIe/nLWkESp3AorQ0uhGE0UNgFTXqJYejyeF2jKCJDUKdBCPU7nKRUnnwU1HPHDyXtidw7lxk0t+EUXYo1TYCa9shOQQX/zdiyxoVcZ5c/w38J/JyMbU5j520eTTD2pYHODnC+kaeRVEPDHZBOa0c1in4nwjAc0hA4/e2VVPMpq8kU3+ib3iNSeUgyo/FcYMGDaRz584aUksJcHRRCEknrQOxXDeCYntv0nkvoh0gsIg+YNxiHHMCq2hPhC1C8LTfc8898vDDD2vKVpCEJjqEKCzIZjSA7B0N07vqBFbR7n9pHxW5CM6vPXkRWGF6BuONZRAb+kkK4xFHHKGpKI0bN9bxD20w35IfgTAQWDgbcSJCUuFgtDnAdBHRlCMlNpqzO5XfxeR/wrwHpYEAznmif229lR3nkKGV7olq980RSEYESp3AQjwVIV8ILIgEC8EvLJjRCJxYzxOIacp5yaMdWyApFI2kyof8yRV1FSR07PdobFpkIwvRkRzCqSCQIKS2BYblkETBPm77PfLSwabnIsAKul5e3weuQUTd39fi92wCK7/NtBPMAxHU2gl6tiM1eIrSVD8mPRBwAit+9zn4DrKAGTp0qIpfQ2Kp0bXNcwhRePzxx6t2EClSYYv6cAIrfs9EIs9UVAIrkW0srWtFRnCh54UuHVGnaIM98sgjRbbbSqtPft28EShtAouxn1Ry0gZJuQ06KerWravODQTb80p1zbE3veyaP96OQC4EWNes/OMPTflm01T4CtvJjlWqSIXtKjhajkBSIlDqBFbr1q1V+HSvvfYSSjqjdxJZBafwyOYkz+UcWlj+J9b9C9+2cBxRIAmXRzOLe0xRjo+OVpAuC96tol0luIAOGuzhuFveijAiQPQeEVhU0KNaJSXriezzrXgIYGwRicUihiqEpCwFveqQVt27d9cqocGItzB43p3AKt69L62jncDKZ6YNVOv96aefVHcIEXeE5F988UU54IAD9OAwvH+l9fykynVLg8BSbVoRjehDf5TKnVal1hyPpDpRpADnhac8pcrT5v1IJAJEMxKFxTuFgHuwqEci2+HXcgTihUCpE1gQVzNnzpQ99thDK+AQzlicCcoSy7IB+icNlerEVLwejOQ4T9HIquTom7cy7AggiAmBha4aVS2dwIrvHQNfFsiXX365rFq1KmeRjAFGJNbRRx8td955pzRp0kQjscKwgHYCK77PQKLO5gRW/gSW4UNkJAVQ8OQfe+yxMmbMmOxiLBSECck7mKhnJhWvU1oEFuQVUbXoH+K8sI1ninRxonF79eql434YxvlUvPfep9RGgDEcpyvr66JK9aQ2Qt67ZEOg1AksvHeff/65tG3bVt555x2tzlNUsVLAj5bGFnljnMhKtkfV2+sIhAcBxijK3Pfu3VsmTJigBNaXX36p+mm+FQ8BG/9J0WRhPGXKFOnTp49WV7PN9iEC64033giNBo8TWMW796V1tBNY+RNYfAuJTLXe9957T6PkedaJxrJiC+zj5EJpPcHxuW5pEFikClKgg2q+vIcWkUWPqLg5evRo6dq1qy68/fmKz332s6QvAp5hkr73PtV6XuoEVpcuXTR1EBFQxEAbNWqk4cNFjcJyAivVHlHvjyMQPgQwAvAaE4H14YcfCtVUGcfQZfItvggQ+g62F198scybN08XOUEjDP1EtFE6dOigC2sWQEWdP4rbciewiotg6RzvBFbBBBYYURHOCAa8+AW9Z044lM7zXNSrJprAwglE5VnSBk3zyp4Z0gYHDBigkbakO/nmCDgC8UPA7CjW24i8Yzsh4cPfw6YtGr9e+5lSCYFSJ7Dw4L3++uvSokULeemll5TIsnD0ogDtBFZRUPNjHAFHoLAILFmyRCODqGzZvn17ee211wShWd/ih4DNBSycZ82apVUIZ8yYkUNgWSQW1dAGDhwo3bp1Uy99aRlgTmDF794n8kxOYBVMYBXlfjiBVRTUSu+YRBJYOICuueYaGTlypKY2sfG8sJBGowdSi8grBNv9OSq9Z8KvnJoIMOdBGhNZa6mFtWrVyinI4e9cat73VOpVqRNYJ510krzwwguqYzJq1CgVcy/O5gRWcdDzYx0BRyBWBBYsWKAphKQOduzYUVMd8Br7Fj8EIiugkW7+3//+VyZNmiQbN27UCxEFwn44QdBROeaYY6KWWI9fy/I+kxNYJY1wyZw/VgIrHY36WLHJ686kI14l84Qm5qwlTWDZswR5deutt8rgwYOFVHE2i/ygOED//v2FtYGnDSbmvvtV0gsB3jWIK7QMLaKWv+2www5KHvu4nV7PQ7L2ttQJLNJCHn30UU29oepU586dkxVLb7cj4AikEQJU4oLAIq2NTzzGaGH5VrIIgPuNN96o2lcsfjC27AcNMipZERlXGmknTmCV7L33szsCjkDJIVCSBJalLEFe3XbbbTJs2DBNXWKzBTMSIjghEGyvUKFCyXXUz+wIpDECRmAFKzwbgVyjRg3VnvPNEQg7AqVOYDGR3XTTTcJLM2jQIDnhhBPCjpm3zxFwBNIcASZ7xMWPO+44+fXXX+XCCy9UUWM8WL6VLAJg/9NPP0m/fv1k3LhxerGgkDQkIh58hIETXbXKCaySvfd+dkfAESg5BEqawGLBjL0/ZMiQnMgrG7+JXn7wwQdVV7I008BLDl0/syMQHgTQFl2+fLnwaRsRjzvuuKPasaUlwxAehLwlYUeg1Ams4cOHS9++fTXP/a677lKhXn9xwv7YePscgfRGAOFLqnH17NlThY0hLiBU3Gtc8s+F6V7Nnz9fF0MvvviiLoaC6YZVq1bVKK2zzjpLDbJEbU5gJQppv44j4AjEG4GCCKziVAgnZYnx+vHHH9c5M1iMo06dOnLfffdpJDNzaHF0cOONiZ/PEUg1BOw9RgMLByz2LGtwbCU+fQ2eanc8NftT6gTWu+++K0ceeaROZldccYWGD+M1980RcAQcgbAiwIT/3HPPyemnn646HU8//bRqdrh2QMnfseAiau3atTpvPPHEE2qEgb99jxF2/fXXq2YWi6JE3BsnsEr+/vsVHAFHoGQQyI/AwklgmlRBXbTgmButVYhEn3baaVppHPKKsRmSimNZMI8dO1blQ8qVK6enKA5RVjLI+FkdgdRDgPeMqEiqD/Lu8V4mwk5KPSS9R6WBQKkTWDNnztQyuUuXLtVoBvLiXUemNB4Fv6Yj4AjEioCV/6bMN1pLL7/8snTp0iXWw32/OCHAIghNlYceekh/0FSxBRXGGMQVUb2XXnqpIA5c0saZE1hxurF+GkfAEUg4AvkRWIy1RFFRSKNBgwb6w9xXULTGypUr1ZHw5JNPauGNYKQsgtEPP/yw2v6R6d4lPVYnHFy/oCMQQgQiyWgnkEN4k7xJeSJQ6gTWokWLVPcKPZmWLVvKm2++KQ0bNvTb5Qg4Ao5AaBGAcEf/6rPPPtMCFOPHj5c2bdqEtr2p2jDz1K9bt041FO+++25dZJlRxicefrz/pK/Ur1+/RKFwAqtE4fWTOwKOQAkiUBCBNXHiRDn11FNVIwcCi6rhOKD322+/XERWsNogEbBEKBN5BSllkVeMxTgdunfvnmfWhRNYJXij/dSOQAEIqCyDiJQtU0Yy2DdD//XNEQgNAqVOYJGDi4d8xIgROolNmDBBDjjggBL3lIfmDnhDHAFHIOkQoBIe4xQRPwceeKC89tprLnxZyneRqDgieCGRfvvtt5w5xEgs9FUoGhJ0kMR7keQEVik/BH55R8ARKDIC+RFYjKODBw/WaFbStdlIO7r88su1aEYw7c9Sk5AEIcKKxbBtRGzVrVtX7rnnHnUC4WCwY/OKBilyZ/xAR8ARKDQCvNt/rlsnq1evlowyZaRmjRo5qb2FPpkf4AiUIAKlTmAxYZGGg3ccLzqTGpomvjkCjoAjEFYEKD5xzjnnqCbIJZdcIvfee68SJvEmRMLa/7C2C0Lx2WeflVtuuUV+/vnnnOqEVtWqR48ecuutt0qrVq1y6WXFqz9OYMULST+PI+AIJBqB/AgsIqiuuuoqJaSw2yGiypYtq6LsaEEGCawVK1bInXfeqdqE6F9R6czmRhwIEFuQV6R4ByvIBvvrc2mi775fL90R4F0lgn3D+vWylfCrzAzZsfIOslP1ndIdGu9/CBEodQILTKZNm6ZphKQTtm/fXj7++OOEie6G8J54kxwBRyCkCGCkY4xjsI8ePVoqVaok48aNk06dOhWoBRLSLqVEs4KLJ1JUEAU+77zzctIJTRcLwrFjx44qwE/ZdtNviddiyQmslHicvBOOQFoikB+BRVQrDoDJkyfnEFikEZIeuP/+++dEaSAKTaQrKd2MxcHiGrVq1dK0wT59+ij5xRaMunICKy0fO+90SBDgHYfAIlkwM7OMZG3dIhXKlZMaNWv+Q6MuJE32ZqQxAqVOYDF54dk544wzchaEeG2OP/74XGKPaXyPvOuOgCMQEgRIhZg0aZKcddZZMm/ePCXc0QWByIoXCRKSriZ1MyAZqXBLeguLMivLbkQXeotEDuy77745C6l4dNgJrHig6OdwBByB0kAgGoHFuDl37lzZc889hVRt20ijHzVqlOphsQ9VYW+44QZ56qmnslOQMjJyIqwozkT01rHHHqtVz/Ijr/jO59PSeAL8mumMABFYy5cvlyz0r7Zula0ZGVImI0OqVqsmO+64o2cZpPPDEcK+lzqBZZi88MILOWHIRxxxhHrIWRT6RBbCp8ab5AikIQJM6KSoYaBjiEOK3HXXXZryTGSPb+FAgPtkhBXk4oUXXijffvttLp0VFkeNGjXSeWafffaJW/ScE1jheAa8FY6AI1B4BKIRWDhuiDg+5ZRTdBHLfMcYSxogBBaRrEiAnHjiifL+++/nVBs0Agt92+eff16OPPJIjdQKRsxGa6UTWIW/f36EI1AcBHgvqRoK+awEs4hUrlhJqlTZUcqWL58t5u6bIxASBEJDYJE+SKWojz76SKpUqSIjR44UiCwmSp/IQvK0eDMcgTRGgMmd9AnSH6hC2LhxY00fRE/Jt3AiQPoKKerXXHONRsqpV3Hr1hxP4s4776xkZLRKWNYrEy2m6Ahk2MKFC6VLly45XknbzwmscD4H3ipHwBEoGIFIAovxjA1yipRsHM2Wjg0phWbtRRddpItePseMGaPEllUaZF8E26kO26tXL5UGidzcvi/4vvgejkCiEICs/v3333XtXblyZU8dTBTwfp1CIxAaAouXBm84kyCTJV7xl156SUvU+wRX6PvqBzgCjkCcEcAr1bdvX9VX2n777VXQ9rrrrvMKLXHGOd6nYzH11VdfCeXcqXJrmiy2yNpll110IdazZ888F1jMTTNnzlSykvTRxYsX6xxF5dzDDjssV/SWE1jxvnt+PkfAEUgUAtEisH799Vdp27atLFmyJCclsEaNGjJ+/HipX7++jq3PPPOMVhs0XUHaXKdOHbn//vs1bZBqg3ltbt8n6u76dRyBghHAwcd7DIEVfJcLPtL3cAQSi0BoCCxeGgTk0MJiUmTDa37jjTfm5MsnFhq/miPgCDgC2QigqfToo49qtVQ0QBCtffHFF5Vg9y28CFi0FWTVnDlzVBPr7bffVgPNqkbySSTWzTffrMVE8DoGN8gqiKn77rtPIwusAhcEJhUNMfLM0AsSWFRC3G+//cILjrfMEXAEHIEAAlRupbouYxykFJUE+f2TTz6Rww8/XPVqjXBCDwsnM6LsRLGyWeo2n9WrV9fqvGRW5LcQdgLLH0FHINwIBAstmP0T7hZ769IBgdAQWDb54eFmEYGnh0UFiwby7AlXdjY4HR5J76MjEB4EmKyJ2DHhdlLHIDiGDBmihSZ8Sx4EuJekqhM1hx5LMM2FRRSp63yHZhbRArawYj/SD4866igtCc/GudBzGT58uC7UTAMtSGAlDzLeUkfAEXAEciNgBBbjHxUFL7vsMh0z2RgbiVglPZBIVMTbsc/te6KzcD5T7GSHHXbIOXEs2ld+HxwBRyBcCFj1bZx5/E5BBieew3WP0rE1oSKwbLFIKDKphCwWeFEQjyRVw14YnwTT8VH1PjsCiUcAg/ybb75RjSRSxyAqLr30Uo3WgcjysSjx96Q4V+R+rVixQs4++2ytUkgkVnBDYPjqq6/W9NDgwgvii2eAZ8E2NNCYq4jGs80JrOLcHT/WEXAEwoIABBbjGYVLGA8fe+yxXJXBIe7RyjFHAGMnzh5sdubH888/P64VXsOCi7fDEUgnBKx4Ee+6Ra7XqlXLM6PS6SEIaV9DRWAZRqtWrZJrr71WvdsbN25UkeQBAwbIoYceqgtIXzSG9GnyZjkCKYQAhvmsWbM0IufTTz9VDzPRoA8++KDqfrgHKjlvthlkLLIeeeQRTYsJhshzn6ksyaKNRRobizgWZOg02sZcxBxFZa68CCxScVq3bp2cIHmrHQFHIO0QQOvK0gYtAouoYyKpPvzww1xRqzZm2jxoUayMqaYnaE5pUhMh/2vWrCl77723Z1Ok3ZPlHU5WBIiuZFwIFsChGEPt2rW9+nay3tQUaXcoCSywRWcGLzmCybw4LBgff/xxzcO30rwpcg+8G46AIxAyBCCvqDh45plnyty5c7V1FJagCtOuu+7q5FXI7ldhm8OcQjg81bFIU0fjzNJfOBfRBCzC0D2zcPkHHnhAdRmD+1GZa/DgwTnPQ6SIO2mHwc1Jz8LeKd/fEXAEEoXAvHnzpGnTpjkaWOj4TZkyRSvvLl++PMd5bOSVVQm3yKsnnnhCq7MyRn7//ffyxhtvyKuvvioQWCyEkQdB1J10bR8LE3VX/TqOQNEQMGcf7z5bUP9qp5120irMvjkCpYVAaAksXhQWjkRivfbaaxq6CONL+g6ebfOMlxZwfl1HwBFITQQgNkaOHKlRnz/88IN2kjSxgQMHaiUmM9pTs/fp0yvmGBZV6JlBYtkCzRAoW7asLsZYcLVs2VIXckQBE7Flxly7du1UH8vSDZ3ASp/nx3vqCKQaAnkRWMyF5557bk4BC4inYPSVFcPo1auXtG/fXiOtqNpKyj0ZFDgHbLzcfffdZdSoUZpV4Zsj4AiEFwHLdIKcpsAadrG9+2hSswaPVlk0vL3ylqUSAqElsAAZL84vv/wi//vf/3RByURI+fpu3bppiscee+yh/+elsuonqXRzvC+OgCOQOAQgJmbPnq0VlagwuHr1ao3EQfvonnvuUc80m3uOE3dPSvpKGGncZxZVVJhEH8vmE64NiXX00UdrNS0isZhzWJjZggwvJDpYRFoxB/Xv319uuOEG/f7111/Xvwc3f3ZK+o76+R0BR6CoCEBgNWvWTMcyUggRYu/Xr58MHTo06imNwMIWX79+fa507EiiiwUvDmk0bX1zBByB8CIQlOrBNsbBx7iA9is/kFi+OQKliUCoCSwDZtmyZapVwiTK77w45NKfdNJJWgkM7zgvlC8OSvNR8ms7AsmDgE3OfGJ0//jjj/L2229rtSXSHfg7Hia8yv/5z39Uy8i195Ln/hampdxXCoa88sorGvGL5ktwQ++BkvE8GzhSmIssqoDvSHXnO7bbb79diTAnsApzB3xfR8ARCAMCkQQWBS2Q7Zg+fXq+BFa0L4PagkZ0EdmMrqRXFQ/DHfc2OAIFI2CphGQfYPP4WrtgzHyPkkcgKQgs0yt5//33NdWDydQ8PU2aNNG0jq5du6pGDcQWURN4zn2CLPkHyK/gCCQagYKIpPy+x4NEOjI/f/zxh0ybNk3FaSdMmKCpD0zMjB0QVhBXEFiVKlXKGUt84k703S6Z6wWfEZ4J/s8z8fzzz2t0L89GpLD7wQcfrA4TxN0RdWd+4XkgHeaDDz4QorE8hbBk7pef1RFwBEoegUgCC+0rCCwqkOW3RZsXbcFbtWpVjezq0KGDRjSTku/2ecnfT7+CIxAPBCKJ6Hic08/hCBQXgaQgsIKdRLOEdB50S8jLJT/X8nJhhqlwcswxx0inTp1UbJloLQgtJkt+TL/GvEGcO5jTb/+PBNYXrsV91Px4R6B4CAQnUSMggu8lf4OMQHeD95yN/zNG8EmUDSnJEOHvvPOOTJo0STWQzJDmXERynnzyyVoGvEaNGnqO4FhRvB740WFBIJLAsnZBYvFs9O3bV9MJgykwwQWX/Z1PnCZjxoyRAw88UCt4eQphWO6yt8MRcAQKg0AkgVWvXj25/PLLldwPFq+wQkrMrZFzJDY36YSkXGOHUwwDJ3PFihVzRW64TV2YO+P7OgLhQwD7h/RCxgbeed8cgUQikHQElnnLv/76a61wMnr0aI2cMCKLRQb7MDkyYdatW1fF3/mdigmI7UJ0McmSj28TMQteI7mikViJvDF+LUfAEcgbASZN+2EPI66YSPkhvYsITaJk0Dfih4gaUgOpbho8nneeiKvmzZvLcccdp95hhLkZG4Lkhd+L1EKAewvRyfPCM8CcYKQn3yHYjvbLV199lSPabvNCkPzid44jvf3000+Xu+66S3Vj2FwDK7WeGe+NI5DqCEQSWNjSVGJl3gxuZjfzPQ5i7OsDDjhA/q+984CPqkr78JtKCSFA6NWCIDYQwY6KimtDXfvaxV6xgruoWJBdde0Fu9h1UWyoa++9gWLBhoUeWighpH7fc8JhL2PaJDOTKf/7M79gcss5zzkzufeZ933PNttsY3379nVf1IzkA6Hg+2boOZKdp/onAslIwEes877Ah8DcQ1Nyg/sobSIQKwIJJbBCU4N4UCUK64svvrBHHnnERVTwoEqkhf/EKBi14aH6T36q+12swOs6IiACkSMQ+mmuf237NC8vtbkif2wR2MjsnXfe2aUJcvON6OZm3Eux0PeLyLVWZ4oHAu+8846NHj3aCajddtvNpaFTT5G5wdf3339vp512mn388cdrow9Co3V9P44//ni74447XLF3RWDFw+iqDSIgAuESCBVYfJhz6qmnuhXIuN/2KfaIqR49eri/n3zos9lmmzlZhcjyHwYHr80HzP5vsf/7qgiscEdH+4tA0xPw9bB41uY52z+X8/onVZj7a20iEAsCCSWwagLCwyl/XDHBM2bMcA8eFOKdO3euWzmB/H2iMfgjzD4ILj555xP4YDRGaGRH8HqSXbGYjrqGCNRMIHjD6//t0/v8zTH/TygzN9JEUVG/ykdedunSxaV78ckwtfP4lJg/uL5mntinFoGJEye6YsL8PeChC2mVl5fnalqtv/767jt/L+6//3777bff1on6CyXVs2dPmz59ut18880SWKk1jdRbEUgaAqECa8yYMfbAAw+4BU7420odq80339wGDBhgvOf5bAYfvVobiNpqUyYNQHVEBJKcAM/b3BcRPMLmV23mHrxjx47u3lubCMSCQFIIrOpA8SIjjQhp5T898ilGWGM+EeIrWMvEpyLVJKsksWIxJXUNEaieQKjACkqs4Ke7fAKElPJf3GTzhZzgjyv76mY6tWcZ7/2k+pHyV1uULoXZfUqq/7QxlBzzkPlFSjtRwEohTO25pd6LQKISCBVYLEqB4F+6dKmT/NS18hEW3GPXR1wlKgu1WwREYF0C/r6Ze6H58+f/qbwCHxZzz6RNBGJBIGkFlpdRwcK7jQ1ZlsCKxZTUNUSgboEVLqPga7ex7wPhXlv7xx8BpBTF+idPnrxOceJgS3lQ40bNC0//u+r+DrAP6YZ8Ajl27Fi3q2pgxd+4q0UiIAI1E6hOYLF3dX8zEVhaSVCzSQRSh0Dwg1+ympBYvo4sKYRkPCiFMHXmQ1P3NGkFVhCsoi2aeprp+iIQewJ63ceeeaJckWjcESNGuBUpfYRuMKXc17qqqbZadf0ktYbVtkgjlMBKlJmgdoqACHgC1Qmsmj7w0d9XzRsRSG0ClOfhfYB6spRg0HtCas+HWPc+JQRWrKHqeiIgAiIgAvFNgAgCCpFSpP2VV14xirr/8ccfLiye9PNgymBdC3/w+379+rmFAN58800JrPgeerVOBESgGgLhCCwBFAERSG0CfnGk0PsjZTmk9ryIVe8lsGJFWtcRAREQARGICwL+k8LQRTzmzZtnP/30k82ZM8d4mKMw+zfffON+RtqhX02LGzc2wuf9v6kPwwIBn376qQRWXIyyGiECIhAOgVCBNX78+HAO174iIAIpSCC4yrePXudeiXRCRWWl4ISIUZclsGIEWpcRAREQARGIDwL1ualCWJFeSK2HZcuWOTH14Ycfui9EFyvxEK1FpBY3bVtvvbVbnWvChAkSWPExzGqFCIhAGAQksMKApV1FQATWIcB9FaUYCgsL3QIPrPKtmliaJNEiIIEVLbI6rwiIgAiIQEIS8IXafSi8X7GWTxoRW7Nnz7YffvjBfRGtxco7Bx54oD355JNahTAhR1yNFgERkMDSHBABEWgIAT7I40M95JWPyOK+iPpYSilsCFEdUxcBCay6COn3IiACIiACKUcgGKVVW8RWMB2RlJuLL77YsdIqhCk3ZdRhEUhoAhJYCT18arwINAkBhBVR6sgr7oe8wMrKyrIOHTpas2bZTdIuXTS5CUhgJff4qnciIAIiIAIxInDVVVdJYMWItS4jAiIQWQISWJHlqbOJQCoQQFpRTmHBggWuTmhVbdE0S09Ls9zWra1du7aWlpYKJNTHWBKQwIolbV1LBERABEQgaQlIYCXt0KpjIpD0BCSwkn6I1UERiBqBpUuXGl9VW5plZ2VbXps8y2nZkv/VJgIRJSCBFVGcOpkIiIAIiECqEpDAStWRV79FIPEJSGAl/hiqByLQVASIvlq4cKFb/CY/v4Pl5rZaW/9KEVhNNSrJe10JrOQdW/VMBERABEQghgQksGIIW5cSARGIKAEJrIji1MlEIOUIkEpICmF2draKt28/DbsAACAASURBVKfc6Me2wxJYseWtq4mACIiACCQpAQmsJB1YdUsEUoCABFYKDLK6KAJNRKC2xXCaqEm6bAITkMBK4MFT00VABERABOKHgARW/IyFWiICIhAeAQms8HhpbxEQgZoJVFaaK95eUVFpK1cWWWVlxTpphWInAo0hIIHVGHo6VgREQAREQATWEJDA0lQQARFIVAISWIk6cmq3CMQfASKuVq8usRXLV9jKoiInszp27GDNmzePv8aqRQlHQAIr4YZMDRYBERABEYhHAhJY8TgqapMIiEB9CEhg1YeS9hEBEaiTQKXZ8hUrbemSJVZeUWFmle6QFi2aW/v27S0jI6POU2gHEaiNgASW5ocIiIAIiIAIRICABFYEIOoUIiACTUJAAqtJsOuiIpB8BCrNVqwsskWLFllFRcXagu4VFeXWtm0ba9OmjYq8J9+ox7RHElgxxa2LiYAIiIAIJCsBCaxkHVn1SwSSn4AEVvKPsXooArEksHDhYlu5cqVbmZCtsrLcWrVqZfn5+Zaenh7LpuhaSUZAAivJBlTdEQEREAERaBoCElhNw11XFQERaDwBCazGM9QZREAE/kdgdfFqW7hokZWVlVqzZs2cvGrRooWTV2kUxdImAg0kIIHVQHA6TAREQAREQASCBCSwNB9EQAQSlYAEVqKOnNotAvFJgMirFStWuAisli1butpXElfxOVaJ1ioJrEQbMbVXBERABEQgLglIYMXlsKhRIiAC9SAggVUPSNpFBESgQQSQWJJXDUKng6ohIIGlaSECIiACIiACESAggRUBiDqFCIhAkxCQwGoS7LqoCKQkgbKyMlfgPSsrS2IrJWdA4zotgdU4fjpaBERABERABBwBCSxNBBEQgUQlIIGVqCOndotA4hAgEqu4uNiWLl1q5eXl1qFDB1cfS5sIhENAAiscWtpXBERABERABGogIIGlqSECIpCoBCSwEnXk1G4RSAwCJSUltmzZMlu+fPnaBufk5FjHjh0TowNqZdwQkMCKm6FQQ0RABERABBKZgARWIo+e2i4CqU1AAiu1x1+9F4FoEygsLLRFixa5ou6+HlZmZqaLwmrevLlSCaM9AEl0fgmsJBpMdUUEREAERKDpCEhgNR17XVkERKBxBCSwGsdPR4uACNROgJpX8+bNt9Wri62ysmrf9PQ0t0IhEktF3jWD6ktAAqu+pLSfCIiACIiACNRCQAJL00MERCBRCUhgJerIqd0ikDgEVq4osoUuCqvCzNKsVascy8tr7Yq5a6XCxBnHpm6pBFZTj4CuLwIiIAIikBQEJLCSYhjVCRFISQISWCk57Oq0CMSUAFFYS5YssdLSUsvNzbUWLVpYenp6TNugiyU+AQmsxB9D9UAEREAERCAOCEhgxcEgqAkiIAINIiCB1SBsOkgERCAMAqQOsvpgGumDGelKGwyDnXb9HwEJLM0GERABERABEYgAAQmsCEDUKURABJqEgARWk2DXRUUgZQkgs9IwWdpEIEwCElhhAtPuIiACIiACIlAdAQkszQsREIFEJSCBlagjp3aLgAiIQGoRkMBKrfFWb0VABERABKJEQAIrSmB1WhEQgagTQGD17t3bFVL++9//buPHj4/6NXUBERABERABEQiXgARWuMS0vwiIgAiIgAhUQ0ACS9NCBEQgUQkEBdY//vEP4/1MmwiIgAiIgAhEhEBl4CzB1FF+HmYqqQRWREZEJxEBERABEUh1AhJYqT4D1H8RSFwCisCK/dixEhsRb9pEQAREIPkJrGupqH+WlpZmmZmZYXddAitsZDpABERABERABP5M4J///KcRucD2/PPP2z777OP+OPsHFP6tTQREQATikcDPP/9sG220kVIIYzA4/m/C3LlzraSkJAZX1CVEQAREoKkJ/PkeGHnVvVs3RWA19dDo+iIgAiIgAqlJ4Oqrr3a1Y3g4ee6552z48OEOhARWas4H9VoEEoUA71G+iDtt5n1MKYTRG72q1dcqbfbsOUYUljYREAERSA0CVRKroqLS0tPSLCs7y7p16xp21xWBFTYyHSACIiACIiACfyZw7bXX2kUXXeSE1TPPPGP77befBJYmigiIQNwSCKav+QgsIkUlsKI7ZOsKrDIjOLdZs2ZKJ4wudp1dBESgSQmku6wEtuLiVWaVZlnZ2da1axf3HhjOJoEVDi3tKwIiIAIiIAI1ELjuuuts1KhR7iHk6aeftv33318CS7NFBEQgbgkEBdZPP/1kffr0cQ8YEljRHbKgwCopKbPMzHTr1q3b2oe76F5dZxcBERCB2BNw8qrSrLyiwubMmWvlZWUSWLEfBl1RBERABERABP5HAIE1evRoq6iosCeeeMIOPvhg90DC//NdNbA0W0RABOKJQFBgTZ8+3fr37+/epy655BK77LLL4qmpSdWW0AisjIwM69Gje1L1UZ0RAREQgVACvPfxd2f27NlWXlYugaUpIgIiIAIiIAJNSeCGG25wEVjl5eX2+OOP2yGHHCKB1ZQDomuLgAjUSoAHCb/QxNdff21bbrml2//SSy+1sWPHil6UCIQKrMzMDOveXQIrSrh1WhEQgTghUCWwbI3AUgRWnAyLmiECIiACIpCqBG688Ua78MILncB67LHH7LDDDnMoVMQ9VWeE+i0CiUGA96hp06bZwIEDndAi+oooLG3RIbBuCmGpIbB69OgRnYvprCIgAiIQLwQqKeBeYbPnzFEEVryMidohAiIgAiKQugTuuOMOO/fcc2316tU2ceJEO+aYYySwUnc6qOcikDAEeKB49913bejQoa7NrEBIHSxtkScQTNskjYZVCFlKXgIr8qx1RhEQgfgjUFZabnPmzrWKcqUQxt/oqEUiIAIiIAIpRSAosO6880476aSTJLBSagaosyKQmASIGn3ttdds7733dhGjV199tYsm1RZ5AhJYkWeqM4qACCQOARaumDdvngRW4gyZWioCIiACIpCsBO6++24bOXKkrVq1ym655RY788wz13bV15pJ1r6rXyIgAolLAIH1/PPP20EHHeQE1vXXX2/nnHNO4nYojlsugRXHg6OmiYAIRJ2ABFbUEesCIiACIiACIlA/Ao8++qidfvrpVlhYaOPHj1cKTv2waS8REIEmJkAa24MPPmgnn3yyE1gTJkywU045pYlblZyXl8BKznFVr0RABOpHQAKrfpy0lwiIgAiIgAhEncBzzz1nJ554ohUUFDh5hcRiUxH3qKPXBURABBpBgLp9N910k1100UWuiDsy68gjj2zEGXVoTQQksDQ3REAEUpmABFYqj776LgIiIAIiEFcEqCFz7LHH2ty5c130AlEMElhxNURqjAiIQDUEiouLbcyYMXbDDTdYenq6TZ482fbbbz+xigIBCawoQNUpRUAEEoZAlcAKLeKeFlb70yqD76RhHaqdRUAEREAEREAEPIHPP//cDjvsMPvll1/sgAMOsKeeespFMygCS3NEBEQgnglQt49VU3nPysrKstdff9123HHHeG5ywrZNAithh04NFwERiACBkpKSqiLuFRXu703Xrl3dvXI4mwRWOLS0rwiIgAiIgAjUQGDWrFm211572bfffmuDBw+2Dz/8UAJLs0UERCDuCaxcudJ22GEH++qrryw7O9umTp1qG2+8cdy3OxEbKIGViKOmNouACESKgARWpEjqPCIgAiIgAiLQSAIUQh46dKh98MEH1qtXL/vyyy+tTZs2jTyrDhcBERCB6BJYsGCB9evXz5YsWWJ5eXk2c+ZMvXdFCbkEVpTA6rQiIAIJQUACKyGGSY0UAREQARFIFQLUwHr44Yetbdu2ro4MaTjUlNEmAiIgAvFKgGjRXXfd1Xiw2G677eyVV16xli1bxmtzE7pdElgJPXxqvAiIQCMJSGA1EqAOFwEREAEREIFIEeDB5Prrr7fRo0db8+bN7ZJLLrFRo0aFndsfqfboPCIgAiJQHwJ33323nX766a5eHyuoXnzxxdasWbP6HKp9wiQQrIlI2jmRu5mZmdajR48wz6TdRUAERCDxCEhgJd6YqcUiIAIiIAJJTODTTz91tWTKy8tt9913tylTpriHE7Zwi1QmMSZ1TQREIE4IIFAuvPBCu/nmm11BXVZT5T1MkaPRGyAkFn8PZs+evVZgde/ePXoX1JlFQAREIE4ISGDFyUCoGSIgAiIgAiIAAWrJ7Lzzzvb999/beuut51JxevfuLXml6SECIhCXBIgCGjFihL366qvWp08f++yzzyw3Nzcu25osjZLASpaRVD9EQATCJSCBFS4x7S8CIiACIiACUSTAal6kDU6YMMFycnLsgQcesAMOOEDRDFFkrlOLgAg0jAAi5Y033rC//e1vtmjRIjviiCPs3nvvdSsRaoseAQms6LHVmUVABOKbgARWfI+PWicCIiACIpBiBHgwIW3wmGOOseXLl7sHw7vuustatGjh6ssojTDFJoS6KwJxSoD3o9WrV7v0QYR7RkaG3XLLLXbSSSfpfSrKYyaBFWXAOr0IiEDcEpDAituhUcNEQAREQARSlcCcOXOcwHr99dfdkvQvv/yyDRo0yEVhSWCl6qxQv0Ug/ghMmzbN9ttvPyONkJTnF1980fr27Rt/DU2yFklgJdmAqjsiIAL1JiCBVW9U2lEEREAEREAEokuAhxK+EFX//ve/XSoh25577mlPPPGEtWrVSgIrukOgs4uACNSTQFFRkZ1xxhn2yCOPuOgrIq9uvPFGpTvXk19jdpPAagy9xDo2EpHXkThHYlFTa8MhUFxc7Fa+rmmrqKiwsrKyuEkNl8AKZ3S1rwiIgAiIgAjEiMDMmTNt+PDh9s0337j0wQcffNAOPPBAPRzGiL8uIwIiUDsBoq2OP/54KygosM0228xeeukl69q1qyR7DCZOLAUWdRmXLVtmPMT66/IhS9u2bWt96I0BhmovQRvZEjlamT5QQoCv1q1bu3qY4a7qyXixQuivv/5qXbp0cR+AhXuO+o5hUJBx3Whdp77t0X71I8C4sZLp7bff7mqtbr311n8qVYG4+uSTT+yFF16wMWPGuNd8U4+vBFb9xld7iYAIiIAIiEBMCfAHmhuGI4880vh0jBuL++67zzbZZJOYtkMXEwEREIEgAR56EBoHHXSQK+DerFkzu/baa100ViJLg0Qa5VgILEQE22OPPWaXXnqpIbL8xocqjPnBBx8cV9hWrVrl6rKRep/IcxFxRQT2s88+a1dffbW7D6A/4fRp6dKlbtwmTZpkgwcPtltvvdV69OgR1jnqGlw/D7lf4T2hTZs2lpmZWddh+n2cEJg/f76bI0T48/59+eWXOzkVFFTMxXPPPdftc9xxx9kVV1zh5HVTbhJYTUlf1xYBERABERCBWghwQ3jWWWfZww8/7PY6+uijXYoON4lKCdDUEQERaAoCvC+NHj3aCXUiPPbaay+78847rVu3bhF9OG6KviXKNWMhsGCBxHr//ffdwytiiA9T3nvvPbfiJGPOIiPxsn311Vd2xx13WIcOHezvf/97XEaH1ZcV0uD000936bm33XabnXLKKWELrN9++8323ntv++6775xwIEJyq622cum+kdyQICzesHjxYvvHP/5h3bt3j+Tpda4oEPARfggr5hfR/TfddJO1b9/eXS0oStn3l19+cXVZP//8c7vkkkvsnHPOsZYtWzbZ+70EVhQmhU4pAiIgAiIgApEi8PXXX9thhx1mM2bMcKmEp512ml100UXWrl27Jrt5iFTfdB4REIHEIODTsohw4YGHhxiExkYbbWQTJ060bbbZRotMxHAoYyGw/DUYZ8ad/583b557eP3ggw/c6rjxJLCefvpp95A9bNgw96EPD9iJuiGw+Fv/6KOPuvSuk08+2b2+wvnginNcd9119tRTTzlx9a9//cs6deoU8fuGb7/91vbYYw8nDp988knbcMMNExV7yrS7vLzcza3zzjvP+vTp41aR3XzzzWucG+yPyCYSEKl9//332+67795kqYQSWCkzVdVRERABERCBRCTAzcKUKVPcp7HUKqCOBQKLkO5EvkFPxLFQm0UgFQkE5dUDDzxgF154oYvEQaJff/31TrCTNsR7VaSjO1KRd336HAuBVV075s6dayeeeKK9++67cReBRarciBEjkkJgrVixwk499dS1AosFEnhthSOw2BfxSIQUcol7h2hsEljRoBrdc1K3kNVjqbGKiOY9nK2mFFXmEu/vpKES3bjzzjs7SZyfnx/dhtZwdgmsJsGui4qACIiACIhA/QmQpnPvvffa2LFjbeHCha6o6wknnOAeJDt27Lj2piOcm9v6X117ioAIpCoBHlr49H3JkiXuQYeIjsLCQldUmvcjokT4t7bYEvDv9bNmzXJpnAhE6htFe0NgIVPeeustNx+OOOKIGi+JhCHd9PfffzfayUMnIqVnz56urUQUV/fATNFo6m0R7cWx/M3Lyspyf+s23nhjl+bEccxN9uH3MHj99dddDZ8ddtjBrrzyyj+lEBJpkigf+gQFFqmalA+gr9OmTXP93mCDDVz0YyhDXqukDhJ9xb+9VKbw9vrrr+/q1dUmKVhZFLnBeP3xxx8uwgbupAUybtnZ2e549mFsmHc//vijK3VA3bFrrrnmT/OQ6+bm5rrjgrWVmBukov7www9u/NiPNGTub4L7MdeZE1wHce4jhRYsWGCkjcKKqK++ffuuLTCOuIMD0YOdO3d2kWd+868dvjOf58yZ4+bUeuut16CXD+ehXVwP3sxR/p/3TPpGW1jkggUu4MW40D94eDFEO9mfgvuMM7xhwYcEoXOWfUkLhRPzgP5zLD9jfLg+YonXTHUbrHkf5/370EMPdVKKc9VVX81HYDIXP/74Y/daIxqzroLusCD1kHZSy5USGHVdq66BkMCqi5B+LwIiIAIiIAJNTIAbB256uOngBpEHSLbDDz/cpfJw8+ZviBp7Y9DEXdXlRUAE4oCAf7DiOw9V//73v9fWvOJhlOgQHoB4MFbUVWwHzEfEcVWicmMpsHi4DgqsmlII+XvFimWklyKYaDNfzBXqMTF/iCpGaPn5w8M/X6TNUyCe1Df6xub/ru27774u8gNpimy5+OKLXf0lz4Tvvgi1L0LPz9j/5Zdftu233z62g9XAqwUFFnW9EE/jxo2zn3/+2bFAVNB3Cm8jBPyG+ONnMGIMfGTkFlts4Yq59+7du9oWwQhpRR2ku+++2wlEjvdbv3793KIySCY2Ii/5AM0z9mMEe79aJT9jbJ955hnbZ5991soa2k8/LrvsMlek3qensu9OO+3k+knKI332G6KJuUYa2/fff+9kDfc+U6dOdbsgeYhMP/PMM938Yp4i1bg2aXLjx4//0/sUko/UTOYZ72XM13A3P+8QVUQx8Xr88MMPHUNqBCLo2JBo1C9l/tLWoESjraTz0UYK7/vfIbFoE/d5CCY22MKOlO1tt93Wvb4o8u/HzF/rhhtucHWtqiuoz/WQuUjB1157zbbbbrt6CyXmBOIa1iwMwDyjbzVttBcOiC6k0wUXXGBXXXVVva9X03klsMKdqdpfBERABERABGJMwN8kccM+efJkd1PDzSY3gnyyx00BNyuKhIjxwOhyIpCkBPxDFMW7Eedffvmle6AlyoJVqBAQPHDW9el7kuJp0m4lgsBCPPFgzJzZddddXTQJc4d0M+rn8KBOwW8kDBKUjX4hrw455BAnAvbff39XWwlBgwjgwZ19zz//fBd5xEPs888/76I7mIfTp093hcp79erljvUChL+TRKNQH8sLmCYdwHpcPCiwhgwZ4iKvkFCs+khKIHWxiGxBiiAU/euQn8EAzkTqEEUFIyKQkDlEbVW3UYCdyBqi2Lge/Ii8YhyJfEJoUbaAKCI2IvBYgZTx5VhEBimK3IcQNeTnKOwRTwgwvxG9Q+QmImro0KFOWjFWyJT//ve/ToggMIPRfcwHzkPtNdqBFGEs4YGIQvIxp+BCwXvECXWdmCubbrqpOy+yNLhxDzVgwAB3HGIMKdSQjb4isBBNfKc2FH3ZZZdd3Nz/6KOP7LnnnnNz95577nGrt3ohSxsQbPyedlJ0n2gwxNzjjz/u5u1RRx3loqT8GFMPdeDAgdalSxc3niyqgCBE+n366adOyDFOCEskV2hBduYBbSUNkJRwzlOf6H0vNPlbQC0suFHzjPlS08b8QRI++OCD7u9F//79HY/QaLxwuUtghUtM+4uACIiACIhAExLghuDFF190n15yw86GuOJmiU9euckN3qjpAbMJB0uXFoE4JhCMAqCZPqUFWYBIILLlzTffdBGfPHzw3jJy5Ej30JgoqVhxjL/BTUsEgeVlFDICscHcIhoEwfKf//zH/a0inYgHaC+VeEBGTBCZxRxDRnAsc4/fEanD3zP+3vm5yt9DHmb5OQ/snBdpwHmCH+j4qKXG/D3kdUD0CSKttg3pQC0u5EhDI6KDAgu5g7xB9hGVA0PEARIIeUBkWTCKzacOInEQPggu5Anigsib6jaEFLKQsSAqykd1M44w5lxIQ8+PnxHBw+8RUUQWIbxYNZG0tmC/4eHbx3sL7yGMFdFSRHEhNtmfNDiEHMIcqeWje/gdUUN//etf7bPPPnPRSAgb0kSRL7SFcWFlVAQa0UhEiSKT2A9JhMTjHsmn1cGX9zeY0u/HHntsnUi2+r44fWQhko8ILFIaEVDUiULAIV9JdUTIMZ+9jGJeM29p66hRo1xapJdysGKMkW5ELjHvaD+yj+shsJhbjDNzg2gr2NBnpBIfaPLBAxKS8QhGsjGO9JmC/kSw8WEoTOo7T302AJIZ6XbzzTe711xNG/szjpdeeqmToMhFPgCp7/VqOq8EVn1nqPYTAREQAREQgTgg4G8gfvrpJ5fWQ+g5N/bc9HCTyqdq3EzynU/naqqDEAddURNEQASamICvx8J3Hsz5NJ9FI3ig5cGJ9xvEA1EDpI0Q8cn/1+cT+ybuWtJePhEEFvCD7fSDwc9I/0IaIEQQB6Qi+f15oEfMEIlCtAofxvjV97xkDR1YP4eJWEHWEAHDg3skI5JpNxKFyBOkUG0bD+f8XT7ggAMa/KAeFFj8PSeaiKgaX/sLaUR0DSmBRE2RNhe60WZez8cdd5yTGLUJLKKpGBPEFYIRocJWl/DjGhQC51iivBBTnKMmQfH222/bnnvu6SQPbaMWGvt6Icnc2GuvvZzMor3ISDbYI2SIMEJukuqIvPIbEU/IK6Qoc4p5QwQaEViwg+FDDz20NhWPqLG//OUvTjixeiUrVzb0Xgkp5COwkEtEFhIl5kUr85P2UTSd6EA+FCAikdTaHXfc0X1HSCLtQmuEIaOIWEQ2IcW4z+NaRDLRXsTYscceu/YDBa71zjvvuNcPv4cn1/IbUfxIJMaY1WSppdoQmQRXxBkCkhTGmjbmB3yIuqLmGVFuzNWGXDN4DQmspP3zpo6JgAiIgAgkIwFuBvxNLDd53KxwI0IaBQ+c/I4bJwqucrNEWDk3oxQ45RM6bmS5seGLB1GfBuTrhvgbC39TmYwM1ScRSFYCXhr4yAAeaIJfPmKFBwBSbyg8TErIF1984QQWKUd8Us77DO8jPCjxwIMU4AHVvz/w+7oebpOVcVP3K94FlpebzDE+XOHvFDKBh2e+IyNIQWV+EZ1BqqEXWDzoEm3EQz31qkhr46GXuUekTnVbLAQW16U/vjB4XXOASKnQYuR1HRP8fVBgIWuQej6KidcgH2DBDRH0yiuvVFvAPxyBRY0ppAeph1tuuaUT1ggepBnCoaYVEMMRWOxL1BPyA6lGWpwvCu/7DmPagehCZiIMuVcJCizkSzANj2NJMUR4wYOoK+YW71EIL/rB+x5Snvsh+CGUiJBCoPn0woa+n3mBxbylsD0R8khZ+uu5UUeQ+zDuv4gio2A833fbbTcnIVnVMxjhRp84LwX8iVSDA+x8ZBnvy9zjIQ9DxRvRYDCkOD3pml5G0h5ei7ymEJZIViK3GrLx4SmRY5yLKMraNl8TDb68VoPzuCHX9q9F5gTnpv9e7oZzvrTK6hR7OGfQviIgAiIgAiIgAvUmEKwvwUGEqBMyzqd4PIzyYBp6M8b/c1PNH3pWqOGmlAcCbvS4qSJ6y99Msi83GXxJZNV7WLSjCDQpAS+tfJQmsgCBgDjgi0/Akdyk8fhVxnig8Mf5uiS8FxAZQCQE0Q7BT/C9aGjsJ+hNCirBLx7PAstHXPA3hDRU/i6RavTLL7+4ucjmUwL5gIWHaESMn4OkpfF3DLmBVEVo8HeLqB2kBVEqzM/g/Iu2wPJCLiiH6UdNrwEvd/1xDXmtBAUWEURElgX/FiOb4Ua9KQQWMiN0C0dg0WbqbCEliDBjrLhHQFwTSYZoQQ6Frg7INesbgcU1iOKkADxpZETvhN5j0GbS7Iimo6g58oZ7FC+wPvnkEyeckFJ1bZwLEXriiSe6OUjxcPrHfOHfLIiDGCSCyN/v1HXO6n4fjMBCYBERF5o+ynsuY8T8RhISpUaqJhKNSDrG0C/E499jaT8RbfBgHKgjxXgjqBBYRKAhxkI1DD8jWo39EHWsyunPyb0i7+m8tqinWh+O1fWZdEe4EtkG25o2/xpoCNfajlEEVqSJ6nwiIAIiIAIiEAMCoTcG3JTxKSqfzHIzxI0LNzI8uPLHnhun6jZ9BhWDwdIlRCAGBEIflH1ajo8E8J+EBx+EeWhCCFDTinpFpALxRb0rRHfoKlbReiCJAZ6kuUQ8CCzSoIiQqW4VQuYZD89EZ5DCRDQKKVo+5YuHeeQBESeICh7g2Xx0MX+rEKxEj/CQzXcevIk+oc4Q9R95kPebF0bRSiH0vIlMpEA20T5+C0Ys+5/xmuLB3hcub2qBRYpZXTWwvODgHsKn1SFi+H/6g+gg6gbp6PvjudRXYLE/6XWMPd+pixQaPcRYInUQN9TDogA4H7A1RGD5VS39vEB+Ei2EnGNuku5HP+hATwAAIABJREFUWqGXOA0ZJz9vfQohAuvVV191kV5+o9/MGUo6MIeJvEJmIbCQU8goIumriwAjHRIeyFvqfCEVaXd1Asu3n9ceUWhcE+G3ySabrB0zXnucj2g00myRWQ3ZqFOGgKT9iLVYbxJYsSau64mACIiACIhAlAgEHy79QwSfphKVxY0VNy+EkBOJQUi9TyfigcE/3PJv/+AbXCI7Sk3WaUVABBpBoLqUX1+jitP6aEp+RoQl0gBZRfQlERVEZJKixRcFntk/KK1Coz0b0VQdGiECTSmwEBqklCKweKCuTmDxcElaO6liRIKwQhw1ibw45QGbiB7mGhFawdXfvHQAlY/UIm2PKCSEGfKBh3rqHQUFgS/iTk0fil0T2UXkTiSFKxKF1ds+/PDDtUKgJoGFKKGNDZUikYjAgiWr69WnBpYXWNwT+Nc/0hD5Qwoj4/7Pf/7TRSz5VSP9MSwmgwRCgJPeF6yBFcqfeXH22Wc7cQIjzhXcB0mIQPer6SECYdgQgeXnBxIVgcq5qXfFh3pElSEYETlIpVBRH3ypMuc41qdShr6MgxFYpGDzASICy/fLpzL6uqQU3ed9lygofkZ6LNGK1UUWEq1G1BjF3IlIQ+b5GlicY+bMmWsjsPz1uN8jhZB28yGmr4/G7+k7kVMIQl6/LDYQ7sZ5iKSj/hYrKCI269oKCgrcLrSlNtZ1ncf/XgKrvqS0nwiIgAiIgAjEOYGabtb5OWKKwqXIK/74c0PGjSFpRl5gEcXF6jfcYARrFdDtht6IxzkyNU8EEpqAl82+0LVfmcq/ZpEARDn4mlY+XZj6PHwhtbQlFoFYCqzQvymIDKJiePBHKCF0Qjf+hvBgi7giymbs2LFuFz9XqW906KGHOsGEIPECy8sr5jL/Dj7oIlaOP/54t79PBQtel3NTPwvhQb1H6hAhaUPT/xr6d4z20AZqTZKiz+vKR4xV9/dx0003dUKnoddrjMDyqxDSRl/EHXGNvKlpFUL6AKvQPvH/rPYHc9IYWb2O943ghpCEO/sS0UREXfBc/r2Jn1HrCUHF2PNvOAXHiDFE/LFKH9F3LBrRWIHFPQ4115CaiKD58+e76CMiwZBpviZTde8CRAJSQJ2UTVbeQ96GvmcGBRb7k+I4aNCgtWKJ+yuiyTgPwpf0WPrPB4qkanMMP6POlU/j5js1rHitvfTSS66QO79n8ymEzC/krn8/4Duvvcsvv9ylaQ4fPty9XoLtZR+EGL+nKDxtCq5SWJ93QvqLgCSC7N5773WCtLaN9wpSRrk2xe0pZt9YsSyBVZ+R0j4iIAIiIAIikMAEQtME/YOE71Jo5JYPZW/ozXcCo1LTRSDhCIS+vn0Hgq9fHr5V0y7hhrbaBsdaYFFHiPnDxsM/qUOIBiIveBhlQ5KScsrfDvb10oMILB6WkR7UXyNya9y4ce6hndpWSAWfQoh44YGc44mKQbowZ4kk4WEeCTF16lSXskQqYWh0IEIAccB3rk+UDefhfEgnUhgbujKh/xvp620FB6a6118wTbchs4720l+izXwNrGCKGUKF2kZt2rRZpwYWsoRoJaQNY0I0zsiRI110D3WLSAGkD3DhWP8eQY0yonM8d6QH3GCJ6HjhhRfW1qQKRmD5OUFKHtFeRMARpeVTPBEqzAu/Ih9zCYmEWEFUcW4iiWBItNDFF1/s0umI3kPE0AfaiDhlPMOpgRW8v4EDddToM20gCpXrbLDBBjUOD206/fTTnTxCmCBGYegXHfAHeoHFnCQiConHaoi0nXHgOmPGjHHR70hEoq78h4pEQSGUiIa9/fbbXeQW4pYPGxHEFHFnzCgJQaQWm08h5BheT0Q1cS1eX6R9Eh0F8+eff77aFSGJvkKk8Vrh3xSyD2cjWgwBzYeg1Kujr7VtSGyitWBI3xFfzLPGbBJYjaGnY0VABERABEQgiQg09lOxJEKhroiACIhAXBIIihvq3Pi0L4RQpDfOTSHt77//3p2aB0ciQHhY5uGfKBA2ImlIcUJUIRx4kOYhFylCDayOHTs6QUE6FyKBFDH2Q2Sw2iAbogpxQQ0h+sIDun8w5/pIDM5J5AznC92QN0QKUZSbjdXXePinrXyxihttSYQNgYUIgg+RbIihoJBGOBG9Q6QScsMXcadUADWvvLAm4pqi4UgRxohoG85zzDHHuPQxL8WoKzZx4kTHHbYIHqLAGDPYwxJx6Ot6BRkyJxCRiBMkDbWekCKIHQQY0TcsCMHGz6gBhRiidhbtZh4h1bgOcol6TwjI9ddff+1lGHtWzPMCiyiucDZeM9SFIr2Pf8OI+VCb0GQ/Io0oUs7cYi4hsHbdddd1Lu0FFlIIucN+pFHCEBHFz4gGvOCCC1xEFXLQR7ohhBFY8CPNlnpVtAmRy2tl4MCBLuptyJAha1NwvcBijLkOYo1j/FghtEj3JDqyug8hYUmNQ+YYMon0yrqEazDKC6k2evRoN/9IA6XdtW3UjWP+cj1WX2S1SL8yYjhjGDrntAphQ+npOBEQAREQAREQAREQAREQARGIEYFYCSwfJULNHB6ma4r0o9ukehFp5evtIK5IfSLFiLpAHEukDRFbRN6QSoQg4UGbh2k2JAYPx0QdIZx8ajsSyx+L3ECwVFfwmnMgDHhgRvwgQ5ArSBvEDOILQZAIG9EtCEGEC9E7RLIFZQQRbMgQJAnpZ14kIj5IdQumAob21wssxKTfqF11zz33uOgtxAhjgfQikgdZRHQRsiQ03Y5x5Qv5+MYbbzjBg0gh8oh9ibQhUi8YtcS4sg/RR9ToZKzZl9VOkUxci+sG+8tYIoCQN8yz0Cio+owpworoLyKZmGfUiaotfZBzkjJKwXkiABkDxE1o9FAwhZD2Ifngx8a+SCjEKxFPXiD69nIsEos5S9or14EP/SfCjrRBBFWwnV5g8TNed+zP9RBJ/D+ptqSKIsqq6x/ji1QkKoraZUSY8bqtT8Q98ovC7RT6ZxwoCF8XQ17nCCyitXr37u3eFxBZNb2G6zOWisCqDyXtIwIiIAIiIAIiIAIiIAIiIAJNTCBWAst3sz4pqn4lwCAaL8AoBs7DMeKAh1b+7etd+bTW4LV4GCdyBwlGChoSgPS/4ANvXQ/bPKQjgYhAIiqMCJi6jmniYf3T5b0c8in/dUXJBBnCtyaxUF2ktRdevk4m3P3KpIiQutj549mPSBu4Ix594XM/dsFr82/GCTnFNXzaYU1io7pSCOGMGamvrJ5HvS6iyeozJ7gmgo25hCCqrmagF1hIKsQigoYoNDYi5IIrLQbLN4Qy9RFryD8kbegKjb6vXmAhZfk37WODdZBzTXOAPhEpRyQkYhoR5SP8ahtnzocEJO0TEY2sZI7UtXE9jkEg77LLLk7Khr7u6zpH6O8lsMIlpv1FQAREQAREQAREQAREQAREoAkIxFpgxbKLSmNfl7bnES6X4BwJHb9wz1Wf8Y/F9RrSbi/JWDiAOl3INVa+RGI19HzViSdWBiRyjBRO0meJuqprq+n6oZIv9HqkWvbv399JXSLZ2MLtCzKKQvZEQhLdSKQkEWJeLodKRKQyxdiJuELiBVN/a5JeiDhEE1F2FL9HSte0cmldrCSwwiWk/UVABERABERABERABERABEQgDggks8CKA7xJ0YTahEa4siPRgPiURl/Mfvr06a62WkFBgas3xRc1o4IRXXVFmNXGIFjEnRROUikbI7Dq4l2dwKrrmOokJmmfpKdSPJ66XqQSEiXp00e9GIMTNddIHYTlDTfc4GQgxfxrm0ssPoAko94dxfNZTIC0Vb+KZWPmoSKwwh1x7S8CIiACIiACIiACIiACIiACTUBAAqsJoOuSCUMAoUSB+JNOOslY5IC0SFIVSSFEZPl6T40RKEEYDRVYDQUaCYHl5RRS75JLLnFF5ImSYgGEYOopjIhaQzxRw4ri+qyOyQqhRGnVxpB9KdhPXS5SDgcMGOBqgPlr872h4lACq6GzR8eJgAiIgAiIgAiIgAiIgAiIQAwJSGDFELYulZAESOkjuojXCqsCkjKIQCESyG8NlSehQLgGta8ouk9tqbFjx9rGG2/cYDlTF3DSFM8++2y3SieF9xsq4jiOL6LGqAnG4grIplAuFIn/6KOPXCQVCzoQvVafAuyIL45FWiG8gudtaJs9GwmsumaJfi8CIiACIiACIiACIiACIiACcUBAAisOBkFNiGsCvEYoRO8L0Ht5EilpFex8cMXHaJy/OtBck62x/fISi++1Ff33bfDiqbH9lMCK65ePGicCIiACIiACIiACIiACIiACkSEggRUZjjpL8hHwYiT4GvGSpr6rODaWSnUrcjb2nMHjfR+pVeX71FChVJdICq0TFmuWNXFTBFYkZ5TOJQIiIAIiIAIiIAIiIAIiIAJRIiCBFSWwOm3SEqhL1CRtxyPcsXjhKIEV4YHV6URABERABERABERABERABEQgGgQksKJBVecUARFIFAISWIkyUmqnCIiACIiACIiACIiACIhAShMIFVg8zGVmZlqPHj1Smos6LwIikBoEJLBSY5zVSxEQAREQAREQAREQAREQgQQnEKxLM3v2bCstLZXASvAxVfNFQATqT0ACq/6stKcIiIAIiIAIiIAIiIAIiIAINBkBCawmQ68Li4AIxAEBCaw4GAQ1QQREQAREQAREQAREQAREQATqIiCBVRch/V4ERCCZCUhgJfPoqm8iIAIiIAIiIAIiIAIiIAJJQ0ACK2mGUh0RARFoAAEJrAZA0yEiIAIiIAIiIAIiIAIiIAIiEGsCElixJq7riYAIxBMBCax4Gg21RQREQAREQAREQAREQAREQARqICCBpakhAiKQygQksFJ59NV3ERABERABERABERABERCBhCEggZUwQ6WGioAIRIGABFYUoOqUIiACIiACIiACIiACIiACIhBpAhJYkSaq84mACCQSAQmsRBottVUEREAEREAEREAEREAERCBlCUhgpezQq+MiIAJmJoGlaSACIiACIiACIiACIiACIiACCUBAAisBBklNFAERiBoBCayoodWJRUAEREAEREAEREAEREAERCByBLzASktLs1mzZllpaallZmZajx49IneRBD8TjOCjTQQiQcC/5srKytxrraa5xX7l5eWWkZGh+RcJ8DWcQwIrinB1ahEQAREQAREQAREQAREQARGIJAEvaGbPnr1WYHXv3j2Sl3Dn4jqrV6+24uJi928e3CsqKiw9Pd1atGhhzZo1i/g1I3FC38ZInEvnEAGkVFFRkb344ou2ySab2Oabb/4nKLw+5s2bZ6+88ortt99+lpeX514vEqmRnz8SWJFnqjOKgAiIgAiIgAiIgAiIgAiIQFQIxEJgIYF4+H766aft3//+t3uAZ+PnLVu2tDFjxtjw4cOj0r+GnpQIGYQbcg3Jpi35CDD/+IpllBMC6/7777dRo0bZtttu60RW6Ma8Gzt2rN1000127LHH2tVXX22tW7eWwIrCFJTAigJUnVIEREAEREAEREAEREAEREAEokEgFgKLdnOd5557zu644w4XhcVD+owZM1zUFz874ogjotG9Bp1z7ty59vzzz7sUrhEjRsRtdFiDOqeDHIFly5bZ5MmT7bfffrORI0damzZtokoGIcpr4L///a+ddtpp1r59e7vnnnts0KBBf7ouUo2U3qOOOso+/PBDJ7POOecca9WqVVTbmIonl8BKxVFXn0VABERABERABERABERABBKSQCwElq/7g7havny5i3pZsGCBnX/++fbRRx/ZnXfeGVcC66mnnrLjjjvOhg0bZg8//LCLEtOWPASYj9OnT7cdd9zRSJd9/fXXrXPnzlHtIHP+iy++cFIKeXbLLbfYAQccsDa6L5ge6CMWP/30U5dCyP/fe++9tvfee7toMS+ElVLY+CGTwGo8Q51BBERABERABERABERABERABGJCIBYCq7qOzJkzx0455RR766234kpgwWPSpEl2wgkn2B577GEPPfRQUgisSBajj+S5YjLJQy4Sa4HF9fg666yz7K677rJzzz3XRVXl5ORU233PF+FLdOJll11mAwcOdDK1S5cua9Mem4Jdsl1TAivZRlT9EQEREAEREAEREAEREAERSFoCTSWwKFJ90kknOYF1++2329FHH13jwzy/IJ2P1L758+cbD51t27a1bt26WW5ubo21gXwky4oVK+yPP/6wxYsXW3Z2tnXo0MGttBiMZlm5cqWrzcUxL730kp133nm200472c033+zqYLH5Qtqkm2VlZTVqThCJxvVICwsVGbSBtjI29NPXaILBkiVL3Op1FPbm9/CYOXOmS4Hr2bNntWlmwdUmOQcsOG699dazTp06rS2mT4f86ndECZH2RtuIQAtG+3AO9lu6dKn7Ofs0b958HR78nuN//fVXgy1jRdqc32qLHuJY+JDex34dO3Z0Y+aP4fcwoo3MhXbt2v1pPPh5YWGhYwUbjmUewJzjv/rqKzvooIPceanNBgc/xp47c8Vv9JmNseAcP//8szsn84g5SJ20IGfP0i9W8MYbb7goQ65H6uKGG27o2lbbxvm41qGHHuoKuo8bN87Vzqor8orjWJRh0aJFttFGG7mxoX1+5cNGTdwkO1gCK8kGVN0RAREQAREQAREQAREQARFIXgJNKbBOPvlke/PNN23ChAkutSp08zKFFENqUiFekCHICwQSUuSYY46xQw45xAkdv/mIF/bnWB7+ET/U3eJBHuGy55572pVXXumED5Lg+uuvtyeeeMKdG/FBiiPiCkHhxYQ/lvZuueWWDZ4UXOO6666zBx980C644AIn74KF4hE3f/vb31zhbuTeBhts4NrAz9kX8fTPf/7TFQOnzcgeeLCi3SWXXOLa5iUH4gXpgrx54YUXXN0lot/oMxxYCY9UTo7xUo7IH9pHJFqvXr1cuhtyzJ+TY4kGuu2222zTTTe18ePHuzZ5acMYPfbYY65tjAFtQIJtvfXWLvqob9++f5I39I/rfvbZZ27Mvv32WzcObLRz++23d5FIpPqxb0FBgY0ePdq++eYbN3Y77LDDOmLnnXfecdcicomFA5BM7PfAAw+4c65atcrJNbjDl74HI8sonE7Knt8YM4QQEVTMJxiycd5dd93VzjzzTDcfg2LTn495t88++9i7775rN9xwg5144omu//VdHACOvFb69evnxoS0x9okFgyJ9mIOI7/gxiqfiR451+AXXC0HSmBFg6rOKQIiIAIiIAIiIAIiIAIiIAJRIBAPAos0qSOPPLJagUWRd+QEEUMbb7yxi8ZBLCEQKHCNmELyIAW8PPBFsJFAU6dOtQEDBjhpgqxC5CA/EDP/+te/3M8QJ3fffbcTPMgeoleokUTEEGLHR2ohDRABl19+uRM3Dd2IhEG+3HjjjXbNNdc40RKUGT/++KNts802TsqxSh39ZiPqh5XrEDrbbbedEykUASfCCOGDzOH3RBQFazrRPxghMogA2nnnnV1k17Rp0+ztt9928mnixInunD6SiN8RMfTDDz/YRRdd5FaKhDts33//fVebibFBNgXHDr4II744L9eCH+f7+OOPXeTRo48+altssYXrkxcxnIs6T6TWIeToM2KJ9vz+++9uX4Rdnz593PkYf+Ql7ae/CKJghNaUKVPs8MMPd1F0yDRYcjzRT2zIMdpDlBVyzEfZMTbMIx+B58cYGXTxxRe7lNLNNtvMzUnEFLII7lwHIRkaKUabGJtddtnFCUkEVP/+/ddG89VnDjEG9JXxR6BRO6s2gcXqhUhJxCFSjbkc7SL19elHPO4jgRWPo6I2iYAIiIAIiIAIiIAIiIAIiEA1BOJBYNVUxN2nihG5gnBCuvh0KKKAEAYXXnihK8ZNZA2RKWwcR4QQUosoGh7oETpEvfDA6tPIeKj3wgYZwe8QA88884ydccYZNnToUCe2vNzwwoVoIi+1GjKpEAu0m3YR6YNsCAoJL7DoLyImKLAGDx7sUucQb0iiv/71r05occzBBx/s5Bss+LdnQfHw3Xff3bp27erkEedD0iDyiO7h+tT7QvQQUcSGqEIOkWYHI6LOOCepjccff7xbTQ+hQz98kXu4I5MQh4i/++67z6Ww0TfaTHQYspJoO/qOVPL9JsVu//33d2luV111lZNi9IvfM14cT6qgTwdEYHEe5sazzz67TrQU7Ycb0UcINPrFcYg8xpgN6bTXXns5JqyOiRj1G/1FVAaFKKmk9JX5xL85jg3eRDu9/PLLrn/sE0ynhMnjjz9uxx57rGOJgPKM6zt3kHvM5UceecRF7BE5WFsK63/+8x+XnosIRM4xVlrBsHraElj1nYXaTwREQAREQAREQAREQAREQASamEBTCixfA6uuVQiRKdWlWxHVg4QgsgUxQ7qYlza33nqrnXPOOU5icH728ZtPCeT/q4tk8UXcd9ttNycNIr0KoRdYPgILKRHciLghAgthU53AIv2NtD34ISa85CHNjLYjh0499VR3SsQPP3/yySfX/hyWvj4Y0U1ELxHJRnQRffYbUo8oNaLESE8kZfC9996zSy+91BBpCCqkITw5J9ciUujVV191Eg255ut3sQ+SbauttnL7ExlHhJVvI9FeSCBYEPHlI4aCUVXB8aIeGpKrNoF12GGHrY3ACkYgcf2vv/7a/Y72v/baa7WuQoikGj58uIsEY1+ix/x8hCORgKQRMk8YO6Kw/DxkrEldpE/Mx2uvvbZB8tMLNPpEpFpNAov2MG7UcaPOHONJ1FpddbOa+G2oyS4vgdVk6HVhERABERABERABERABERABEQiPQDwILKJSiNqpafN1nLwU8NFSv/zyixMLyASiXEiB8xvpddTG4nekXBE1RHpdsDB3TdeLd4FFBA81nkjR8+PHdyKBiJRCOhEJxIboIW2PjVQyjglKIVL+kE7UIqPWFf8OCj7qPhH9Qw0yonm+++47F0HE/4emUSKFEFFEOhHVRM2m4Ma1hgwZ4tqBrEL60Bb+/8ADD3RF4TmOWlnVFUX34893Ukq5ViwEFhFMyDLqhRHtRWRckCFtQegRFfbll1+uTY+kncjGv//9744tkWWIrHA3xgMBedxxx7k5TFopEWI1bUgsv/mFB8K9ZqrsL4GVKiOtfoqACIiACIiACIiACIiACCQ8gXgWWD5KiOLlr7/+ukuFovA29YtoN+lmRMcQRUOaGFFLfqOQOFFY1HbieCJwSGdDeJEaSERRTTIr3gUW0WRE/XTp0sV118uUs88+2/UZUYI08dKKvhKxQ+pg6Mp3cKTQOml6FIYfOXLkOgKL3yNliPyBI+KEaCCEYFDi8G+is5CGSC+ifoKShbHkXH5VQqK3EFCIKuQZ5yeNj/TN3r17u3NXFynnf9ZYgcUqhKQXUiPKR2DVFKVE7SxSSokmQwaGpo8yD2fMmOFqTnkxF5yHp59+ukt3RS76yLhw3jjoM+clmpBabki70FUfwzmf9v0fAQkszQYREAEREAEREAEREAEREAERSBAC8S6wEFTIAyKqkA1E8PgC5Ugqal0hpxBYRKf4zUehfPTRR058kVJF3SOigxAkSAXqEvmaSsHhigeBRV9qqoFFBBT98hx8Olt1Aosi40Q0IbCQd6Hiw4siviOR9t133z8JLNL9kE2kAFK3irpgREyFCh/ECnWeiJAjuqq6ukscgwAaMWKEi+ji34wt6YYIRgQW9c6C5w6KLD9OkRBY1aUQViex6C/RbaR0Ir1CJaA/hp9T/J0i734j6oyfcQ5SMX1kXDhvD8EILMaS+VxbBFY45071fSWwUn0GqP8iIAIiIAIiIAIiIAIiIAIJQ6CpBBapbb4GFimECJLQjYiWe+65x8kD0gOvu+46FwHDwzvSgFXZKKqNBKEGVjCFkHNxPBsRMgsXLrTvv//eRSghTDgHUTEcH1pfywssJAznDacGFtdE4CAzkEbVCRHk2qhRo1xtJIq4+xpYfl9S6pArkRBYCEC/mt/nn3/uJGBw85FRMERuwSWYlki0G+NEah+rOZImSOogtcF8gXZ/Ps5PoXd4UxyelDu/hUZUwZQIOK7/ySefOCHGtbkOAijIzddAC4osVgUkrY9USlYWRLz5jf1I9WNOBYu4B38PY2QoUWxE94VGswUZUZie1EraRaoqEXA1CTakHWPvf89cICKOwutExVG7LNyN/lDHjRpa1HyjSHtNNbD82CF3mYsUwg/Ob9XCWpe+BFa4s1H7i4AIiIAIiIAIiIAIiIAIiEATEYi1wPISggLTFBdn9TkezllRLigYeNCmftA//vEPl7I2evRoJwJ8wXC+Iz6ob8UqgYimYAQWv/fX8vWUOCcPrKS5UUeIlLnQAuq0gZQy0rUQFgiV4Gp5/N4zCw4ZP0NWcOxbb79l66+3vruOL+gdTLdjX/py+eWXO5HFdwQS7SRC7Pbbb3cr2nXq1MleeOGFP61CGE4EFnWlWIEQuUQ65dFHH702PY/rITloW3VF8kkrvOKKK5z0GzRokBNuFHKn2Dvyh++IH8+DGlBwI+WQIu6MTVC0cC0/Lr6/yClSGInA+vbbb921EFPINC+9grz9v1kNkSg65BKSM1i7i+issWPHumLn9B3pFCzizrgx/xBstIN5RNQX565udUkWC0B08nsi+Tgu2K/gIgN+zvm28zvSJU855RTXL+Z6OEKUtnKOMWPGuFUnSfEkkqu68fJzk3FgnGBERNwuu+yyjlRroreauLysBFZcDosaJQIiIAIiIAIiIAIiIAIiIAJ/JhALgVXdKoIIBCJ7EFhEYPFw7x/AfSsRQogrBBb7smofUTpE+Hz88cd27rnnutXsqIEVWsSdfXjI9+IoGBFDtA51l5AlviaRFyvsR3QYKxpyDqSPj9LyNbmqi2LheFIU99xzT5s7b641b9bcCR8knZduQfmFpEJG7Ljjjk5wrL/++k6AEdlEv0g942cUS6d2Fdf86aefXLHRqaEDAAAff0lEQVTwcARWaWmpi0Y6/PDDnaQh5ZI0NC+tkEpe8AWlCA/2yDsKhyN/OI62UsOKyCaEGKlxiBXaw/k4F1Lwsssus/79+zuBxIp9fiVCP65w9aIINnAlMglZRlok8gXmSCI/Log4pBZRWxwLn3HjxjnGyCuKpPN7IsZI00OgcR3GA7lJNFtw43dE8zHWiCEEUzBiLjhmRDOddtppjgHijsg9WAaFq58b6dTuClndkrm23377ufEkMi20uH1d70sFBQXu9UHds7oWPOBc1Oyivcwn6p+9//77a1errOtaqfZ7CaxUG3H1VwREQAREQAREQAREQAREIGEJREtgufNamvGfVVZYWVmFXX3Ntfbbr79RddyKVxXbu++8ZXPnzbMdtt/B1lt/A0tLT7M+vXvbiSefZG3a5HGgTX5qso04/njLys5yEqBv743sq+lf2+tvvWW9N9zQ1WVqlZtrjz78sG27ZhXC1cWr7eJLLrYvvvjCNu7b17p272ZZmVm2ZPFie+/99+3TTz6x7bbZxu574AEnFayi0iw9zSqJRkpPd5Ffoy8cZXfdfZe1bdfOdh+2u/XdeGNbsnCxzV8w3y4cNcqJmaoomwpLs3SrqCy3d95+x/bbb7gVrSqydEu3i8dcbKP/cZE1y/5fWp4RGZZm9t1339teewyzuQsW2E5DdrIddtjBvp4+3d55+23bfdgwJ666dOpszz73XNVqf2nmUiYHDxpk+a1a27sff2SdOndClayVdOeMHGm3uCLu4+yi0Re5PtG3BQUFdsH559vTkydbm7Ztbfddd7O+fTeyZs2a26KlS2zWrNlOCt1z992u/1zrw/fet0MOP9wWLlhgl158iZ1/4QXWrHlzJ6mef+45O4aIubQ0u/6GG+yY44518qeivMLmzJ5tp5x0kr399tvWLr+9DdtzmPXpvZETKKT9zZs717p062Yjzxlp7drlE87mXjsL58934/7Ka69Zi+bNbcDAgdaPovMZmfbDjz/aqqIiu+22W61Pn76WkQ7vSnv91VftKFY9LC+z4fvua+v3Ws/eff99+/Xnn2zggIH26ptv2C4772wPP/Kotc5rbf+TS1WXZbVGot9yc3Js512HWr+N+1l5SYn9Pme2HXfMsS56y82Likr7Zvp0G3HCCJv65VTbsPdGttuuQ239nr0sMzPLFi1e7OTiTjvvZMefMMJxCm70m5RQiuAj1oiKCsrV2t48eB2RJonAogYXojaYmlndsQgzVvXkushHVjAkHbY6kZywb1wRargEVoRA6jQiIAIiIAIiIAIiIAIiIAIiEG0C0RJYTgpVVJilISgqray00oZtP8SmfvmlFWeYZfK7ykorSTPLrGQPs8q0dBuy5UB77MXnLb9jRydflq9cbpMmPmD/vuoq+3HBfGuWlmbd8jvYXocdYiPPPNMOOeggW7JsuT322OO29XbbOvlSVlpu/7rycrv5hhuteFWRFZtZRqVZhpnltM6100ecaMeefrr1XK+XpVeFy6yRPbQX42Y297ff7Y677rAH7rnXFixZZOXpZjmVmda5Y0d79NnJNmDgILMMBJZZWkW6VVqpLV60yM48boRNee1lW69TV7v/oUdsqx2Idspw0srJoQquV2mVFeX2wVtv23nnn29fffONZVeatW3f3s484yw76oQRtvXgwdaxRY49Mvkp67tpP7O0DJv5y882dPDW1rFVnr348QfWHkacM52CX5U2auRIu+3OCTZ+3HgbOWpUlTwsr3D7zJ87x6Y8+oTddvdd9vuvv5iVlVuRIRnNuuV3tN0P2M9um3CnpWWk2bxZs2zkSSfZlFdesf333c9uuutOa9+hvaWlcSGz4qIim3Dd9XbVlZdbfteudtfd99jOw4ZZJaNYXmEFc+fa/ffeY5MefMh+nP2bE0CVFRVWkZ5mXdu2tZNPPc1OGzXKWrXMIUHOLCPdceS4yf95wh5/4CH76ocZLp0yw9KsVZtWdvDwv9rY8VdZfpculsbUKS+zVWWl9uzEh+yK8Vfa7HnzrVlFhXXu2cMuv/wK69q9hx15xGE2aMuBdu8jj1qL3BzLyMhybUSUAm3JwgJ75P6Jdu8tt9qP82ZbWkWlG4e0Fi3tsUcfsWH77GWWkcHEtIrKCpv50092+z+vsSmvvGQLFiy0ZpWMOpo2zbp06mQXXXmFHXLUEZYdIrB4jRFdRr0zUjERSqy4WF0qaujrHelEmivRgkRVXXvttTWunumPJfKKiDKi+aiBNWXKFBc9p+3PBCSwNCtEQAREQAREQAREQAREQAREIEEIRE1gOZlRblZSYot/nWnp2VlWsrrM5v0+21q2z7NMy7AlBQstr2tHq1y1ypYuXm753bpZ+Yollpufbx06dbOlc+dZek62NWvewn6a+rUtLyq05pXpltkix7pv1tdalKfbzz/+YHldOlnztExLa5ZlbTvk29LfZttKK7eMigqbN/VrW5llllFcZlZaZt2HbGutLMvKrNLyu3S0VYuXW3FlqbVr396W/jHPsvJauoiuRbPnWVrLbFu1dJnN+eY7q8xrZa3LzcpbNrfeW/a30sIVtrqiwtp17GBL/5htmW1aWU5OK5v5+TRbunKZdW3f0dJyW1mH9XtZ6ZLltqJoheV37WwrFxfa6vISy2+Xb4vmLLBlxcutZH6BzZnxo/XYZqB16d7LVi1fbsVWamXLi6x561zr1KuHFRUstRVFy10E1NJZc63rpn2tdatcWzp3geV0aGtZaRn28/c/WLP81taiMsMysrOsXZeOtnxhoZVVllnb/Ha24OdfrcgyLGN1kf32yQeW3a2HtWuZZ8XpmdalzwaWk93SilYss7z8tjbzq++syMqs5wYbmBWttuy2udYsK9uWzCuw3M7trWTZChcRltepveWlZ5s1y3bXK5y30CrSzZrntLA/vv/RSitWW+mixbZqfoG13WQjy2mTb6WrVlmPPhta+YpiKypZbe26dLJlCxZZWXql5TRvYb/P+Mkso8IqCpdbyaJCaz1gU2uV3dxKy8qsffcuVlK40laVrrZ2XTvbop9/t0VLF5n9/2p/y2bNtfZbbGJde61ni+ctsLKsdMssx4+lW7vundcel9+5oy2ds8CseZa1aN7CZn79rVWmlZutXGHFiwqt/eCtLS+nma1aVWT5XbtbydJlVlRWYu07dbRZP/xiRaXF1rKiwmZ+/Llj2AXOZcXWfZPNLK9z1zWCbN03AFIbSV2l3tZNN93kUmLrE4XF/hTGp3A89b5YQbM+hdhJu73oooucKCPdllpsHFefYxPkrSsizZTAighGnUQEREAEREAEREAEREAEREAEok8gqgKrosIqFyywpy651Jp17WjDhx9gD117o2154D7WoVUbmzThTjvowpFW9MuvNmXyFDt29EX2+bNPWEFpqR143An2wm13WMuNetmuQ3e1J267w7bYZw/rkN3Cpjz6mO1/9mm2ePoP9sZLL9mxoy+wz597yeasWGp/Pf5Ye/qG26x1vw1tz733sYevvt767zPMOue0tifvm2hHXHaRLfxsur3+6it25Hkj7YspL9usZYvsoOOPs/9c9i/rNXQ7237HnezxG2+xAfv9xbq0aG3PPPCw/W3sGPv1/9P73nv3PTvygvNt6vMv2q8LC+zQE0fYs/+6xjrusI1tM3hbmzzhXhswfC/r2jrXnnzwATvogvNs1gef26effWqHn32affbsS/bjvFl25Ckn2eTx11uvXbazAQO2tP/cdJsNPmS4dc1pbY/dcZcddcmF9vuHn9ln0760w84+0z6fPMV+njvLjjztVJt8wy3WdbutrP9mW7h/73DUYdaxdVt7YsIddtjoc+2Pjz53UV2Hn3eWvfPoUzZn2SI75Jij7anrbrIe2w2xzTfrZ0/eer3tcOQx1iG7lT1193126IUj7Y/Pptr0Gd/bwWecbO899B+bX7TcDh5xvD1/293WaeBmtnHv3jbp1jtt1xOPstaWaY/dc68dfM7ptmjaDPvq+2/ssLNOszcfeMwWlZfYoUcfac/ddqd1HriZ9evTxybdOsF2OfEYyy2psKcffMgOPOt0m//VNzb9xxl24Gkn2Rv3PmyFWWaHHnWUTbr2Zuu57UDbpN+m9tStE+wvp51g6ctW2pMTH6xq56dT7evvvrGjzjnL3rhzopXmtrB9Dj7IJt10u/XaYZBtvMFG9tQdd9tfzjrFKmYX2AuTJtkh551lv3zwqX370ww7/Owz7OXb7zHr3M72Hr6/PXXDLbb+jttYv7597fEbb7V9z7nQSmb/Yi8886QdcvZ59vsHn9jXP3xrR517tr1w612W3aOL/WXffezJ626xrjvuZP379rZJd91me4w8z7oP3trSiNoK2XidsXogNdd69uzp6oNttdVW1QolXwieFSRZ3ICi+NQWQ3r5umA11WHj2FmzZtmJJ57oUg/PPPNMV1+M2mHa/kxAAkuzQgREQAREQAREQAREQAREQAQShEB0BVal2cqVVjhvrqXn5Fhu81a2dH6BtWjX2jLSMqxwfoG17tTOpb8tW7LM2nTrYsUL5ll5Vrbl5rW15UsLLT073aVBLVtcaM3zWlpGZbotX7zUctu1tvLVpbZiRZG17dTeigtXWGlFmbVu09qWLV5u6RmVltu6jS1ZsNBatG1lmelZtnzxEsvrnG9lRSW2YmWRtc1vY6uWLrfSynLLzW9ny2bOsqz2eZbTMseWLl5qzfJaWNbqMltetNry2re10mUrbWVJsbVpn2/Fy4uspLLC8nJb2bIlhZbZLMNa5rWzZQsWWvPWOZZpZstWrrS8Du2sZM4iW5WdYXnt21nxvIW2OsOsTV5rK1xUaNk5zVwUUCH9a9XcstIzrXBhgbXp0sFKlqxwkUZ53btY8cJCK6kocysiLl+yzLKaZVizDPZdYjmd8i2zrMIKuV6bXCspKbfi1autTaf2trJgiZWWlVibtnnuGlk5rax5dpYtW1JgLdrkW2ZRiRUWLrc23TpZyapSW11WYq3z21rR4kIXpZaXB89Cy2yZbc0ys61w0RJr1S7XMirSjMLqeZ07WNnK1Va8epXldci3lQsWW7mVW16bPFu2eKll5WRbdlYzW1aw0LUzvazSMWrdKd+llRYXF1leh7a2YuEyq0irtDzaOX+hZbdqYc2yW9jSRYur5sjKYissXOYi9koXL7Niq7Q2+W1sZcFSqywrttxu3a3w9zlu/GgnY5LbuZ1Vrlzt5guRYiUFi2x1dpbl5bWy5YuXm2WZ5ea2tmVzFlh2fp41y8qywoWLLbdTF6tcXWQrVi633Hb5VdF2xassr3tXW7GwsOq4VrlWWLDEslq3tuaZGVZYuNBy8ztaZk7LqrTDajZ4XXrppa7IOjWxKMjerVu3P+1JlB2F4ymGT7F/Vo5EQvkVLWtKPXzrrbdcjaxPP/3U1eTaY4893HH1jdpKkLesiDZTAiuiOHUyERABERABERABERABERABEYgegWgJrApXXynN0kgjLC8zS8s0S8+oKpjunu/TzErLq+o0uULvlCWi3pCvnUUxcQpGuSJVVQDctzWF4TPSXR0nV8Vp7a5V9ZSsbM1xriB5elWtqoo1ReWrilBVtYPzUU/J/Yz/Ta9qa3ZWVa0qV1uqqlaXZdN29uc42lhVy8rVoKJAVmVp1bVdUXJ+TzvXXMDV2KqqH+W6wzX4R1pGVe0tV6sq2M//1eSqdHWzKizNFdFaMw/YNSNtzbnK/3deruP7z3nZx7W5qn9VxerX1PxyHV7ze9coj9oX3l/zI4rx+zpb/lzu2ozjmvH0DWNcaU6FH1fORYGzNUXO1jJY055Al6tqdQXmgJ8THJuZWdX20tIqXumZrgZWWibsK6sK6btxqDDLYuyq6n6583GcK1SWVvV7d941F3a1sPh91Rxyv3Rt9e0N8Caa0CGrKnJfte8a3n5urinQ7+uoBaOk/GqLixcvdqskTpo0ya3wyIqLoRsrR7L65dlnn21Dhw51+7DqYXCVyOreESZMmOBWY1xvvfVsr732citP5ufnrxPlpRTCdcnBmpUoqTVGdFvXrl3DTrNMq/Qxc9F7n9aZRUAEREAEREAEREAEREAERCClCfjHLh5qSVfiYS4zM9O6d+8eWS6ViAPkzprTBkWMv1JNPwtKDv/v0PNU11ovLYLH+GuslTX/82MUGa8qUr5GdoRDINjG4HGhPw9ti2+jb09AhHgJ4k639rhQmRcQLJ6xFz9rzxUQhP5nodfzbfZcg9IwOD7VjV/o9YLnqul3a68fYO2lUnCMgn0PHbO17NacY81qho5b6LlqmkO+fcHv7jrVzAHX9zUnCkqw0PbWMW94zc2ZM8euvPJKtxrhsGHD/nQEMuWrr76ya665xhV+5/VYH/G0YsUKKyoqshYtWrioRS+86lMsPpzpnmz7/vHHH662nARWso2s+iMCIiACIiACIiACIiACIpA0BGImsJKGmDoiAo0nwOsO0dS8eXPLqCHdsKyszK3CiIiqj7xqfKtS9wwSWKk79uq5CIiACIiACIiACIiACIhAghAIJr4QFRK1CKwE4aFmikAsCATFcXXXC74uJa+iPyISWNFnrCuIgAiIgAiIgAiIgAiIgAiIQKMISGA1Cp8OFgERSAICElhJMIjqggiIgAiIgAiIgAiIgAiIQHITkMBK7vFV70RABOomIIFVNyPtIQIiIAIiIAIiIAIiIAIiIAJNSkACq0nx6+IiIAJxQEACKw4GQU0QAREQAREQAREQAREQAREQgdoISGBpfoiACKQ6AQmsVJ8B6r8IiIAIiIAIiIAIiIAIiEDcE5DAivshUgNFQASiTEACK8qAdXoREAEREAEREAEREAEREAERaCwBCazGEtTxIiACiU5AAivRR1DtFwEREAEREAEREAEREAERSHoCElhJP8TqoAiIQB0EJLA0RURABERABERABERABERABEQgzgl4gZWWlmazZ8+20tJSy8zMtO7du8d5y9U8ERABEYgMAQmsyHDUWURABERABERABERABERABEQgqgSQWBJYUUWskzeQgJ+bDTxch4lAnQTKy8udvK+oqLCsrCzr2rWrez8MZ0urDMayhnOk9hUBERABERABERABERABERABEag3AQmseqPSjiIgAklGoKSkxObNmyeBlWTjqu6IgAiIgAiIgAiIgAiIgAgkIQEJrCQc1ATvUkFBgSEWiIhp166dS2vVJgLRICCBFQ2qOqcIiIAIiIAIiIAIiIAIiIAIRIGABFYUoOqUDSJAOtecOXPsvvvus2nTptnAgQPtuOOOsy5dulhGRkaDzqmDRKA2AhJYmh8iIAIiIAIiIAIiIAIiIAIikCAEJLASZKCSvJnUIGL76quv7JJLLrGFCxfa4MGDrV+/fjZkyBDbeOONFYmV5HOgKbongdUU1HVNERABERABERABERABERABEWgAAQmsBkDTIREnwDxkFUwir8aNG2e9e/d2EVjvvvuubbnllrbnnnu6AtukFWoTgUgRkMCKFEmdRwREQAREQAREQAREQAREQASiTEACK8qAdfp6EWAerl692kVgIbAGDRpkRxxxhM2YMcPefPNNl0Z46KGHWocOHax58+b1Oqd2EoG6CEhg1UVIvxcBERABERABERABERABERCBOCEggRUnA5HizQgVWNtss42deuqpbnW41157zb799ltr37697bHHHtanTx/VxErx+RKp7ktgRYqkziMCIiACIiACIiACIiACIiACUSYggRVlwDp9vQiECqztt9/ezjjjDMvJybEVK1bY66+/7kTWVlttZUOHDrXu3bsrnbBeZLVTbQQksDQ/REAEREAEREAEREAEREAERCBBCEhgJchAJXkzQwXWdtttZ2eeeaa1atXKRWEtWbLEPvvsM3vxxRddfawDDjjAOnfu7CRWWlpaktNR96JFQAIrWmR1XhEQAREQAREQAREQAREQARGIMAEJrAgD1ekaRKAmgZWbm+vOV15ebgsWLLBPPvnE3n//fWvXrp0deeSR1q1bNyewJLEahD3lD5LASvkpIAAiIAIiIAIiIAIiIAIiIAKJQkACK1FGKvnbWVxcvLaIu4/A8gLLS6ylS5fa22+/bZ9//rn16NHDdt99d9tggw0sPT09+QGphxEnIIEVcaQ6oQiIgAiIgAiIgAiIgAiIgAhEhwACi23OnDlWWlpqmZmZrr6QNhGINQEE1rRp0+yqq66yUIHlRatPJ/zggw9sypQpNnjwYNt5552tZ8+e1qxZs1g3WddLcAISWAk+gGq+CIiACIiACIiACIiACIhA6hCQwEqdsY73nnqBNW7cOKOIOzWwfASWF1j0AYlFOiE1sSjujnClJhbfJbHifZTjq30SWPE1HmqNCIiACIiACIiACIiACIiACNRIQAJLkyNeCFQnsCjiTn0rP099W6mJVVBQYG+88YZ99913lp+fb8OHD7cNN9xQ9bDiZUAToB0SWAkwSGqiCIiACIiACIiACIiACIiACEBAAkvzIF4IVJdCiMAKzlOEw++//25//PGHlZWV2fLly10U1vTp0+2KK65w6YQq6h4vIxr/7ZDAiv8xUgtFQAREQAREQAREQAREQAREYB0xoBpYmhBNTSAosLbddls766yzLDs72xYtWuREa8eOHd2/H3/8cXvqqaecwKJ4e2FhoXXt2tUuvfRSl3oogdXUI5k415fASpyxUktFQAREQAREQAREQAREQARSnIAisFJ8AsRR90MF1sknn+wirJ588knLycmxv/3tb67+1aRJk1zqIEKLCC3qZPXq1cuGDBniViaUwIqjQY3zpkhgxfkAqXkiIAIiIAIiIAIiIAIiIAIi4AlIYGkuxAsBL7DGjx9vm2++ue2777720Ucf2dSpU61t27a2xx57WP/+/W3+/Pn21ltv2W+//WZbbLGFDRgwwDp37mx5eXnWokWLtTWwEFnaRKA2AhJYmh8iIAIiIAIiIAIiIAIiIAIikCAEJLASZKBSoJmrV692suqyyy6zLl262KabbmoffPCB9ezZ0zIyMgzZcOyxxzq5hcC699577S9/+YsNGzbMyauWLVu6lEIvriSwUmDSNLKLEliNBKjDRUAEREAEREAEREAEREAERCBWBCSwYkVa16mNAPPQC6yxY8fazJkzXXQVXwisH3/80aZNm2bnnHOO7bTTTvbNN9/YE088YQMHDjTqZbVr185FXwUFloiLQF0EJLDqIqTfi4AIiIAIiIAIiIAIiIAIiECcEJDAipOBSPFmeIH1xRdf2FVXXWXLli2zPffc0wYNGuTSBxFYrDTYrVs323HHHZ2w+vzzz93PNtxwQ9t7772tdevWqn+V4vMo3O5LYIVLTPuLgAiIgAiIgAiIgAiIgAiIQBMRCAqsktJSy8zIcIWwtYlALAkwD8vLy23GjBn28MMPO2m1++67O1GVmZlpK1eutO+++87++9//Oql14IEHulpY48aNc+JqzJgxbiXC0LRBpRHGchQT71qlpaU2d+5ctzhAVlZWtXOorl6lVfp30br21O9FQAREQAREQAREQAREQAREQAQaTKCy0izNKm3W7DmuxlB2VpZ1697tTyKgwRfQgSJQDwJeYBUVFTmhQCpgmzZtLDs72/gdBd4RWBMnTnQrDlLgfdWqVXbfffdZ+/bt7fzzz3eF3Nm0CmE9gGsXR6CsrMzmzZvnvktgaVKIgAiIgAiIgAiIgAiIgAiIQBwTWCuw5iCwSi07I8MJrMo4brOalnwEEAhIK2QV0TB8R0TxMzbkKmLr/ffft88++8z9m8Lu66+/vg0ZMsR22GEHa9WqlQRW8k2NqPWI6Cui+5hLElhRw6wTi4AIiIAIiIAIiIAIiIAIiECECGCq0ipt9uw5trqk1NAFmZkZVoHZ0iYCMSKAtPICy8urYPof6YVEYS1YsMA++eQTt1ohETMUdN9yyy1dtFZwf6UOxmjgEvgyzDPmHHOLjWi/6tJQ6+qiUgjrIqTfi4AIiIAIiIAIiIAIiIAIiEDECFQJrJLSMkurCsnSJgJxRwDRQIrh4sWLbcWKFU5YUSsLeYXMIiJLmwjUh0B1gpNoLBYJCFd+SmDVh7j2EQEREAEREAEREAEREAEREIFGEqioqLT0NLOChQutFIG1JnlQ8VeNBKvDI0oAqeDTC0n9Qmb5FEPEA5E04YqHiDZQJ0tYAn7eIEGppxbuJoEVLjHtLwIiIAIiIAIiIAIiIAIiIAKNIIDISktPU/BVIxjq0OgS8Gu9kW7IF5uXWD79MLot0NmTiUCkhKcEVjLNCvVFBERABERABERABERABERABERABCJEwIus4OkiJSMi1ESdJoUISGCl0GCrqyIgAiIgAiIgAiIgAiIgAiIgAiIgAiKQiAQksBJx1NRmERABERABERABERABERABERABERABEUghAhJYKTTY6qoIiIAIiIAIiIAIiIAIiIAIiIAIiIAIJCIBCaxEHDW1WQREQAREQAREQAREQAREQAREQAREQARSiIAEVgoNtroqAiIgAiIgAiIgAiIgAiIgAiIgAiIgAolIQAIrEUdNbRYBERABERABERABERABERABERABERCBFCIggZVCg62uioAIiIAIiIAIiIAIiIAIiIAIiIAIiEAiEpDASsRRU5tFQAREQAREQAREQAREQAREQAREQAREIIUISGCl0GCrqyIgAiIgAiIgAiIgAiIgAiIgAiIgAiKQiAQksBJx1NRmERABERABERABERABERABERABERABEUghAv8H70S1pPU0I68AAAAASUVORK5CYII=;" vertex="1" parent="1">
          <mxGeometry x="160" y="120" width="570" height="295.93" as="geometry" />
        </mxCell>
      </root>
    </mxGraphModel>
  </diagram>
</mxfile>
